<?xml version="1.0" encoding="utf-8" standalone="no"?>
<!DOCTYPE svg PUBLIC "-//W3C//DTD SVG 1.1//EN"
  "http://www.w3.org/Graphics/SVG/1.1/DTD/svg11.dtd">
<svg xmlns:xlink="http://www.w3.org/1999/xlink" width="1593.609274pt" height="335.567344pt" viewBox="0 0 1593.609274 335.567344" xmlns="http://www.w3.org/2000/svg" version="1.1">
 <metadata>
  <rdf:RDF xmlns:dc="http://purl.org/dc/elements/1.1/" xmlns:cc="http://creativecommons.org/ns#" xmlns:rdf="http://www.w3.org/1999/02/22-rdf-syntax-ns#">
   <cc:Work>
    <dc:type rdf:resource="http://purl.org/dc/dcmitype/StillImage"/>
    <dc:date>2024-01-31T14:09:05.132066</dc:date>
    <dc:format>image/svg+xml</dc:format>
    <dc:creator>
     <cc:Agent>
      <dc:title>Matplotlib v3.8.0, https://matplotlib.org/</dc:title>
     </cc:Agent>
    </dc:creator>
   </cc:Work>
  </rdf:RDF>
 </metadata>
 <defs>
  <style type="text/css">*{stroke-linejoin: round; stroke-linecap: butt}</style>
 </defs>
 <g id="figure_1">
  <g id="patch_1">
   <path d="M 0 335.567344 
L 1593.609274 335.567344 
L 1593.609274 0 
L 0 0 
z
" style="fill: #ffffff"/>
  </g>
  <g id="axes_1">
   <g id="patch_2">
    <path d="M 81.187266 277.977187 
L 389.74028 277.977187 
L 389.74028 26.877187 
L 81.187266 26.877187 
z
" style="fill: #ffffff"/>
   </g>
   <g id="PolyCollection_1">
    <defs>
     <path id="m10c603d96b" d="M 95.212403 -267.905552 
L 95.212403 -221.659062 
L 99.595258 -214.544217 
L 103.101542 -197.646461 
L 107.484398 -191.420972 
L 111.867253 -175.412572 
L 115.373537 -163.850949 
L 119.756392 -149.62126 
L 123.262677 -147.820315 
L 127.645532 -138.948993 
L 132.028387 -139.838349 
L 132.028387 -176.301927 
L 132.028387 -176.301927 
L 127.645532 -172.744505 
L 123.262677 -186.084839 
L 119.756392 -181.638061 
L 115.373537 -201.203884 
L 111.867253 -211.87615 
L 107.484398 -228.79614 
L 103.101542 -231.441973 
L 99.595258 -258.122641 
L 95.212403 -267.905552 
z
" style="stroke: #000000; stroke-opacity: 0.2; stroke-width: 1.5"/>
    </defs>
    <g clip-path="url(#p29d19e9d8e)">
     <use xlink:href="#m10c603d96b" x="0" y="335.567344" style="fill-opacity: 0.2; stroke: #000000; stroke-opacity: 0.2; stroke-width: 1.5"/>
    </g>
   </g>
   <g id="PolyCollection_2">
    <defs>
     <path id="ma23112a61f" d="M 95.212403 -267.016196 
L 95.212403 -209.208084 
L 99.595258 -249.229085 
L 103.101542 -211.87615 
L 107.484398 -215.433573 
L 111.867253 -169.187083 
L 115.373537 -147.842549 
L 119.756392 -124.719304 
L 123.262677 -115.825748 
L 127.645532 -111.356736 
L 132.028387 -104.264126 
L 132.028387 -142.528649 
L 132.028387 -142.528649 
L 127.645532 -150.510616 
L 123.262677 -154.957393 
L 119.756392 -163.850949 
L 115.373537 -183.439006 
L 111.867253 -207.451606 
L 107.484398 -256.343929 
L 103.101542 -260.790707 
L 99.595258 -297.27652 
L 95.212403 -267.016196 
z
" style="stroke: #000000; stroke-opacity: 0.2; stroke-width: 1.5"/>
    </defs>
    <g clip-path="url(#p29d19e9d8e)">
     <use xlink:href="#ma23112a61f" x="0" y="335.567344" style="fill-opacity: 0.2; stroke: #000000; stroke-opacity: 0.2; stroke-width: 1.5"/>
    </g>
   </g>
   <g id="matplotlib.axis_1">
    <g id="xtick_1">
     <g id="line2d_1">
      <defs>
       <path id="me858685d3d" d="M 0 0 
L 0 9 
" style="stroke: #000000; stroke-width: 1.875"/>
      </defs>
      <g>
       <use xlink:href="#me858685d3d" x="91.706118" y="277.977187" style="stroke: #000000; stroke-width: 1.875"/>
      </g>
     </g>
     <g id="text_1">
      <!-- 0 -->
      <g transform="translate(86.457056 303.014609) scale(0.165 -0.165)">
       <defs>
        <path id="DejaVuSans-30" d="M 2034 4250 
Q 1547 4250 1301 3770 
Q 1056 3291 1056 2328 
Q 1056 1369 1301 889 
Q 1547 409 2034 409 
Q 2525 409 2770 889 
Q 3016 1369 3016 2328 
Q 3016 3291 2770 3770 
Q 2525 4250 2034 4250 
z
M 2034 4750 
Q 2819 4750 3233 4129 
Q 3647 3509 3647 2328 
Q 3647 1150 3233 529 
Q 2819 -91 2034 -91 
Q 1250 -91 836 529 
Q 422 1150 422 2328 
Q 422 3509 836 4129 
Q 1250 4750 2034 4750 
z
" transform="scale(0.015625)"/>
       </defs>
       <use xlink:href="#DejaVuSans-30"/>
      </g>
     </g>
    </g>
    <g id="xtick_2">
     <g id="line2d_2">
      <g>
       <use xlink:href="#me858685d3d" x="179.363225" y="277.977187" style="stroke: #000000; stroke-width: 1.875"/>
      </g>
     </g>
     <g id="text_2">
      <!-- 100 -->
      <g transform="translate(163.616037 303.014609) scale(0.165 -0.165)">
       <defs>
        <path id="DejaVuSans-31" d="M 794 531 
L 1825 531 
L 1825 4091 
L 703 3866 
L 703 4441 
L 1819 4666 
L 2450 4666 
L 2450 531 
L 3481 531 
L 3481 0 
L 794 0 
L 794 531 
z
" transform="scale(0.015625)"/>
       </defs>
       <use xlink:href="#DejaVuSans-31"/>
       <use xlink:href="#DejaVuSans-30" x="63.623047"/>
       <use xlink:href="#DejaVuSans-30" x="127.246094"/>
      </g>
     </g>
    </g>
    <g id="xtick_3">
     <g id="line2d_3">
      <g>
       <use xlink:href="#me858685d3d" x="267.020331" y="277.977187" style="stroke: #000000; stroke-width: 1.875"/>
      </g>
     </g>
     <g id="text_3">
      <!-- 200 -->
      <g transform="translate(251.273144 303.014609) scale(0.165 -0.165)">
       <defs>
        <path id="DejaVuSans-32" d="M 1228 531 
L 3431 531 
L 3431 0 
L 469 0 
L 469 531 
Q 828 903 1448 1529 
Q 2069 2156 2228 2338 
Q 2531 2678 2651 2914 
Q 2772 3150 2772 3378 
Q 2772 3750 2511 3984 
Q 2250 4219 1831 4219 
Q 1534 4219 1204 4116 
Q 875 4013 500 3803 
L 500 4441 
Q 881 4594 1212 4672 
Q 1544 4750 1819 4750 
Q 2544 4750 2975 4387 
Q 3406 4025 3406 3419 
Q 3406 3131 3298 2873 
Q 3191 2616 2906 2266 
Q 2828 2175 2409 1742 
Q 1991 1309 1228 531 
z
" transform="scale(0.015625)"/>
       </defs>
       <use xlink:href="#DejaVuSans-32"/>
       <use xlink:href="#DejaVuSans-30" x="63.623047"/>
       <use xlink:href="#DejaVuSans-30" x="127.246094"/>
      </g>
     </g>
    </g>
    <g id="xtick_4">
     <g id="line2d_4">
      <g>
       <use xlink:href="#me858685d3d" x="354.677438" y="277.977187" style="stroke: #000000; stroke-width: 1.875"/>
      </g>
     </g>
     <g id="text_4">
      <!-- 300 -->
      <g transform="translate(338.93025 303.014609) scale(0.165 -0.165)">
       <defs>
        <path id="DejaVuSans-33" d="M 2597 2516 
Q 3050 2419 3304 2112 
Q 3559 1806 3559 1356 
Q 3559 666 3084 287 
Q 2609 -91 1734 -91 
Q 1441 -91 1130 -33 
Q 819 25 488 141 
L 488 750 
Q 750 597 1062 519 
Q 1375 441 1716 441 
Q 2309 441 2620 675 
Q 2931 909 2931 1356 
Q 2931 1769 2642 2001 
Q 2353 2234 1838 2234 
L 1294 2234 
L 1294 2753 
L 1863 2753 
Q 2328 2753 2575 2939 
Q 2822 3125 2822 3475 
Q 2822 3834 2567 4026 
Q 2313 4219 1838 4219 
Q 1578 4219 1281 4162 
Q 984 4106 628 3988 
L 628 4550 
Q 988 4650 1302 4700 
Q 1616 4750 1894 4750 
Q 2613 4750 3031 4423 
Q 3450 4097 3450 3541 
Q 3450 3153 3228 2886 
Q 3006 2619 2597 2516 
z
" transform="scale(0.015625)"/>
       </defs>
       <use xlink:href="#DejaVuSans-33"/>
       <use xlink:href="#DejaVuSans-30" x="63.623047"/>
       <use xlink:href="#DejaVuSans-30" x="127.246094"/>
      </g>
     </g>
    </g>
    <g id="text_5">
     <!-- n_samples -->
     <g transform="translate(187.849554 324.123281) scale(0.18 -0.18)">
      <defs>
       <path id="DejaVuSans-6e" d="M 3513 2113 
L 3513 0 
L 2938 0 
L 2938 2094 
Q 2938 2591 2744 2837 
Q 2550 3084 2163 3084 
Q 1697 3084 1428 2787 
Q 1159 2491 1159 1978 
L 1159 0 
L 581 0 
L 581 3500 
L 1159 3500 
L 1159 2956 
Q 1366 3272 1645 3428 
Q 1925 3584 2291 3584 
Q 2894 3584 3203 3211 
Q 3513 2838 3513 2113 
z
" transform="scale(0.015625)"/>
       <path id="DejaVuSans-5f" d="M 3263 -1063 
L 3263 -1509 
L -63 -1509 
L -63 -1063 
L 3263 -1063 
z
" transform="scale(0.015625)"/>
       <path id="DejaVuSans-73" d="M 2834 3397 
L 2834 2853 
Q 2591 2978 2328 3040 
Q 2066 3103 1784 3103 
Q 1356 3103 1142 2972 
Q 928 2841 928 2578 
Q 928 2378 1081 2264 
Q 1234 2150 1697 2047 
L 1894 2003 
Q 2506 1872 2764 1633 
Q 3022 1394 3022 966 
Q 3022 478 2636 193 
Q 2250 -91 1575 -91 
Q 1294 -91 989 -36 
Q 684 19 347 128 
L 347 722 
Q 666 556 975 473 
Q 1284 391 1588 391 
Q 1994 391 2212 530 
Q 2431 669 2431 922 
Q 2431 1156 2273 1281 
Q 2116 1406 1581 1522 
L 1381 1569 
Q 847 1681 609 1914 
Q 372 2147 372 2553 
Q 372 3047 722 3315 
Q 1072 3584 1716 3584 
Q 2034 3584 2315 3537 
Q 2597 3491 2834 3397 
z
" transform="scale(0.015625)"/>
       <path id="DejaVuSans-61" d="M 2194 1759 
Q 1497 1759 1228 1600 
Q 959 1441 959 1056 
Q 959 750 1161 570 
Q 1363 391 1709 391 
Q 2188 391 2477 730 
Q 2766 1069 2766 1631 
L 2766 1759 
L 2194 1759 
z
M 3341 1997 
L 3341 0 
L 2766 0 
L 2766 531 
Q 2569 213 2275 61 
Q 1981 -91 1556 -91 
Q 1019 -91 701 211 
Q 384 513 384 1019 
Q 384 1609 779 1909 
Q 1175 2209 1959 2209 
L 2766 2209 
L 2766 2266 
Q 2766 2663 2505 2880 
Q 2244 3097 1772 3097 
Q 1472 3097 1187 3025 
Q 903 2953 641 2809 
L 641 3341 
Q 956 3463 1253 3523 
Q 1550 3584 1831 3584 
Q 2591 3584 2966 3190 
Q 3341 2797 3341 1997 
z
" transform="scale(0.015625)"/>
       <path id="DejaVuSans-6d" d="M 3328 2828 
Q 3544 3216 3844 3400 
Q 4144 3584 4550 3584 
Q 5097 3584 5394 3201 
Q 5691 2819 5691 2113 
L 5691 0 
L 5113 0 
L 5113 2094 
Q 5113 2597 4934 2840 
Q 4756 3084 4391 3084 
Q 3944 3084 3684 2787 
Q 3425 2491 3425 1978 
L 3425 0 
L 2847 0 
L 2847 2094 
Q 2847 2600 2669 2842 
Q 2491 3084 2119 3084 
Q 1678 3084 1418 2786 
Q 1159 2488 1159 1978 
L 1159 0 
L 581 0 
L 581 3500 
L 1159 3500 
L 1159 2956 
Q 1356 3278 1631 3431 
Q 1906 3584 2284 3584 
Q 2666 3584 2933 3390 
Q 3200 3197 3328 2828 
z
" transform="scale(0.015625)"/>
       <path id="DejaVuSans-70" d="M 1159 525 
L 1159 -1331 
L 581 -1331 
L 581 3500 
L 1159 3500 
L 1159 2969 
Q 1341 3281 1617 3432 
Q 1894 3584 2278 3584 
Q 2916 3584 3314 3078 
Q 3713 2572 3713 1747 
Q 3713 922 3314 415 
Q 2916 -91 2278 -91 
Q 1894 -91 1617 61 
Q 1341 213 1159 525 
z
M 3116 1747 
Q 3116 2381 2855 2742 
Q 2594 3103 2138 3103 
Q 1681 3103 1420 2742 
Q 1159 2381 1159 1747 
Q 1159 1113 1420 752 
Q 1681 391 2138 391 
Q 2594 391 2855 752 
Q 3116 1113 3116 1747 
z
" transform="scale(0.015625)"/>
       <path id="DejaVuSans-6c" d="M 603 4863 
L 1178 4863 
L 1178 0 
L 603 0 
L 603 4863 
z
" transform="scale(0.015625)"/>
       <path id="DejaVuSans-65" d="M 3597 1894 
L 3597 1613 
L 953 1613 
Q 991 1019 1311 708 
Q 1631 397 2203 397 
Q 2534 397 2845 478 
Q 3156 559 3463 722 
L 3463 178 
Q 3153 47 2828 -22 
Q 2503 -91 2169 -91 
Q 1331 -91 842 396 
Q 353 884 353 1716 
Q 353 2575 817 3079 
Q 1281 3584 2069 3584 
Q 2775 3584 3186 3129 
Q 3597 2675 3597 1894 
z
M 3022 2063 
Q 3016 2534 2758 2815 
Q 2500 3097 2075 3097 
Q 1594 3097 1305 2825 
Q 1016 2553 972 2059 
L 3022 2063 
z
" transform="scale(0.015625)"/>
      </defs>
      <use xlink:href="#DejaVuSans-6e"/>
      <use xlink:href="#DejaVuSans-5f" x="63.378906"/>
      <use xlink:href="#DejaVuSans-73" x="113.378906"/>
      <use xlink:href="#DejaVuSans-61" x="165.478516"/>
      <use xlink:href="#DejaVuSans-6d" x="226.757812"/>
      <use xlink:href="#DejaVuSans-70" x="324.169922"/>
      <use xlink:href="#DejaVuSans-6c" x="387.646484"/>
      <use xlink:href="#DejaVuSans-65" x="415.429688"/>
      <use xlink:href="#DejaVuSans-73" x="476.953125"/>
     </g>
    </g>
   </g>
   <g id="matplotlib.axis_2">
    <g id="ytick_1">
     <g id="line2d_5">
      <defs>
       <path id="mf5770c6e8d" d="M 0 0 
L -9 0 
" style="stroke: #000000; stroke-width: 1.875"/>
      </defs>
      <g>
       <use xlink:href="#mf5770c6e8d" x="81.187266" y="275.770997" style="stroke: #000000; stroke-width: 1.875"/>
      </g>
     </g>
     <g id="text_6">
      <!-- −0.1 -->
      <g transform="translate(28.620625 282.039708) scale(0.165 -0.165)">
       <defs>
        <path id="DejaVuSans-2212" d="M 678 2272 
L 4684 2272 
L 4684 1741 
L 678 1741 
L 678 2272 
z
" transform="scale(0.015625)"/>
        <path id="DejaVuSans-2e" d="M 684 794 
L 1344 794 
L 1344 0 
L 684 0 
L 684 794 
z
" transform="scale(0.015625)"/>
       </defs>
       <use xlink:href="#DejaVuSans-2212"/>
       <use xlink:href="#DejaVuSans-30" x="83.789062"/>
       <use xlink:href="#DejaVuSans-2e" x="147.412109"/>
       <use xlink:href="#DejaVuSans-31" x="179.199219"/>
      </g>
     </g>
    </g>
    <g id="ytick_2">
     <g id="line2d_6">
      <g>
       <use xlink:href="#mf5770c6e8d" x="81.187266" y="233.081929" style="stroke: #000000; stroke-width: 1.875"/>
      </g>
     </g>
     <g id="text_7">
      <!-- 0.0 -->
      <g transform="translate(42.447109 239.35064) scale(0.165 -0.165)">
       <use xlink:href="#DejaVuSans-30"/>
       <use xlink:href="#DejaVuSans-2e" x="63.623047"/>
       <use xlink:href="#DejaVuSans-30" x="95.410156"/>
      </g>
     </g>
    </g>
    <g id="ytick_3">
     <g id="line2d_7">
      <g>
       <use xlink:href="#mf5770c6e8d" x="81.187266" y="190.392862" style="stroke: #000000; stroke-width: 1.875"/>
      </g>
     </g>
     <g id="text_8">
      <!-- 0.1 -->
      <g transform="translate(42.447109 196.661573) scale(0.165 -0.165)">
       <use xlink:href="#DejaVuSans-30"/>
       <use xlink:href="#DejaVuSans-2e" x="63.623047"/>
       <use xlink:href="#DejaVuSans-31" x="95.410156"/>
      </g>
     </g>
    </g>
    <g id="ytick_4">
     <g id="line2d_8">
      <g>
       <use xlink:href="#mf5770c6e8d" x="81.187266" y="147.703794" style="stroke: #000000; stroke-width: 1.875"/>
      </g>
     </g>
     <g id="text_9">
      <!-- 0.2 -->
      <g transform="translate(42.447109 153.972505) scale(0.165 -0.165)">
       <use xlink:href="#DejaVuSans-30"/>
       <use xlink:href="#DejaVuSans-2e" x="63.623047"/>
       <use xlink:href="#DejaVuSans-32" x="95.410156"/>
      </g>
     </g>
    </g>
    <g id="ytick_5">
     <g id="line2d_9">
      <g>
       <use xlink:href="#mf5770c6e8d" x="81.187266" y="105.014726" style="stroke: #000000; stroke-width: 1.875"/>
      </g>
     </g>
     <g id="text_10">
      <!-- 0.3 -->
      <g transform="translate(42.447109 111.283437) scale(0.165 -0.165)">
       <use xlink:href="#DejaVuSans-30"/>
       <use xlink:href="#DejaVuSans-2e" x="63.623047"/>
       <use xlink:href="#DejaVuSans-33" x="95.410156"/>
      </g>
     </g>
    </g>
    <g id="ytick_6">
     <g id="line2d_10">
      <g>
       <use xlink:href="#mf5770c6e8d" x="81.187266" y="62.325658" style="stroke: #000000; stroke-width: 1.875"/>
      </g>
     </g>
     <g id="text_11">
      <!-- 0.4 -->
      <g transform="translate(42.447109 68.594369) scale(0.165 -0.165)">
       <defs>
        <path id="DejaVuSans-34" d="M 2419 4116 
L 825 1625 
L 2419 1625 
L 2419 4116 
z
M 2253 4666 
L 3047 4666 
L 3047 1625 
L 3713 1625 
L 3713 1100 
L 3047 1100 
L 3047 0 
L 2419 0 
L 2419 1100 
L 313 1100 
L 313 1709 
L 2253 4666 
z
" transform="scale(0.015625)"/>
       </defs>
       <use xlink:href="#DejaVuSans-30"/>
       <use xlink:href="#DejaVuSans-2e" x="63.623047"/>
       <use xlink:href="#DejaVuSans-34" x="95.410156"/>
      </g>
     </g>
    </g>
    <g id="text_12">
     <!-- gain -->
     <g transform="translate(20.877188 171.860156) rotate(-90) scale(0.18 -0.18)">
      <defs>
       <path id="DejaVuSans-67" d="M 2906 1791 
Q 2906 2416 2648 2759 
Q 2391 3103 1925 3103 
Q 1463 3103 1205 2759 
Q 947 2416 947 1791 
Q 947 1169 1205 825 
Q 1463 481 1925 481 
Q 2391 481 2648 825 
Q 2906 1169 2906 1791 
z
M 3481 434 
Q 3481 -459 3084 -895 
Q 2688 -1331 1869 -1331 
Q 1566 -1331 1297 -1286 
Q 1028 -1241 775 -1147 
L 775 -588 
Q 1028 -725 1275 -790 
Q 1522 -856 1778 -856 
Q 2344 -856 2625 -561 
Q 2906 -266 2906 331 
L 2906 616 
Q 2728 306 2450 153 
Q 2172 0 1784 0 
Q 1141 0 747 490 
Q 353 981 353 1791 
Q 353 2603 747 3093 
Q 1141 3584 1784 3584 
Q 2172 3584 2450 3431 
Q 2728 3278 2906 2969 
L 2906 3500 
L 3481 3500 
L 3481 434 
z
" transform="scale(0.015625)"/>
       <path id="DejaVuSans-69" d="M 603 3500 
L 1178 3500 
L 1178 0 
L 603 0 
L 603 3500 
z
M 603 4863 
L 1178 4863 
L 1178 4134 
L 603 4134 
L 603 4863 
z
" transform="scale(0.015625)"/>
      </defs>
      <use xlink:href="#DejaVuSans-67"/>
      <use xlink:href="#DejaVuSans-61" x="63.476562"/>
      <use xlink:href="#DejaVuSans-69" x="124.755859"/>
      <use xlink:href="#DejaVuSans-6e" x="152.539062"/>
     </g>
    </g>
   </g>
   <g id="line2d_11">
    <path d="M 95.212403 91.674392 
L 99.595258 98.789237 
L 103.101542 121.912482 
L 107.484398 124.580549 
L 111.867253 140.588949 
L 115.373537 153.039927 
L 119.756392 170.827039 
L 123.262677 169.048328 
L 127.645532 179.720595 
L 132.028387 177.941884 
" clip-path="url(#p29d19e9d8e)" style="fill: none; stroke: #000000; stroke-width: 2.25; stroke-linecap: square"/>
   </g>
   <g id="line2d_12">
    <path d="M 95.212403 96.12117 
L 99.595258 62.325658 
L 103.101542 98.789237 
L 107.484398 99.678593 
L 111.867253 146.814438 
L 115.373537 169.937683 
L 119.756392 191.282217 
L 123.262677 200.175773 
L 127.645532 205.511906 
L 132.028387 212.626751 
" clip-path="url(#p29d19e9d8e)" style="fill: none; stroke-dasharray: 9,3.375; stroke-dashoffset: 0; stroke: #000000; stroke-width: 2.25"/>
   </g>
   <g id="line2d_13"/>
   <g id="line2d_14"/>
   <g id="patch_3">
    <path d="M 81.187266 277.977187 
L 81.187266 26.877187 
" style="fill: none; stroke: #000000; stroke-width: 1.875; stroke-linejoin: miter; stroke-linecap: square"/>
   </g>
   <g id="patch_4">
    <path d="M 81.187266 277.977187 
L 389.74028 277.977187 
" style="fill: none; stroke: #000000; stroke-width: 1.875; stroke-linejoin: miter; stroke-linecap: square"/>
   </g>
   <g id="text_13">
    <!-- dataset = neuromod -->
    <g transform="translate(142.237835 20.877187) scale(0.18 -0.18)">
     <defs>
      <path id="DejaVuSans-64" d="M 2906 2969 
L 2906 4863 
L 3481 4863 
L 3481 0 
L 2906 0 
L 2906 525 
Q 2725 213 2448 61 
Q 2172 -91 1784 -91 
Q 1150 -91 751 415 
Q 353 922 353 1747 
Q 353 2572 751 3078 
Q 1150 3584 1784 3584 
Q 2172 3584 2448 3432 
Q 2725 3281 2906 2969 
z
M 947 1747 
Q 947 1113 1208 752 
Q 1469 391 1925 391 
Q 2381 391 2643 752 
Q 2906 1113 2906 1747 
Q 2906 2381 2643 2742 
Q 2381 3103 1925 3103 
Q 1469 3103 1208 2742 
Q 947 2381 947 1747 
z
" transform="scale(0.015625)"/>
      <path id="DejaVuSans-74" d="M 1172 4494 
L 1172 3500 
L 2356 3500 
L 2356 3053 
L 1172 3053 
L 1172 1153 
Q 1172 725 1289 603 
Q 1406 481 1766 481 
L 2356 481 
L 2356 0 
L 1766 0 
Q 1100 0 847 248 
Q 594 497 594 1153 
L 594 3053 
L 172 3053 
L 172 3500 
L 594 3500 
L 594 4494 
L 1172 4494 
z
" transform="scale(0.015625)"/>
      <path id="DejaVuSans-20" transform="scale(0.015625)"/>
      <path id="DejaVuSans-3d" d="M 678 2906 
L 4684 2906 
L 4684 2381 
L 678 2381 
L 678 2906 
z
M 678 1631 
L 4684 1631 
L 4684 1100 
L 678 1100 
L 678 1631 
z
" transform="scale(0.015625)"/>
      <path id="DejaVuSans-75" d="M 544 1381 
L 544 3500 
L 1119 3500 
L 1119 1403 
Q 1119 906 1312 657 
Q 1506 409 1894 409 
Q 2359 409 2629 706 
Q 2900 1003 2900 1516 
L 2900 3500 
L 3475 3500 
L 3475 0 
L 2900 0 
L 2900 538 
Q 2691 219 2414 64 
Q 2138 -91 1772 -91 
Q 1169 -91 856 284 
Q 544 659 544 1381 
z
M 1991 3584 
L 1991 3584 
z
" transform="scale(0.015625)"/>
      <path id="DejaVuSans-72" d="M 2631 2963 
Q 2534 3019 2420 3045 
Q 2306 3072 2169 3072 
Q 1681 3072 1420 2755 
Q 1159 2438 1159 1844 
L 1159 0 
L 581 0 
L 581 3500 
L 1159 3500 
L 1159 2956 
Q 1341 3275 1631 3429 
Q 1922 3584 2338 3584 
Q 2397 3584 2469 3576 
Q 2541 3569 2628 3553 
L 2631 2963 
z
" transform="scale(0.015625)"/>
      <path id="DejaVuSans-6f" d="M 1959 3097 
Q 1497 3097 1228 2736 
Q 959 2375 959 1747 
Q 959 1119 1226 758 
Q 1494 397 1959 397 
Q 2419 397 2687 759 
Q 2956 1122 2956 1747 
Q 2956 2369 2687 2733 
Q 2419 3097 1959 3097 
z
M 1959 3584 
Q 2709 3584 3137 3096 
Q 3566 2609 3566 1747 
Q 3566 888 3137 398 
Q 2709 -91 1959 -91 
Q 1206 -91 779 398 
Q 353 888 353 1747 
Q 353 2609 779 3096 
Q 1206 3584 1959 3584 
z
" transform="scale(0.015625)"/>
     </defs>
     <use xlink:href="#DejaVuSans-64"/>
     <use xlink:href="#DejaVuSans-61" x="63.476562"/>
     <use xlink:href="#DejaVuSans-74" x="124.755859"/>
     <use xlink:href="#DejaVuSans-61" x="163.964844"/>
     <use xlink:href="#DejaVuSans-73" x="225.244141"/>
     <use xlink:href="#DejaVuSans-65" x="277.34375"/>
     <use xlink:href="#DejaVuSans-74" x="338.867188"/>
     <use xlink:href="#DejaVuSans-20" x="378.076172"/>
     <use xlink:href="#DejaVuSans-3d" x="409.863281"/>
     <use xlink:href="#DejaVuSans-20" x="493.652344"/>
     <use xlink:href="#DejaVuSans-6e" x="525.439453"/>
     <use xlink:href="#DejaVuSans-65" x="588.818359"/>
     <use xlink:href="#DejaVuSans-75" x="650.341797"/>
     <use xlink:href="#DejaVuSans-72" x="713.720703"/>
     <use xlink:href="#DejaVuSans-6f" x="752.583984"/>
     <use xlink:href="#DejaVuSans-6d" x="813.765625"/>
     <use xlink:href="#DejaVuSans-6f" x="911.177734"/>
     <use xlink:href="#DejaVuSans-64" x="972.359375"/>
    </g>
   </g>
  </g>
  <g id="axes_2">
   <g id="patch_5">
    <path d="M 418.00263 277.977187 
L 726.555645 277.977187 
L 726.555645 26.877187 
L 418.00263 26.877187 
z
" style="fill: #ffffff"/>
   </g>
   <g id="PolyCollection_3">
    <defs>
     <path id="me3fee49508" d="M 441.670049 -129.166082 
L 441.670049 -117.776401 
L 455.695186 -123.948529 
L 469.720323 -124.06711 
L 482.868889 -125.252917 
L 496.894026 -124.304271 
L 510.919163 -125.015756 
L 524.067729 -121.57395 
L 538.092866 -116.593558 
L 552.118003 -112.677429 
L 566.14314 -108.651613 
L 566.14314 -127.150209 
L 566.14314 -127.150209 
L 552.118003 -130.829177 
L 538.092866 -132.726469 
L 524.067729 -136.280926 
L 510.919163 -140.786995 
L 496.894026 -139.482606 
L 482.868889 -139.956929 
L 469.720323 -138.889703 
L 455.695186 -138.889703 
L 441.670049 -129.166082 
z
" style="stroke: #000000; stroke-opacity: 0.2; stroke-width: 1.5"/>
    </defs>
    <g clip-path="url(#p27bb7617ef)">
     <use xlink:href="#me3fee49508" x="0" y="335.567344" style="fill-opacity: 0.2; stroke: #000000; stroke-opacity: 0.2; stroke-width: 1.5"/>
    </g>
   </g>
   <g id="PolyCollection_4">
    <defs>
     <path id="m4bf3320804" d="M 441.670049 -145.767386 
L 441.670049 -130.701702 
L 455.695186 -125.490079 
L 469.720323 -117.308007 
L 482.868889 -112.324652 
L 496.894026 -104.97561 
L 510.919163 -100.1138 
L 524.067729 -101.296642 
L 538.092866 -95.133408 
L 552.118003 -99.755093 
L 566.14314 -92.047344 
L 566.14314 -106.282963 
L 566.14314 -106.282963 
L 552.118003 -113.042065 
L 538.092866 -110.196127 
L 524.067729 -115.41368 
L 510.919163 -115.410715 
L 496.894026 -120.035364 
L 482.868889 -127.980274 
L 469.720323 -131.063374 
L 455.695186 -140.07551 
L 441.670049 -145.767386 
z
" style="stroke: #000000; stroke-opacity: 0.2; stroke-width: 1.5"/>
    </defs>
    <g clip-path="url(#p27bb7617ef)">
     <use xlink:href="#m4bf3320804" x="0" y="335.567344" style="fill-opacity: 0.2; stroke: #000000; stroke-opacity: 0.2; stroke-width: 1.5"/>
    </g>
   </g>
   <g id="matplotlib.axis_3">
    <g id="xtick_5">
     <g id="line2d_15">
      <g>
       <use xlink:href="#me858685d3d" x="428.521483" y="277.977187" style="stroke: #000000; stroke-width: 1.875"/>
      </g>
     </g>
     <g id="text_14">
      <!-- 0 -->
      <g transform="translate(423.27242 303.014609) scale(0.165 -0.165)">
       <use xlink:href="#DejaVuSans-30"/>
      </g>
     </g>
    </g>
    <g id="xtick_6">
     <g id="line2d_16">
      <g>
       <use xlink:href="#me858685d3d" x="516.178589" y="277.977187" style="stroke: #000000; stroke-width: 1.875"/>
      </g>
     </g>
     <g id="text_15">
      <!-- 100 -->
      <g transform="translate(500.431402 303.014609) scale(0.165 -0.165)">
       <use xlink:href="#DejaVuSans-31"/>
       <use xlink:href="#DejaVuSans-30" x="63.623047"/>
       <use xlink:href="#DejaVuSans-30" x="127.246094"/>
      </g>
     </g>
    </g>
    <g id="xtick_7">
     <g id="line2d_17">
      <g>
       <use xlink:href="#me858685d3d" x="603.835696" y="277.977187" style="stroke: #000000; stroke-width: 1.875"/>
      </g>
     </g>
     <g id="text_16">
      <!-- 200 -->
      <g transform="translate(588.088508 303.014609) scale(0.165 -0.165)">
       <use xlink:href="#DejaVuSans-32"/>
       <use xlink:href="#DejaVuSans-30" x="63.623047"/>
       <use xlink:href="#DejaVuSans-30" x="127.246094"/>
      </g>
     </g>
    </g>
    <g id="xtick_8">
     <g id="line2d_18">
      <g>
       <use xlink:href="#me858685d3d" x="691.492802" y="277.977187" style="stroke: #000000; stroke-width: 1.875"/>
      </g>
     </g>
     <g id="text_17">
      <!-- 300 -->
      <g transform="translate(675.745615 303.014609) scale(0.165 -0.165)">
       <use xlink:href="#DejaVuSans-33"/>
       <use xlink:href="#DejaVuSans-30" x="63.623047"/>
       <use xlink:href="#DejaVuSans-30" x="127.246094"/>
      </g>
     </g>
    </g>
    <g id="text_18">
     <!-- n_samples -->
     <g transform="translate(524.664919 324.123281) scale(0.18 -0.18)">
      <use xlink:href="#DejaVuSans-6e"/>
      <use xlink:href="#DejaVuSans-5f" x="63.378906"/>
      <use xlink:href="#DejaVuSans-73" x="113.378906"/>
      <use xlink:href="#DejaVuSans-61" x="165.478516"/>
      <use xlink:href="#DejaVuSans-6d" x="226.757812"/>
      <use xlink:href="#DejaVuSans-70" x="324.169922"/>
      <use xlink:href="#DejaVuSans-6c" x="387.646484"/>
      <use xlink:href="#DejaVuSans-65" x="415.429688"/>
      <use xlink:href="#DejaVuSans-73" x="476.953125"/>
     </g>
    </g>
   </g>
   <g id="matplotlib.axis_4">
    <g id="ytick_7">
     <g id="line2d_19">
      <g>
       <use xlink:href="#mf5770c6e8d" x="418.00263" y="275.770997" style="stroke: #000000; stroke-width: 1.875"/>
      </g>
     </g>
    </g>
    <g id="ytick_8">
     <g id="line2d_20">
      <g>
       <use xlink:href="#mf5770c6e8d" x="418.00263" y="233.081929" style="stroke: #000000; stroke-width: 1.875"/>
      </g>
     </g>
    </g>
    <g id="ytick_9">
     <g id="line2d_21">
      <g>
       <use xlink:href="#mf5770c6e8d" x="418.00263" y="190.392862" style="stroke: #000000; stroke-width: 1.875"/>
      </g>
     </g>
    </g>
    <g id="ytick_10">
     <g id="line2d_22">
      <g>
       <use xlink:href="#mf5770c6e8d" x="418.00263" y="147.703794" style="stroke: #000000; stroke-width: 1.875"/>
      </g>
     </g>
    </g>
    <g id="ytick_11">
     <g id="line2d_23">
      <g>
       <use xlink:href="#mf5770c6e8d" x="418.00263" y="105.014726" style="stroke: #000000; stroke-width: 1.875"/>
      </g>
     </g>
    </g>
    <g id="ytick_12">
     <g id="line2d_24">
      <g>
       <use xlink:href="#mf5770c6e8d" x="418.00263" y="62.325658" style="stroke: #000000; stroke-width: 1.875"/>
      </g>
     </g>
    </g>
   </g>
   <g id="line2d_25">
    <path d="M 441.670049 212.093138 
L 455.695186 204.148228 
L 469.720323 204.385389 
L 482.868889 202.606678 
L 496.894026 203.792486 
L 510.919163 202.369517 
L 524.067729 206.757004 
L 538.092866 210.90733 
L 552.118003 213.871849 
L 566.14314 217.547852 
" clip-path="url(#p27bb7617ef)" style="fill: none; stroke: #000000; stroke-width: 2.25; stroke-linecap: square"/>
   </g>
   <g id="line2d_26">
    <path d="M 441.670049 197.744868 
L 455.695186 202.96242 
L 469.720323 211.500234 
L 482.868889 215.65056 
L 496.894026 223.121147 
L 510.919163 227.864377 
L 524.067729 227.390054 
L 538.092866 232.963349 
L 552.118003 229.050184 
L 566.14314 236.283609 
" clip-path="url(#p27bb7617ef)" style="fill: none; stroke-dasharray: 9,3.375; stroke-dashoffset: 0; stroke: #000000; stroke-width: 2.25"/>
   </g>
   <g id="patch_6">
    <path d="M 418.00263 277.977187 
L 418.00263 26.877187 
" style="fill: none; stroke: #000000; stroke-width: 1.875; stroke-linejoin: miter; stroke-linecap: square"/>
   </g>
   <g id="patch_7">
    <path d="M 418.00263 277.977187 
L 726.555645 277.977187 
" style="fill: none; stroke: #000000; stroke-width: 1.875; stroke-linejoin: miter; stroke-linecap: square"/>
   </g>
   <g id="text_19">
    <!-- dataset = forrest -->
    <g transform="translate(495.520387 20.877187) scale(0.18 -0.18)">
     <defs>
      <path id="DejaVuSans-66" d="M 2375 4863 
L 2375 4384 
L 1825 4384 
Q 1516 4384 1395 4259 
Q 1275 4134 1275 3809 
L 1275 3500 
L 2222 3500 
L 2222 3053 
L 1275 3053 
L 1275 0 
L 697 0 
L 697 3053 
L 147 3053 
L 147 3500 
L 697 3500 
L 697 3744 
Q 697 4328 969 4595 
Q 1241 4863 1831 4863 
L 2375 4863 
z
" transform="scale(0.015625)"/>
     </defs>
     <use xlink:href="#DejaVuSans-64"/>
     <use xlink:href="#DejaVuSans-61" x="63.476562"/>
     <use xlink:href="#DejaVuSans-74" x="124.755859"/>
     <use xlink:href="#DejaVuSans-61" x="163.964844"/>
     <use xlink:href="#DejaVuSans-73" x="225.244141"/>
     <use xlink:href="#DejaVuSans-65" x="277.34375"/>
     <use xlink:href="#DejaVuSans-74" x="338.867188"/>
     <use xlink:href="#DejaVuSans-20" x="378.076172"/>
     <use xlink:href="#DejaVuSans-3d" x="409.863281"/>
     <use xlink:href="#DejaVuSans-20" x="493.652344"/>
     <use xlink:href="#DejaVuSans-66" x="525.439453"/>
     <use xlink:href="#DejaVuSans-6f" x="560.644531"/>
     <use xlink:href="#DejaVuSans-72" x="621.826172"/>
     <use xlink:href="#DejaVuSans-72" x="661.189453"/>
     <use xlink:href="#DejaVuSans-65" x="700.052734"/>
     <use xlink:href="#DejaVuSans-73" x="761.576172"/>
     <use xlink:href="#DejaVuSans-74" x="813.675781"/>
    </g>
   </g>
  </g>
  <g id="axes_3">
   <g id="patch_8">
    <path d="M 754.817995 277.977187 
L 1063.371009 277.977187 
L 1063.371009 26.877187 
L 754.817995 26.877187 
z
" style="fill: #ffffff"/>
   </g>
   <g id="PolyCollection_5">
    <defs>
     <path id="mdd5fb3d850" d="M 790.757408 -123.620688 
L 790.757408 -100.183553 
L 817.05454 -100.183553 
L 843.351672 -98.509472 
L 869.648804 -96.202379 
L 895.945936 -93.905749 
L 921.366497 -95.16131 
L 947.663629 -94.737558 
L 973.960761 -92.650188 
L 1000.257893 -97.248679 
L 1026.555025 -92.854217 
L 1026.555025 -113.994722 
L 1026.555025 -113.994722 
L 1000.257893 -118.807705 
L 973.960761 -115.255514 
L 947.663629 -118.394416 
L 921.366497 -116.301815 
L 895.945936 -114.831762 
L 869.648804 -115.459543 
L 843.351672 -120.282989 
L 817.05454 -123.62592 
L 790.757408 -123.620688 
z
" style="stroke: #000000; stroke-opacity: 0.2; stroke-width: 1.5"/>
    </defs>
    <g clip-path="url(#p20eefbe3a2)">
     <use xlink:href="#mdd5fb3d850" x="0" y="335.567344" style="fill-opacity: 0.2; stroke: #000000; stroke-opacity: 0.2; stroke-width: 1.5"/>
    </g>
   </g>
   <g id="PolyCollection_6">
    <defs>
     <path id="m3bd47ec4e1" d="M 790.757408 -117.348116 
L 790.757408 -97.044651 
L 817.05454 -86.157892 
L 843.351672 -84.698303 
L 869.648804 -86.367152 
L 895.945936 -89.929806 
L 921.366497 -86.157892 
L 947.663629 -81.350141 
L 973.960761 -75.700117 
L 1000.257893 -69.003793 
L 1026.555025 -78.629759 
L 1026.555025 -99.561004 
L 1026.555025 -99.561004 
L 1000.257893 -91.818379 
L 973.960761 -94.952049 
L 947.663629 -103.113195 
L 921.366497 -110.228039 
L 895.945936 -113.785462 
L 869.648804 -109.390999 
L 843.351672 -108.14067 
L 817.05454 -110.228039 
L 790.757408 -117.348116 
z
" style="stroke: #000000; stroke-opacity: 0.2; stroke-width: 1.5"/>
    </defs>
    <g clip-path="url(#p20eefbe3a2)">
     <use xlink:href="#m3bd47ec4e1" x="0" y="335.567344" style="fill-opacity: 0.2; stroke: #000000; stroke-opacity: 0.2; stroke-width: 1.5"/>
    </g>
   </g>
   <g id="matplotlib.axis_5">
    <g id="xtick_9">
     <g id="line2d_27">
      <g>
       <use xlink:href="#me858685d3d" x="765.336847" y="277.977187" style="stroke: #000000; stroke-width: 1.875"/>
      </g>
     </g>
     <g id="text_20">
      <!-- 0 -->
      <g transform="translate(760.087785 303.014609) scale(0.165 -0.165)">
       <use xlink:href="#DejaVuSans-30"/>
      </g>
     </g>
    </g>
    <g id="xtick_10">
     <g id="line2d_28">
      <g>
       <use xlink:href="#me858685d3d" x="852.993954" y="277.977187" style="stroke: #000000; stroke-width: 1.875"/>
      </g>
     </g>
     <g id="text_21">
      <!-- 100 -->
      <g transform="translate(837.246766 303.014609) scale(0.165 -0.165)">
       <use xlink:href="#DejaVuSans-31"/>
       <use xlink:href="#DejaVuSans-30" x="63.623047"/>
       <use xlink:href="#DejaVuSans-30" x="127.246094"/>
      </g>
     </g>
    </g>
    <g id="xtick_11">
     <g id="line2d_29">
      <g>
       <use xlink:href="#me858685d3d" x="940.65106" y="277.977187" style="stroke: #000000; stroke-width: 1.875"/>
      </g>
     </g>
     <g id="text_22">
      <!-- 200 -->
      <g transform="translate(924.903873 303.014609) scale(0.165 -0.165)">
       <use xlink:href="#DejaVuSans-32"/>
       <use xlink:href="#DejaVuSans-30" x="63.623047"/>
       <use xlink:href="#DejaVuSans-30" x="127.246094"/>
      </g>
     </g>
    </g>
    <g id="xtick_12">
     <g id="line2d_30">
      <g>
       <use xlink:href="#me858685d3d" x="1028.308167" y="277.977187" style="stroke: #000000; stroke-width: 1.875"/>
      </g>
     </g>
     <g id="text_23">
      <!-- 300 -->
      <g transform="translate(1012.560979 303.014609) scale(0.165 -0.165)">
       <use xlink:href="#DejaVuSans-33"/>
       <use xlink:href="#DejaVuSans-30" x="63.623047"/>
       <use xlink:href="#DejaVuSans-30" x="127.246094"/>
      </g>
     </g>
    </g>
    <g id="text_24">
     <!-- n_samples -->
     <g transform="translate(861.480283 324.123281) scale(0.18 -0.18)">
      <use xlink:href="#DejaVuSans-6e"/>
      <use xlink:href="#DejaVuSans-5f" x="63.378906"/>
      <use xlink:href="#DejaVuSans-73" x="113.378906"/>
      <use xlink:href="#DejaVuSans-61" x="165.478516"/>
      <use xlink:href="#DejaVuSans-6d" x="226.757812"/>
      <use xlink:href="#DejaVuSans-70" x="324.169922"/>
      <use xlink:href="#DejaVuSans-6c" x="387.646484"/>
      <use xlink:href="#DejaVuSans-65" x="415.429688"/>
      <use xlink:href="#DejaVuSans-73" x="476.953125"/>
     </g>
    </g>
   </g>
   <g id="matplotlib.axis_6">
    <g id="ytick_13">
     <g id="line2d_31">
      <g>
       <use xlink:href="#mf5770c6e8d" x="754.817995" y="275.770997" style="stroke: #000000; stroke-width: 1.875"/>
      </g>
     </g>
    </g>
    <g id="ytick_14">
     <g id="line2d_32">
      <g>
       <use xlink:href="#mf5770c6e8d" x="754.817995" y="233.081929" style="stroke: #000000; stroke-width: 1.875"/>
      </g>
     </g>
    </g>
    <g id="ytick_15">
     <g id="line2d_33">
      <g>
       <use xlink:href="#mf5770c6e8d" x="754.817995" y="190.392862" style="stroke: #000000; stroke-width: 1.875"/>
      </g>
     </g>
    </g>
    <g id="ytick_16">
     <g id="line2d_34">
      <g>
       <use xlink:href="#mf5770c6e8d" x="754.817995" y="147.703794" style="stroke: #000000; stroke-width: 1.875"/>
      </g>
     </g>
    </g>
    <g id="ytick_17">
     <g id="line2d_35">
      <g>
       <use xlink:href="#mf5770c6e8d" x="754.817995" y="105.014726" style="stroke: #000000; stroke-width: 1.875"/>
      </g>
     </g>
    </g>
    <g id="ytick_18">
     <g id="line2d_36">
      <g>
       <use xlink:href="#mf5770c6e8d" x="754.817995" y="62.325658" style="stroke: #000000; stroke-width: 1.875"/>
      </g>
     </g>
    </g>
   </g>
   <g id="line2d_37">
    <path d="M 790.757408 223.665223 
L 817.05454 223.665223 
L 843.351672 225.967085 
L 869.648804 230.152287 
L 895.945936 231.198588 
L 921.366497 229.943027 
L 947.663629 229.733767 
L 973.960761 231.826369 
L 1000.257893 227.641166 
L 1026.555025 232.244889 
" clip-path="url(#p20eefbe3a2)" style="fill: none; stroke: #000000; stroke-width: 2.25; stroke-linecap: square"/>
   </g>
   <g id="line2d_38">
    <path d="M 790.757408 228.059686 
L 817.05454 237.476392 
L 843.351672 239.150473 
L 869.648804 237.894912 
L 895.945936 233.29119 
L 921.366497 238.104173 
L 947.663629 243.335676 
L 973.960761 250.869041 
L 1000.257893 255.682024 
L 1026.555025 246.474578 
" clip-path="url(#p20eefbe3a2)" style="fill: none; stroke-dasharray: 9,3.375; stroke-dashoffset: 0; stroke: #000000; stroke-width: 2.25"/>
   </g>
   <g id="patch_9">
    <path d="M 754.817995 277.977187 
L 754.817995 26.877187 
" style="fill: none; stroke: #000000; stroke-width: 1.875; stroke-linejoin: miter; stroke-linecap: square"/>
   </g>
   <g id="patch_10">
    <path d="M 754.817995 277.977187 
L 1063.371009 277.977187 
" style="fill: none; stroke: #000000; stroke-width: 1.875; stroke-linejoin: miter; stroke-linecap: square"/>
   </g>
   <g id="text_25">
    <!-- dataset = bold5000 -->
    <g transform="translate(819.465752 20.877187) scale(0.18 -0.18)">
     <defs>
      <path id="DejaVuSans-62" d="M 3116 1747 
Q 3116 2381 2855 2742 
Q 2594 3103 2138 3103 
Q 1681 3103 1420 2742 
Q 1159 2381 1159 1747 
Q 1159 1113 1420 752 
Q 1681 391 2138 391 
Q 2594 391 2855 752 
Q 3116 1113 3116 1747 
z
M 1159 2969 
Q 1341 3281 1617 3432 
Q 1894 3584 2278 3584 
Q 2916 3584 3314 3078 
Q 3713 2572 3713 1747 
Q 3713 922 3314 415 
Q 2916 -91 2278 -91 
Q 1894 -91 1617 61 
Q 1341 213 1159 525 
L 1159 0 
L 581 0 
L 581 4863 
L 1159 4863 
L 1159 2969 
z
" transform="scale(0.015625)"/>
      <path id="DejaVuSans-35" d="M 691 4666 
L 3169 4666 
L 3169 4134 
L 1269 4134 
L 1269 2991 
Q 1406 3038 1543 3061 
Q 1681 3084 1819 3084 
Q 2600 3084 3056 2656 
Q 3513 2228 3513 1497 
Q 3513 744 3044 326 
Q 2575 -91 1722 -91 
Q 1428 -91 1123 -41 
Q 819 9 494 109 
L 494 744 
Q 775 591 1075 516 
Q 1375 441 1709 441 
Q 2250 441 2565 725 
Q 2881 1009 2881 1497 
Q 2881 1984 2565 2268 
Q 2250 2553 1709 2553 
Q 1456 2553 1204 2497 
Q 953 2441 691 2322 
L 691 4666 
z
" transform="scale(0.015625)"/>
     </defs>
     <use xlink:href="#DejaVuSans-64"/>
     <use xlink:href="#DejaVuSans-61" x="63.476562"/>
     <use xlink:href="#DejaVuSans-74" x="124.755859"/>
     <use xlink:href="#DejaVuSans-61" x="163.964844"/>
     <use xlink:href="#DejaVuSans-73" x="225.244141"/>
     <use xlink:href="#DejaVuSans-65" x="277.34375"/>
     <use xlink:href="#DejaVuSans-74" x="338.867188"/>
     <use xlink:href="#DejaVuSans-20" x="378.076172"/>
     <use xlink:href="#DejaVuSans-3d" x="409.863281"/>
     <use xlink:href="#DejaVuSans-20" x="493.652344"/>
     <use xlink:href="#DejaVuSans-62" x="525.439453"/>
     <use xlink:href="#DejaVuSans-6f" x="588.916016"/>
     <use xlink:href="#DejaVuSans-6c" x="650.097656"/>
     <use xlink:href="#DejaVuSans-64" x="677.880859"/>
     <use xlink:href="#DejaVuSans-35" x="741.357422"/>
     <use xlink:href="#DejaVuSans-30" x="804.980469"/>
     <use xlink:href="#DejaVuSans-30" x="868.603516"/>
     <use xlink:href="#DejaVuSans-30" x="932.226562"/>
    </g>
   </g>
  </g>
  <g id="axes_4">
   <g id="patch_11">
    <path d="M 1091.633359 277.977187 
L 1400.186374 277.977187 
L 1400.186374 26.877187 
L 1091.633359 26.877187 
z
" style="fill: #ffffff"/>
   </g>
   <g id="PolyCollection_7">
    <defs>
     <path id="m148262ff99" d="M 1130.202486 -144.492643 
L 1130.202486 -135.277551 
L 1158.25276 -123.190296 
L 1187.179605 -116.395848 
L 1215.229879 -112.107558 
L 1244.156724 -105.632365 
L 1272.206998 -98.653204 
L 1300.257272 -96.144765 
L 1329.184118 -91.220244 
L 1357.234392 -87.752897 
L 1386.161237 -85.928578 
L 1386.161237 -94.140295 
L 1386.161237 -94.140295 
L 1357.234392 -96.191513 
L 1329.184118 -100.251764 
L 1300.257272 -105.039461 
L 1272.206998 -109.373359 
L 1244.156724 -115.255648 
L 1215.229879 -121.412725 
L 1187.179605 -125.886868 
L 1158.25276 -131.628913 
L 1130.202486 -144.492643 
z
" style="stroke: #000000; stroke-opacity: 0.2; stroke-width: 1.5"/>
    </defs>
    <g clip-path="url(#p44212c8247)">
     <use xlink:href="#m148262ff99" x="0" y="335.567344" style="fill-opacity: 0.2; stroke: #000000; stroke-opacity: 0.2; stroke-width: 1.5"/>
    </g>
   </g>
   <g id="PolyCollection_8">
    <defs>
     <path id="m72b757d940" d="M 1130.202486 -163.190774 
L 1130.202486 -153.247094 
L 1158.25276 -139.880536 
L 1187.179605 -127.250547 
L 1215.229879 -120.042206 
L 1244.156724 -118.355851 
L 1272.206998 -116.029844 
L 1300.257272 -111.60701 
L 1329.184118 -112.245522 
L 1357.234392 -110.512419 
L 1386.161237 -107.455544 
L 1386.161237 -116.489344 
L 1386.161237 -116.489344 
L 1357.234392 -120.045626 
L 1329.184118 -121.914413 
L 1300.257272 -120.912178 
L 1272.206998 -125.927915 
L 1244.156724 -128.209454 
L 1215.229879 -130.488713 
L 1187.179605 -136.373283 
L 1158.25276 -149.2792 
L 1130.202486 -163.190774 
z
" style="stroke: #000000; stroke-opacity: 0.2; stroke-width: 1.5"/>
    </defs>
    <g clip-path="url(#p44212c8247)">
     <use xlink:href="#m72b757d940" x="0" y="335.567344" style="fill-opacity: 0.2; stroke: #000000; stroke-opacity: 0.2; stroke-width: 1.5"/>
    </g>
   </g>
   <g id="matplotlib.axis_7">
    <g id="xtick_13">
     <g id="line2d_39">
      <g>
       <use xlink:href="#me858685d3d" x="1102.152212" y="277.977187" style="stroke: #000000; stroke-width: 1.875"/>
      </g>
     </g>
     <g id="text_26">
      <!-- 0 -->
      <g transform="translate(1096.90315 303.014609) scale(0.165 -0.165)">
       <use xlink:href="#DejaVuSans-30"/>
      </g>
     </g>
    </g>
    <g id="xtick_14">
     <g id="line2d_40">
      <g>
       <use xlink:href="#me858685d3d" x="1189.809318" y="277.977187" style="stroke: #000000; stroke-width: 1.875"/>
      </g>
     </g>
     <g id="text_27">
      <!-- 100 -->
      <g transform="translate(1174.062131 303.014609) scale(0.165 -0.165)">
       <use xlink:href="#DejaVuSans-31"/>
       <use xlink:href="#DejaVuSans-30" x="63.623047"/>
       <use xlink:href="#DejaVuSans-30" x="127.246094"/>
      </g>
     </g>
    </g>
    <g id="xtick_15">
     <g id="line2d_41">
      <g>
       <use xlink:href="#me858685d3d" x="1277.466425" y="277.977187" style="stroke: #000000; stroke-width: 1.875"/>
      </g>
     </g>
     <g id="text_28">
      <!-- 200 -->
      <g transform="translate(1261.719237 303.014609) scale(0.165 -0.165)">
       <use xlink:href="#DejaVuSans-32"/>
       <use xlink:href="#DejaVuSans-30" x="63.623047"/>
       <use xlink:href="#DejaVuSans-30" x="127.246094"/>
      </g>
     </g>
    </g>
    <g id="xtick_16">
     <g id="line2d_42">
      <g>
       <use xlink:href="#me858685d3d" x="1365.123531" y="277.977187" style="stroke: #000000; stroke-width: 1.875"/>
      </g>
     </g>
     <g id="text_29">
      <!-- 300 -->
      <g transform="translate(1349.376344 303.014609) scale(0.165 -0.165)">
       <use xlink:href="#DejaVuSans-33"/>
       <use xlink:href="#DejaVuSans-30" x="63.623047"/>
       <use xlink:href="#DejaVuSans-30" x="127.246094"/>
      </g>
     </g>
    </g>
    <g id="text_30">
     <!-- n_samples -->
     <g transform="translate(1198.295648 324.123281) scale(0.18 -0.18)">
      <use xlink:href="#DejaVuSans-6e"/>
      <use xlink:href="#DejaVuSans-5f" x="63.378906"/>
      <use xlink:href="#DejaVuSans-73" x="113.378906"/>
      <use xlink:href="#DejaVuSans-61" x="165.478516"/>
      <use xlink:href="#DejaVuSans-6d" x="226.757812"/>
      <use xlink:href="#DejaVuSans-70" x="324.169922"/>
      <use xlink:href="#DejaVuSans-6c" x="387.646484"/>
      <use xlink:href="#DejaVuSans-65" x="415.429688"/>
      <use xlink:href="#DejaVuSans-73" x="476.953125"/>
     </g>
    </g>
   </g>
   <g id="matplotlib.axis_8">
    <g id="ytick_19">
     <g id="line2d_43">
      <g>
       <use xlink:href="#mf5770c6e8d" x="1091.633359" y="275.770997" style="stroke: #000000; stroke-width: 1.875"/>
      </g>
     </g>
    </g>
    <g id="ytick_20">
     <g id="line2d_44">
      <g>
       <use xlink:href="#mf5770c6e8d" x="1091.633359" y="233.081929" style="stroke: #000000; stroke-width: 1.875"/>
      </g>
     </g>
    </g>
    <g id="ytick_21">
     <g id="line2d_45">
      <g>
       <use xlink:href="#mf5770c6e8d" x="1091.633359" y="190.392862" style="stroke: #000000; stroke-width: 1.875"/>
      </g>
     </g>
    </g>
    <g id="ytick_22">
     <g id="line2d_46">
      <g>
       <use xlink:href="#mf5770c6e8d" x="1091.633359" y="147.703794" style="stroke: #000000; stroke-width: 1.875"/>
      </g>
     </g>
    </g>
    <g id="ytick_23">
     <g id="line2d_47">
      <g>
       <use xlink:href="#mf5770c6e8d" x="1091.633359" y="105.014726" style="stroke: #000000; stroke-width: 1.875"/>
      </g>
     </g>
    </g>
    <g id="ytick_24">
     <g id="line2d_48">
      <g>
       <use xlink:href="#mf5770c6e8d" x="1091.633359" y="62.325658" style="stroke: #000000; stroke-width: 1.875"/>
      </g>
     </g>
    </g>
   </g>
   <g id="line2d_49">
    <path d="M 1130.202486 195.500955 
L 1158.25276 208.043149 
L 1187.179605 214.245834 
L 1215.229879 218.761024 
L 1244.156724 225.465397 
L 1272.206998 231.622474 
L 1300.257272 235.271112 
L 1329.184118 239.695086 
L 1357.234392 243.66298 
L 1386.161237 245.487299 
" clip-path="url(#p44212c8247)" style="fill: none; stroke: #000000; stroke-width: 2.25; stroke-linecap: square"/>
   </g>
   <g id="line2d_50">
    <path d="M 1130.202486 177.394588 
L 1158.25276 190.940157 
L 1187.179605 203.755999 
L 1215.229879 210.186724 
L 1244.156724 212.147867 
L 1272.206998 214.56509 
L 1300.257272 219.08028 
L 1329.184118 218.578592 
L 1357.234392 220.266087 
L 1386.161237 223.413038 
" clip-path="url(#p44212c8247)" style="fill: none; stroke-dasharray: 9,3.375; stroke-dashoffset: 0; stroke: #000000; stroke-width: 2.25"/>
   </g>
   <g id="patch_12">
    <path d="M 1091.633359 277.977187 
L 1091.633359 26.877187 
" style="fill: none; stroke: #000000; stroke-width: 1.875; stroke-linejoin: miter; stroke-linecap: square"/>
   </g>
   <g id="patch_13">
    <path d="M 1091.633359 277.977187 
L 1400.186374 277.977187 
" style="fill: none; stroke: #000000; stroke-width: 1.875; stroke-linejoin: miter; stroke-linecap: square"/>
   </g>
   <g id="text_31">
    <!-- dataset = rsvp -->
    <g transform="translate(1179.191742 20.877187) scale(0.18 -0.18)">
     <defs>
      <path id="DejaVuSans-76" d="M 191 3500 
L 800 3500 
L 1894 563 
L 2988 3500 
L 3597 3500 
L 2284 0 
L 1503 0 
L 191 3500 
z
" transform="scale(0.015625)"/>
     </defs>
     <use xlink:href="#DejaVuSans-64"/>
     <use xlink:href="#DejaVuSans-61" x="63.476562"/>
     <use xlink:href="#DejaVuSans-74" x="124.755859"/>
     <use xlink:href="#DejaVuSans-61" x="163.964844"/>
     <use xlink:href="#DejaVuSans-73" x="225.244141"/>
     <use xlink:href="#DejaVuSans-65" x="277.34375"/>
     <use xlink:href="#DejaVuSans-74" x="338.867188"/>
     <use xlink:href="#DejaVuSans-20" x="378.076172"/>
     <use xlink:href="#DejaVuSans-3d" x="409.863281"/>
     <use xlink:href="#DejaVuSans-20" x="493.652344"/>
     <use xlink:href="#DejaVuSans-72" x="525.439453"/>
     <use xlink:href="#DejaVuSans-73" x="566.552734"/>
     <use xlink:href="#DejaVuSans-76" x="618.652344"/>
     <use xlink:href="#DejaVuSans-70" x="677.832031"/>
    </g>
   </g>
  </g>
  <g id="legend_1">
   <g id="text_32">
    <!-- classifier -->
    <g transform="translate(1456.451032 148.531641) scale(0.18 -0.18)">
     <defs>
      <path id="DejaVuSans-63" d="M 3122 3366 
L 3122 2828 
Q 2878 2963 2633 3030 
Q 2388 3097 2138 3097 
Q 1578 3097 1268 2742 
Q 959 2388 959 1747 
Q 959 1106 1268 751 
Q 1578 397 2138 397 
Q 2388 397 2633 464 
Q 2878 531 3122 666 
L 3122 134 
Q 2881 22 2623 -34 
Q 2366 -91 2075 -91 
Q 1284 -91 818 406 
Q 353 903 353 1747 
Q 353 2603 823 3093 
Q 1294 3584 2113 3584 
Q 2378 3584 2631 3529 
Q 2884 3475 3122 3366 
z
" transform="scale(0.015625)"/>
     </defs>
     <use xlink:href="#DejaVuSans-63"/>
     <use xlink:href="#DejaVuSans-6c" x="54.980469"/>
     <use xlink:href="#DejaVuSans-61" x="82.763672"/>
     <use xlink:href="#DejaVuSans-73" x="144.042969"/>
     <use xlink:href="#DejaVuSans-73" x="196.142578"/>
     <use xlink:href="#DejaVuSans-69" x="248.242188"/>
     <use xlink:href="#DejaVuSans-66" x="276.025391"/>
     <use xlink:href="#DejaVuSans-69" x="311.230469"/>
     <use xlink:href="#DejaVuSans-65" x="339.013672"/>
     <use xlink:href="#DejaVuSans-72" x="400.537109"/>
    </g>
   </g>
   <g id="line2d_51">
    <path d="M 1413.638102 167.2875 
L 1430.138102 167.2875 
L 1446.638102 167.2875 
" style="fill: none; stroke: #000000; stroke-width: 2.25; stroke-linecap: square"/>
   </g>
   <g id="text_33">
    <!-- LinearSVC -->
    <g transform="translate(1459.838102 173.0625) scale(0.165 -0.165)">
     <defs>
      <path id="DejaVuSans-4c" d="M 628 4666 
L 1259 4666 
L 1259 531 
L 3531 531 
L 3531 0 
L 628 0 
L 628 4666 
z
" transform="scale(0.015625)"/>
      <path id="DejaVuSans-53" d="M 3425 4513 
L 3425 3897 
Q 3066 4069 2747 4153 
Q 2428 4238 2131 4238 
Q 1616 4238 1336 4038 
Q 1056 3838 1056 3469 
Q 1056 3159 1242 3001 
Q 1428 2844 1947 2747 
L 2328 2669 
Q 3034 2534 3370 2195 
Q 3706 1856 3706 1288 
Q 3706 609 3251 259 
Q 2797 -91 1919 -91 
Q 1588 -91 1214 -16 
Q 841 59 441 206 
L 441 856 
Q 825 641 1194 531 
Q 1563 422 1919 422 
Q 2459 422 2753 634 
Q 3047 847 3047 1241 
Q 3047 1584 2836 1778 
Q 2625 1972 2144 2069 
L 1759 2144 
Q 1053 2284 737 2584 
Q 422 2884 422 3419 
Q 422 4038 858 4394 
Q 1294 4750 2059 4750 
Q 2388 4750 2728 4690 
Q 3069 4631 3425 4513 
z
" transform="scale(0.015625)"/>
      <path id="DejaVuSans-56" d="M 1831 0 
L 50 4666 
L 709 4666 
L 2188 738 
L 3669 4666 
L 4325 4666 
L 2547 0 
L 1831 0 
z
" transform="scale(0.015625)"/>
      <path id="DejaVuSans-43" d="M 4122 4306 
L 4122 3641 
Q 3803 3938 3442 4084 
Q 3081 4231 2675 4231 
Q 1875 4231 1450 3742 
Q 1025 3253 1025 2328 
Q 1025 1406 1450 917 
Q 1875 428 2675 428 
Q 3081 428 3442 575 
Q 3803 722 4122 1019 
L 4122 359 
Q 3791 134 3420 21 
Q 3050 -91 2638 -91 
Q 1578 -91 968 557 
Q 359 1206 359 2328 
Q 359 3453 968 4101 
Q 1578 4750 2638 4750 
Q 3056 4750 3426 4639 
Q 3797 4528 4122 4306 
z
" transform="scale(0.015625)"/>
     </defs>
     <use xlink:href="#DejaVuSans-4c"/>
     <use xlink:href="#DejaVuSans-69" x="55.712891"/>
     <use xlink:href="#DejaVuSans-6e" x="83.496094"/>
     <use xlink:href="#DejaVuSans-65" x="146.875"/>
     <use xlink:href="#DejaVuSans-61" x="208.398438"/>
     <use xlink:href="#DejaVuSans-72" x="269.677734"/>
     <use xlink:href="#DejaVuSans-53" x="310.791016"/>
     <use xlink:href="#DejaVuSans-56" x="374.267578"/>
     <use xlink:href="#DejaVuSans-43" x="442.675781"/>
    </g>
   </g>
   <g id="line2d_52">
    <path d="M 1413.638102 191.506406 
L 1430.138102 191.506406 
L 1446.638102 191.506406 
" style="fill: none; stroke-dasharray: 9,3.375; stroke-dashoffset: 0; stroke: #000000; stroke-width: 2.25"/>
   </g>
   <g id="text_34">
    <!-- RandomForest -->
    <g transform="translate(1459.838102 197.281406) scale(0.165 -0.165)">
     <defs>
      <path id="DejaVuSans-52" d="M 2841 2188 
Q 3044 2119 3236 1894 
Q 3428 1669 3622 1275 
L 4263 0 
L 3584 0 
L 2988 1197 
Q 2756 1666 2539 1819 
Q 2322 1972 1947 1972 
L 1259 1972 
L 1259 0 
L 628 0 
L 628 4666 
L 2053 4666 
Q 2853 4666 3247 4331 
Q 3641 3997 3641 3322 
Q 3641 2881 3436 2590 
Q 3231 2300 2841 2188 
z
M 1259 4147 
L 1259 2491 
L 2053 2491 
Q 2509 2491 2742 2702 
Q 2975 2913 2975 3322 
Q 2975 3731 2742 3939 
Q 2509 4147 2053 4147 
L 1259 4147 
z
" transform="scale(0.015625)"/>
      <path id="DejaVuSans-46" d="M 628 4666 
L 3309 4666 
L 3309 4134 
L 1259 4134 
L 1259 2759 
L 3109 2759 
L 3109 2228 
L 1259 2228 
L 1259 0 
L 628 0 
L 628 4666 
z
" transform="scale(0.015625)"/>
     </defs>
     <use xlink:href="#DejaVuSans-52"/>
     <use xlink:href="#DejaVuSans-61" x="67.232422"/>
     <use xlink:href="#DejaVuSans-6e" x="128.511719"/>
     <use xlink:href="#DejaVuSans-64" x="191.890625"/>
     <use xlink:href="#DejaVuSans-6f" x="255.367188"/>
     <use xlink:href="#DejaVuSans-6d" x="316.548828"/>
     <use xlink:href="#DejaVuSans-46" x="413.960938"/>
     <use xlink:href="#DejaVuSans-6f" x="467.855469"/>
     <use xlink:href="#DejaVuSans-72" x="529.037109"/>
     <use xlink:href="#DejaVuSans-65" x="567.900391"/>
     <use xlink:href="#DejaVuSans-73" x="629.423828"/>
     <use xlink:href="#DejaVuSans-74" x="681.523438"/>
    </g>
   </g>
  </g>
 </g>
 <defs>
  <clipPath id="p29d19e9d8e">
   <rect x="81.187266" y="26.877187" width="308.553014" height="251.1"/>
  </clipPath>
  <clipPath id="p27bb7617ef">
   <rect x="418.00263" y="26.877187" width="308.553014" height="251.1"/>
  </clipPath>
  <clipPath id="p20eefbe3a2">
   <rect x="754.817995" y="26.877187" width="308.553014" height="251.1"/>
  </clipPath>
  <clipPath id="p44212c8247">
   <rect x="1091.633359" y="26.877187" width="308.553014" height="251.1"/>
  </clipPath>
 </defs>
</svg>
