<?xml version="1.0" encoding="utf-8" standalone="no"?>
<!DOCTYPE svg PUBLIC "-//W3C//DTD SVG 1.1//EN"
  "http://www.w3.org/Graphics/SVG/1.1/DTD/svg11.dtd">
<svg xmlns:xlink="http://www.w3.org/1999/xlink" width="1897.719379pt" height="335.567344pt" viewBox="0 0 1897.719379 335.567344" xmlns="http://www.w3.org/2000/svg" version="1.1">
 <metadata>
  <rdf:RDF xmlns:dc="http://purl.org/dc/elements/1.1/" xmlns:cc="http://creativecommons.org/ns#" xmlns:rdf="http://www.w3.org/1999/02/22-rdf-syntax-ns#">
   <cc:Work>
    <dc:type rdf:resource="http://purl.org/dc/dcmitype/StillImage"/>
    <dc:date>2024-01-31T14:12:39.736399</dc:date>
    <dc:format>image/svg+xml</dc:format>
    <dc:creator>
     <cc:Agent>
      <dc:title>Matplotlib v3.8.0, https://matplotlib.org/</dc:title>
     </cc:Agent>
    </dc:creator>
   </cc:Work>
  </rdf:RDF>
 </metadata>
 <defs>
  <style type="text/css">*{stroke-linejoin: round; stroke-linecap: butt}</style>
 </defs>
 <g id="figure_1">
  <g id="patch_1">
   <path d="M 0 335.567344 
L 1897.719379 335.567344 
L 1897.719379 0 
L 0 0 
z
" style="fill: #ffffff"/>
  </g>
  <g id="axes_1">
   <g id="patch_2">
    <path d="M 81.187266 277.977187 
L 394.813902 277.977187 
L 394.813902 26.877187 
L 81.187266 26.877187 
z
" style="fill: #ffffff"/>
   </g>
   <g id="PolyCollection_1">
    <defs>
     <path id="m55606fb20f" d="M 95.443022 -280.930424 
L 95.443022 -229.167786 
L 95.770064 -249.600406 
L 96.031697 -218.951476 
L 96.358739 -219.632563 
L 96.685781 -184.216022 
L 96.947415 -159.679851 
L 97.274456 -135.858821 
L 97.53609 -123.599249 
L 97.863132 -120.176785 
L 98.190174 -114.064026 
L 98.190174 -156.308468 
L 98.190174 -156.308468 
L 97.863132 -164.481516 
L 97.53609 -168.551013 
L 97.274456 -183.534935 
L 96.947415 -199.199943 
L 96.685781 -227.822639 
L 96.358739 -265.265415 
L 96.031697 -265.946502 
L 95.770064 -297.27652 
L 95.443022 -280.930424 
z
" style="stroke: #000000; stroke-opacity: 0.2; stroke-width: 1.5"/>
    </defs>
    <g clip-path="url(#p88cf80eae6)">
     <use xlink:href="#m55606fb20f" x="0" y="335.567344" style="fill-opacity: 0.2; stroke: #000000; stroke-opacity: 0.2; stroke-width: 1.5"/>
    </g>
   </g>
   <g id="PolyCollection_2">
    <defs>
     <path id="mce19b52963" d="M 95.443022 -261.178891 
L 95.443022 -208.037052 
L 95.770064 -238.021922 
L 96.031697 -218.900395 
L 96.358739 -207.372991 
L 96.685781 -170.594275 
L 96.947415 -163.783402 
L 97.274456 -154.929267 
L 97.53609 -140.626432 
L 97.863132 -133.134472 
L 98.190174 -133.815559 
L 98.190174 -165.843691 
L 98.190174 -165.843691 
L 97.863132 -167.886953 
L 97.53609 -175.361887 
L 97.274456 -194.449359 
L 96.947415 -200.562118 
L 96.685781 -210.795455 
L 96.358739 -247.591199 
L 96.031697 -261.859978 
L 95.770064 -282.973686 
L 95.443022 -261.178891 
z
" style="stroke: #000000; stroke-opacity: 0.2; stroke-width: 1.5"/>
    </defs>
    <g clip-path="url(#p88cf80eae6)">
     <use xlink:href="#mce19b52963" x="0" y="335.567344" style="fill-opacity: 0.2; stroke: #000000; stroke-opacity: 0.2; stroke-width: 1.5"/>
    </g>
   </g>
   <g id="matplotlib.axis_1">
    <g id="xtick_1">
     <g id="line2d_1">
      <defs>
       <path id="mb07097e340" d="M 0 0 
L 0 9 
" style="stroke: #000000; stroke-width: 1.875"/>
      </defs>
      <g>
       <use xlink:href="#mb07097e340" x="95.181388" y="277.977187" style="stroke: #000000; stroke-width: 1.875"/>
      </g>
     </g>
     <g id="text_1">
      <!-- 0 -->
      <g transform="translate(89.932326 303.014609) scale(0.165 -0.165)">
       <defs>
        <path id="DejaVuSans-30" d="M 2034 4250 
Q 1547 4250 1301 3770 
Q 1056 3291 1056 2328 
Q 1056 1369 1301 889 
Q 1547 409 2034 409 
Q 2525 409 2770 889 
Q 3016 1369 3016 2328 
Q 3016 3291 2770 3770 
Q 2525 4250 2034 4250 
z
M 2034 4750 
Q 2819 4750 3233 4129 
Q 3647 3509 3647 2328 
Q 3647 1150 3233 529 
Q 2819 -91 2034 -91 
Q 1250 -91 836 529 
Q 422 1150 422 2328 
Q 422 3509 836 4129 
Q 1250 4750 2034 4750 
z
" transform="scale(0.015625)"/>
       </defs>
       <use xlink:href="#DejaVuSans-30"/>
      </g>
     </g>
    </g>
    <g id="xtick_2">
     <g id="line2d_2">
      <g>
       <use xlink:href="#mb07097e340" x="160.589767" y="277.977187" style="stroke: #000000; stroke-width: 1.875"/>
      </g>
     </g>
     <g id="text_2">
      <!-- 1000 -->
      <g transform="translate(139.593517 303.014609) scale(0.165 -0.165)">
       <defs>
        <path id="DejaVuSans-31" d="M 794 531 
L 1825 531 
L 1825 4091 
L 703 3866 
L 703 4441 
L 1819 4666 
L 2450 4666 
L 2450 531 
L 3481 531 
L 3481 0 
L 794 0 
L 794 531 
z
" transform="scale(0.015625)"/>
       </defs>
       <use xlink:href="#DejaVuSans-31"/>
       <use xlink:href="#DejaVuSans-30" x="63.623047"/>
       <use xlink:href="#DejaVuSans-30" x="127.246094"/>
       <use xlink:href="#DejaVuSans-30" x="190.869141"/>
      </g>
     </g>
    </g>
    <g id="xtick_3">
     <g id="line2d_3">
      <g>
       <use xlink:href="#mb07097e340" x="225.998146" y="277.977187" style="stroke: #000000; stroke-width: 1.875"/>
      </g>
     </g>
     <g id="text_3">
      <!-- 2000 -->
      <g transform="translate(205.001896 303.014609) scale(0.165 -0.165)">
       <defs>
        <path id="DejaVuSans-32" d="M 1228 531 
L 3431 531 
L 3431 0 
L 469 0 
L 469 531 
Q 828 903 1448 1529 
Q 2069 2156 2228 2338 
Q 2531 2678 2651 2914 
Q 2772 3150 2772 3378 
Q 2772 3750 2511 3984 
Q 2250 4219 1831 4219 
Q 1534 4219 1204 4116 
Q 875 4013 500 3803 
L 500 4441 
Q 881 4594 1212 4672 
Q 1544 4750 1819 4750 
Q 2544 4750 2975 4387 
Q 3406 4025 3406 3419 
Q 3406 3131 3298 2873 
Q 3191 2616 2906 2266 
Q 2828 2175 2409 1742 
Q 1991 1309 1228 531 
z
" transform="scale(0.015625)"/>
       </defs>
       <use xlink:href="#DejaVuSans-32"/>
       <use xlink:href="#DejaVuSans-30" x="63.623047"/>
       <use xlink:href="#DejaVuSans-30" x="127.246094"/>
       <use xlink:href="#DejaVuSans-30" x="190.869141"/>
      </g>
     </g>
    </g>
    <g id="xtick_4">
     <g id="line2d_4">
      <g>
       <use xlink:href="#mb07097e340" x="291.406525" y="277.977187" style="stroke: #000000; stroke-width: 1.875"/>
      </g>
     </g>
     <g id="text_4">
      <!-- 3000 -->
      <g transform="translate(270.410275 303.014609) scale(0.165 -0.165)">
       <defs>
        <path id="DejaVuSans-33" d="M 2597 2516 
Q 3050 2419 3304 2112 
Q 3559 1806 3559 1356 
Q 3559 666 3084 287 
Q 2609 -91 1734 -91 
Q 1441 -91 1130 -33 
Q 819 25 488 141 
L 488 750 
Q 750 597 1062 519 
Q 1375 441 1716 441 
Q 2309 441 2620 675 
Q 2931 909 2931 1356 
Q 2931 1769 2642 2001 
Q 2353 2234 1838 2234 
L 1294 2234 
L 1294 2753 
L 1863 2753 
Q 2328 2753 2575 2939 
Q 2822 3125 2822 3475 
Q 2822 3834 2567 4026 
Q 2313 4219 1838 4219 
Q 1578 4219 1281 4162 
Q 984 4106 628 3988 
L 628 4550 
Q 988 4650 1302 4700 
Q 1616 4750 1894 4750 
Q 2613 4750 3031 4423 
Q 3450 4097 3450 3541 
Q 3450 3153 3228 2886 
Q 3006 2619 2597 2516 
z
" transform="scale(0.015625)"/>
       </defs>
       <use xlink:href="#DejaVuSans-33"/>
       <use xlink:href="#DejaVuSans-30" x="63.623047"/>
       <use xlink:href="#DejaVuSans-30" x="127.246094"/>
       <use xlink:href="#DejaVuSans-30" x="190.869141"/>
      </g>
     </g>
    </g>
    <g id="xtick_5">
     <g id="line2d_5">
      <g>
       <use xlink:href="#mb07097e340" x="356.814904" y="277.977187" style="stroke: #000000; stroke-width: 1.875"/>
      </g>
     </g>
     <g id="text_5">
      <!-- 4000 -->
      <g transform="translate(335.818654 303.014609) scale(0.165 -0.165)">
       <defs>
        <path id="DejaVuSans-34" d="M 2419 4116 
L 825 1625 
L 2419 1625 
L 2419 4116 
z
M 2253 4666 
L 3047 4666 
L 3047 1625 
L 3713 1625 
L 3713 1100 
L 3047 1100 
L 3047 0 
L 2419 0 
L 2419 1100 
L 313 1100 
L 313 1709 
L 2253 4666 
z
" transform="scale(0.015625)"/>
       </defs>
       <use xlink:href="#DejaVuSans-34"/>
       <use xlink:href="#DejaVuSans-30" x="63.623047"/>
       <use xlink:href="#DejaVuSans-30" x="127.246094"/>
       <use xlink:href="#DejaVuSans-30" x="190.869141"/>
      </g>
     </g>
    </g>
    <g id="text_6">
     <!-- n_samples -->
     <g transform="translate(190.386365 324.123281) scale(0.18 -0.18)">
      <defs>
       <path id="DejaVuSans-6e" d="M 3513 2113 
L 3513 0 
L 2938 0 
L 2938 2094 
Q 2938 2591 2744 2837 
Q 2550 3084 2163 3084 
Q 1697 3084 1428 2787 
Q 1159 2491 1159 1978 
L 1159 0 
L 581 0 
L 581 3500 
L 1159 3500 
L 1159 2956 
Q 1366 3272 1645 3428 
Q 1925 3584 2291 3584 
Q 2894 3584 3203 3211 
Q 3513 2838 3513 2113 
z
" transform="scale(0.015625)"/>
       <path id="DejaVuSans-5f" d="M 3263 -1063 
L 3263 -1509 
L -63 -1509 
L -63 -1063 
L 3263 -1063 
z
" transform="scale(0.015625)"/>
       <path id="DejaVuSans-73" d="M 2834 3397 
L 2834 2853 
Q 2591 2978 2328 3040 
Q 2066 3103 1784 3103 
Q 1356 3103 1142 2972 
Q 928 2841 928 2578 
Q 928 2378 1081 2264 
Q 1234 2150 1697 2047 
L 1894 2003 
Q 2506 1872 2764 1633 
Q 3022 1394 3022 966 
Q 3022 478 2636 193 
Q 2250 -91 1575 -91 
Q 1294 -91 989 -36 
Q 684 19 347 128 
L 347 722 
Q 666 556 975 473 
Q 1284 391 1588 391 
Q 1994 391 2212 530 
Q 2431 669 2431 922 
Q 2431 1156 2273 1281 
Q 2116 1406 1581 1522 
L 1381 1569 
Q 847 1681 609 1914 
Q 372 2147 372 2553 
Q 372 3047 722 3315 
Q 1072 3584 1716 3584 
Q 2034 3584 2315 3537 
Q 2597 3491 2834 3397 
z
" transform="scale(0.015625)"/>
       <path id="DejaVuSans-61" d="M 2194 1759 
Q 1497 1759 1228 1600 
Q 959 1441 959 1056 
Q 959 750 1161 570 
Q 1363 391 1709 391 
Q 2188 391 2477 730 
Q 2766 1069 2766 1631 
L 2766 1759 
L 2194 1759 
z
M 3341 1997 
L 3341 0 
L 2766 0 
L 2766 531 
Q 2569 213 2275 61 
Q 1981 -91 1556 -91 
Q 1019 -91 701 211 
Q 384 513 384 1019 
Q 384 1609 779 1909 
Q 1175 2209 1959 2209 
L 2766 2209 
L 2766 2266 
Q 2766 2663 2505 2880 
Q 2244 3097 1772 3097 
Q 1472 3097 1187 3025 
Q 903 2953 641 2809 
L 641 3341 
Q 956 3463 1253 3523 
Q 1550 3584 1831 3584 
Q 2591 3584 2966 3190 
Q 3341 2797 3341 1997 
z
" transform="scale(0.015625)"/>
       <path id="DejaVuSans-6d" d="M 3328 2828 
Q 3544 3216 3844 3400 
Q 4144 3584 4550 3584 
Q 5097 3584 5394 3201 
Q 5691 2819 5691 2113 
L 5691 0 
L 5113 0 
L 5113 2094 
Q 5113 2597 4934 2840 
Q 4756 3084 4391 3084 
Q 3944 3084 3684 2787 
Q 3425 2491 3425 1978 
L 3425 0 
L 2847 0 
L 2847 2094 
Q 2847 2600 2669 2842 
Q 2491 3084 2119 3084 
Q 1678 3084 1418 2786 
Q 1159 2488 1159 1978 
L 1159 0 
L 581 0 
L 581 3500 
L 1159 3500 
L 1159 2956 
Q 1356 3278 1631 3431 
Q 1906 3584 2284 3584 
Q 2666 3584 2933 3390 
Q 3200 3197 3328 2828 
z
" transform="scale(0.015625)"/>
       <path id="DejaVuSans-70" d="M 1159 525 
L 1159 -1331 
L 581 -1331 
L 581 3500 
L 1159 3500 
L 1159 2969 
Q 1341 3281 1617 3432 
Q 1894 3584 2278 3584 
Q 2916 3584 3314 3078 
Q 3713 2572 3713 1747 
Q 3713 922 3314 415 
Q 2916 -91 2278 -91 
Q 1894 -91 1617 61 
Q 1341 213 1159 525 
z
M 3116 1747 
Q 3116 2381 2855 2742 
Q 2594 3103 2138 3103 
Q 1681 3103 1420 2742 
Q 1159 2381 1159 1747 
Q 1159 1113 1420 752 
Q 1681 391 2138 391 
Q 2594 391 2855 752 
Q 3116 1113 3116 1747 
z
" transform="scale(0.015625)"/>
       <path id="DejaVuSans-6c" d="M 603 4863 
L 1178 4863 
L 1178 0 
L 603 0 
L 603 4863 
z
" transform="scale(0.015625)"/>
       <path id="DejaVuSans-65" d="M 3597 1894 
L 3597 1613 
L 953 1613 
Q 991 1019 1311 708 
Q 1631 397 2203 397 
Q 2534 397 2845 478 
Q 3156 559 3463 722 
L 3463 178 
Q 3153 47 2828 -22 
Q 2503 -91 2169 -91 
Q 1331 -91 842 396 
Q 353 884 353 1716 
Q 353 2575 817 3079 
Q 1281 3584 2069 3584 
Q 2775 3584 3186 3129 
Q 3597 2675 3597 1894 
z
M 3022 2063 
Q 3016 2534 2758 2815 
Q 2500 3097 2075 3097 
Q 1594 3097 1305 2825 
Q 1016 2553 972 2059 
L 3022 2063 
z
" transform="scale(0.015625)"/>
      </defs>
      <use xlink:href="#DejaVuSans-6e"/>
      <use xlink:href="#DejaVuSans-5f" x="63.378906"/>
      <use xlink:href="#DejaVuSans-73" x="113.378906"/>
      <use xlink:href="#DejaVuSans-61" x="165.478516"/>
      <use xlink:href="#DejaVuSans-6d" x="226.757812"/>
      <use xlink:href="#DejaVuSans-70" x="324.169922"/>
      <use xlink:href="#DejaVuSans-6c" x="387.646484"/>
      <use xlink:href="#DejaVuSans-65" x="415.429688"/>
      <use xlink:href="#DejaVuSans-73" x="476.953125"/>
     </g>
    </g>
   </g>
   <g id="matplotlib.axis_2">
    <g id="ytick_1">
     <g id="line2d_6">
      <defs>
       <path id="m6cfef44f96" d="M 0 0 
L -9 0 
" style="stroke: #000000; stroke-width: 1.875"/>
      </defs>
      <g>
       <use xlink:href="#m6cfef44f96" x="81.187266" y="263.049645" style="stroke: #000000; stroke-width: 1.875"/>
      </g>
     </g>
     <g id="text_7">
      <!-- −0.1 -->
      <g transform="translate(28.620625 269.318356) scale(0.165 -0.165)">
       <defs>
        <path id="DejaVuSans-2212" d="M 678 2272 
L 4684 2272 
L 4684 1741 
L 678 1741 
L 678 2272 
z
" transform="scale(0.015625)"/>
        <path id="DejaVuSans-2e" d="M 684 794 
L 1344 794 
L 1344 0 
L 684 0 
L 684 794 
z
" transform="scale(0.015625)"/>
       </defs>
       <use xlink:href="#DejaVuSans-2212"/>
       <use xlink:href="#DejaVuSans-30" x="83.789062"/>
       <use xlink:href="#DejaVuSans-2e" x="147.412109"/>
       <use xlink:href="#DejaVuSans-31" x="179.199219"/>
      </g>
     </g>
    </g>
    <g id="ytick_2">
     <g id="line2d_7">
      <g>
       <use xlink:href="#m6cfef44f96" x="81.187266" y="219.460055" style="stroke: #000000; stroke-width: 1.875"/>
      </g>
     </g>
     <g id="text_8">
      <!-- 0.0 -->
      <g transform="translate(42.447109 225.728766) scale(0.165 -0.165)">
       <use xlink:href="#DejaVuSans-30"/>
       <use xlink:href="#DejaVuSans-2e" x="63.623047"/>
       <use xlink:href="#DejaVuSans-30" x="95.410156"/>
      </g>
     </g>
    </g>
    <g id="ytick_3">
     <g id="line2d_8">
      <g>
       <use xlink:href="#m6cfef44f96" x="81.187266" y="175.870466" style="stroke: #000000; stroke-width: 1.875"/>
      </g>
     </g>
     <g id="text_9">
      <!-- 0.1 -->
      <g transform="translate(42.447109 182.139177) scale(0.165 -0.165)">
       <use xlink:href="#DejaVuSans-30"/>
       <use xlink:href="#DejaVuSans-2e" x="63.623047"/>
       <use xlink:href="#DejaVuSans-31" x="95.410156"/>
      </g>
     </g>
    </g>
    <g id="ytick_4">
     <g id="line2d_9">
      <g>
       <use xlink:href="#m6cfef44f96" x="81.187266" y="132.280876" style="stroke: #000000; stroke-width: 1.875"/>
      </g>
     </g>
     <g id="text_10">
      <!-- 0.2 -->
      <g transform="translate(42.447109 138.549587) scale(0.165 -0.165)">
       <use xlink:href="#DejaVuSans-30"/>
       <use xlink:href="#DejaVuSans-2e" x="63.623047"/>
       <use xlink:href="#DejaVuSans-32" x="95.410156"/>
      </g>
     </g>
    </g>
    <g id="ytick_5">
     <g id="line2d_10">
      <g>
       <use xlink:href="#m6cfef44f96" x="81.187266" y="88.691287" style="stroke: #000000; stroke-width: 1.875"/>
      </g>
     </g>
     <g id="text_11">
      <!-- 0.3 -->
      <g transform="translate(42.447109 94.959998) scale(0.165 -0.165)">
       <use xlink:href="#DejaVuSans-30"/>
       <use xlink:href="#DejaVuSans-2e" x="63.623047"/>
       <use xlink:href="#DejaVuSans-33" x="95.410156"/>
      </g>
     </g>
    </g>
    <g id="ytick_6">
     <g id="line2d_11">
      <g>
       <use xlink:href="#m6cfef44f96" x="81.187266" y="45.101697" style="stroke: #000000; stroke-width: 1.875"/>
      </g>
     </g>
     <g id="text_12">
      <!-- 0.4 -->
      <g transform="translate(42.447109 51.370408) scale(0.165 -0.165)">
       <use xlink:href="#DejaVuSans-30"/>
       <use xlink:href="#DejaVuSans-2e" x="63.623047"/>
       <use xlink:href="#DejaVuSans-34" x="95.410156"/>
      </g>
     </g>
    </g>
    <g id="text_13">
     <!-- gain -->
     <g transform="translate(20.877188 171.860156) rotate(-90) scale(0.18 -0.18)">
      <defs>
       <path id="DejaVuSans-67" d="M 2906 1791 
Q 2906 2416 2648 2759 
Q 2391 3103 1925 3103 
Q 1463 3103 1205 2759 
Q 947 2416 947 1791 
Q 947 1169 1205 825 
Q 1463 481 1925 481 
Q 2391 481 2648 825 
Q 2906 1169 2906 1791 
z
M 3481 434 
Q 3481 -459 3084 -895 
Q 2688 -1331 1869 -1331 
Q 1566 -1331 1297 -1286 
Q 1028 -1241 775 -1147 
L 775 -588 
Q 1028 -725 1275 -790 
Q 1522 -856 1778 -856 
Q 2344 -856 2625 -561 
Q 2906 -266 2906 331 
L 2906 616 
Q 2728 306 2450 153 
Q 2172 0 1784 0 
Q 1141 0 747 490 
Q 353 981 353 1791 
Q 353 2603 747 3093 
Q 1141 3584 1784 3584 
Q 2172 3584 2450 3431 
Q 2728 3278 2906 2969 
L 2906 3500 
L 3481 3500 
L 3481 434 
z
" transform="scale(0.015625)"/>
       <path id="DejaVuSans-69" d="M 603 3500 
L 1178 3500 
L 1178 0 
L 603 0 
L 603 3500 
z
M 603 4863 
L 1178 4863 
L 1178 4134 
L 603 4134 
L 603 4863 
z
" transform="scale(0.015625)"/>
      </defs>
      <use xlink:href="#DejaVuSans-67"/>
      <use xlink:href="#DejaVuSans-61" x="63.476562"/>
      <use xlink:href="#DejaVuSans-69" x="124.755859"/>
      <use xlink:href="#DejaVuSans-6e" x="152.539062"/>
     </g>
    </g>
   </g>
   <g id="line2d_12">
    <path d="M 95.443022 79.837151 
L 95.770064 62.128881 
L 96.031697 93.458898 
L 96.358739 92.096723 
L 96.685781 129.556527 
L 96.947415 157.481108 
L 97.274456 175.189379 
L 97.53609 188.811125 
L 97.863132 193.578737 
L 98.190174 200.38961 
" clip-path="url(#p88cf80eae6)" style="fill: none; stroke: #000000; stroke-width: 2.25; stroke-linecap: square"/>
   </g>
   <g id="line2d_13">
    <path d="M 95.443022 101.631946 
L 95.770064 74.388453 
L 96.031697 94.821073 
L 96.358739 108.44282 
L 96.685781 145.221536 
L 96.947415 154.075671 
L 97.274456 160.886544 
L 97.53609 177.913728 
L 97.863132 185.405689 
L 98.190174 186.086776 
" clip-path="url(#p88cf80eae6)" style="fill: none; stroke-dasharray: 9,3.375; stroke-dashoffset: 0; stroke: #000000; stroke-width: 2.25"/>
   </g>
   <g id="line2d_14"/>
   <g id="line2d_15"/>
   <g id="patch_3">
    <path d="M 81.187266 277.977187 
L 81.187266 26.877187 
" style="fill: none; stroke: #000000; stroke-width: 1.875; stroke-linejoin: miter; stroke-linecap: square"/>
   </g>
   <g id="patch_4">
    <path d="M 81.187266 277.977187 
L 394.813902 277.977187 
" style="fill: none; stroke: #000000; stroke-width: 1.875; stroke-linejoin: miter; stroke-linecap: square"/>
   </g>
   <g id="text_14">
    <!-- dataset = neuromod -->
    <g transform="translate(144.774646 20.877187) scale(0.18 -0.18)">
     <defs>
      <path id="DejaVuSans-64" d="M 2906 2969 
L 2906 4863 
L 3481 4863 
L 3481 0 
L 2906 0 
L 2906 525 
Q 2725 213 2448 61 
Q 2172 -91 1784 -91 
Q 1150 -91 751 415 
Q 353 922 353 1747 
Q 353 2572 751 3078 
Q 1150 3584 1784 3584 
Q 2172 3584 2448 3432 
Q 2725 3281 2906 2969 
z
M 947 1747 
Q 947 1113 1208 752 
Q 1469 391 1925 391 
Q 2381 391 2643 752 
Q 2906 1113 2906 1747 
Q 2906 2381 2643 2742 
Q 2381 3103 1925 3103 
Q 1469 3103 1208 2742 
Q 947 2381 947 1747 
z
" transform="scale(0.015625)"/>
      <path id="DejaVuSans-74" d="M 1172 4494 
L 1172 3500 
L 2356 3500 
L 2356 3053 
L 1172 3053 
L 1172 1153 
Q 1172 725 1289 603 
Q 1406 481 1766 481 
L 2356 481 
L 2356 0 
L 1766 0 
Q 1100 0 847 248 
Q 594 497 594 1153 
L 594 3053 
L 172 3053 
L 172 3500 
L 594 3500 
L 594 4494 
L 1172 4494 
z
" transform="scale(0.015625)"/>
      <path id="DejaVuSans-20" transform="scale(0.015625)"/>
      <path id="DejaVuSans-3d" d="M 678 2906 
L 4684 2906 
L 4684 2381 
L 678 2381 
L 678 2906 
z
M 678 1631 
L 4684 1631 
L 4684 1100 
L 678 1100 
L 678 1631 
z
" transform="scale(0.015625)"/>
      <path id="DejaVuSans-75" d="M 544 1381 
L 544 3500 
L 1119 3500 
L 1119 1403 
Q 1119 906 1312 657 
Q 1506 409 1894 409 
Q 2359 409 2629 706 
Q 2900 1003 2900 1516 
L 2900 3500 
L 3475 3500 
L 3475 0 
L 2900 0 
L 2900 538 
Q 2691 219 2414 64 
Q 2138 -91 1772 -91 
Q 1169 -91 856 284 
Q 544 659 544 1381 
z
M 1991 3584 
L 1991 3584 
z
" transform="scale(0.015625)"/>
      <path id="DejaVuSans-72" d="M 2631 2963 
Q 2534 3019 2420 3045 
Q 2306 3072 2169 3072 
Q 1681 3072 1420 2755 
Q 1159 2438 1159 1844 
L 1159 0 
L 581 0 
L 581 3500 
L 1159 3500 
L 1159 2956 
Q 1341 3275 1631 3429 
Q 1922 3584 2338 3584 
Q 2397 3584 2469 3576 
Q 2541 3569 2628 3553 
L 2631 2963 
z
" transform="scale(0.015625)"/>
      <path id="DejaVuSans-6f" d="M 1959 3097 
Q 1497 3097 1228 2736 
Q 959 2375 959 1747 
Q 959 1119 1226 758 
Q 1494 397 1959 397 
Q 2419 397 2687 759 
Q 2956 1122 2956 1747 
Q 2956 2369 2687 2733 
Q 2419 3097 1959 3097 
z
M 1959 3584 
Q 2709 3584 3137 3096 
Q 3566 2609 3566 1747 
Q 3566 888 3137 398 
Q 2709 -91 1959 -91 
Q 1206 -91 779 398 
Q 353 888 353 1747 
Q 353 2609 779 3096 
Q 1206 3584 1959 3584 
z
" transform="scale(0.015625)"/>
     </defs>
     <use xlink:href="#DejaVuSans-64"/>
     <use xlink:href="#DejaVuSans-61" x="63.476562"/>
     <use xlink:href="#DejaVuSans-74" x="124.755859"/>
     <use xlink:href="#DejaVuSans-61" x="163.964844"/>
     <use xlink:href="#DejaVuSans-73" x="225.244141"/>
     <use xlink:href="#DejaVuSans-65" x="277.34375"/>
     <use xlink:href="#DejaVuSans-74" x="338.867188"/>
     <use xlink:href="#DejaVuSans-20" x="378.076172"/>
     <use xlink:href="#DejaVuSans-3d" x="409.863281"/>
     <use xlink:href="#DejaVuSans-20" x="493.652344"/>
     <use xlink:href="#DejaVuSans-6e" x="525.439453"/>
     <use xlink:href="#DejaVuSans-65" x="588.818359"/>
     <use xlink:href="#DejaVuSans-75" x="650.341797"/>
     <use xlink:href="#DejaVuSans-72" x="713.720703"/>
     <use xlink:href="#DejaVuSans-6f" x="752.583984"/>
     <use xlink:href="#DejaVuSans-6d" x="813.765625"/>
     <use xlink:href="#DejaVuSans-6f" x="911.177734"/>
     <use xlink:href="#DejaVuSans-64" x="972.359375"/>
    </g>
   </g>
  </g>
  <g id="axes_2">
   <g id="patch_5">
    <path d="M 423.15636 277.977187 
L 736.782996 277.977187 
L 736.782996 26.877187 
L 423.15636 26.877187 
z
" style="fill: #ffffff"/>
   </g>
   <g id="PolyCollection_3">
    <defs>
     <path id="mafb341eaf8" d="M 438.131608 -159.881226 
L 438.131608 -144.077275 
L 439.178142 -138.555019 
L 440.224676 -129.398481 
L 441.205802 -124.13413 
L 442.252336 -117.595691 
L 443.29887 -112.83262 
L 444.279996 -113.708953 
L 445.32653 -109.456243 
L 446.373064 -113.164991 
L 447.419598 -105.459623 
L 447.419598 -120.141142 
L 447.419598 -120.141142 
L 446.373064 -126.56879 
L 445.32653 -124.899672 
L 444.279996 -129.004358 
L 443.29887 -128.533046 
L 442.252336 -132.237253 
L 441.205802 -140.226861 
L 440.224676 -143.644103 
L 439.178142 -153.486269 
L 438.131608 -159.881226 
z
" style="stroke: #000000; stroke-opacity: 0.2; stroke-width: 1.5"/>
    </defs>
    <g clip-path="url(#p8ee707a9a4)">
     <use xlink:href="#mafb341eaf8" x="0" y="335.567344" style="fill-opacity: 0.2; stroke: #000000; stroke-opacity: 0.2; stroke-width: 1.5"/>
    </g>
   </g>
   <g id="PolyCollection_4">
    <defs>
     <path id="m9c75c7d0be" d="M 438.131608 -157.008853 
L 438.131608 -141.642615 
L 439.178142 -142.475358 
L 440.224676 -131.57796 
L 441.205802 -131.251946 
L 442.252336 -124.679908 
L 443.29887 -121.373456 
L 444.279996 -119.884145 
L 445.32653 -116.505043 
L 446.373064 -119.484573 
L 447.419598 -117.122563 
L 447.419598 -133.108136 
L 447.419598 -133.108136 
L 446.373064 -134.561123 
L 445.32653 -131.074864 
L 444.279996 -135.143225 
L 443.29887 -135.870627 
L 442.252336 -141.026004 
L 441.205802 -146.153229 
L 440.224676 -147.247509 
L 439.178142 -158.430055 
L 438.131608 -157.008853 
z
" style="stroke: #000000; stroke-opacity: 0.2; stroke-width: 1.5"/>
    </defs>
    <g clip-path="url(#p8ee707a9a4)">
     <use xlink:href="#m9c75c7d0be" x="0" y="335.567344" style="fill-opacity: 0.2; stroke: #000000; stroke-opacity: 0.2; stroke-width: 1.5"/>
    </g>
   </g>
   <g id="matplotlib.axis_3">
    <g id="xtick_6">
     <g id="line2d_16">
      <g>
       <use xlink:href="#mb07097e340" x="437.150483" y="277.977187" style="stroke: #000000; stroke-width: 1.875"/>
      </g>
     </g>
     <g id="text_15">
      <!-- 0 -->
      <g transform="translate(431.90142 303.014609) scale(0.165 -0.165)">
       <use xlink:href="#DejaVuSans-30"/>
      </g>
     </g>
    </g>
    <g id="xtick_7">
     <g id="line2d_17">
      <g>
       <use xlink:href="#mb07097e340" x="502.558862" y="277.977187" style="stroke: #000000; stroke-width: 1.875"/>
      </g>
     </g>
     <g id="text_16">
      <!-- 1000 -->
      <g transform="translate(481.562612 303.014609) scale(0.165 -0.165)">
       <use xlink:href="#DejaVuSans-31"/>
       <use xlink:href="#DejaVuSans-30" x="63.623047"/>
       <use xlink:href="#DejaVuSans-30" x="127.246094"/>
       <use xlink:href="#DejaVuSans-30" x="190.869141"/>
      </g>
     </g>
    </g>
    <g id="xtick_8">
     <g id="line2d_18">
      <g>
       <use xlink:href="#mb07097e340" x="567.967241" y="277.977187" style="stroke: #000000; stroke-width: 1.875"/>
      </g>
     </g>
     <g id="text_17">
      <!-- 2000 -->
      <g transform="translate(546.970991 303.014609) scale(0.165 -0.165)">
       <use xlink:href="#DejaVuSans-32"/>
       <use xlink:href="#DejaVuSans-30" x="63.623047"/>
       <use xlink:href="#DejaVuSans-30" x="127.246094"/>
       <use xlink:href="#DejaVuSans-30" x="190.869141"/>
      </g>
     </g>
    </g>
    <g id="xtick_9">
     <g id="line2d_19">
      <g>
       <use xlink:href="#mb07097e340" x="633.37562" y="277.977187" style="stroke: #000000; stroke-width: 1.875"/>
      </g>
     </g>
     <g id="text_18">
      <!-- 3000 -->
      <g transform="translate(612.37937 303.014609) scale(0.165 -0.165)">
       <use xlink:href="#DejaVuSans-33"/>
       <use xlink:href="#DejaVuSans-30" x="63.623047"/>
       <use xlink:href="#DejaVuSans-30" x="127.246094"/>
       <use xlink:href="#DejaVuSans-30" x="190.869141"/>
      </g>
     </g>
    </g>
    <g id="xtick_10">
     <g id="line2d_20">
      <g>
       <use xlink:href="#mb07097e340" x="698.783999" y="277.977187" style="stroke: #000000; stroke-width: 1.875"/>
      </g>
     </g>
     <g id="text_19">
      <!-- 4000 -->
      <g transform="translate(677.787749 303.014609) scale(0.165 -0.165)">
       <use xlink:href="#DejaVuSans-34"/>
       <use xlink:href="#DejaVuSans-30" x="63.623047"/>
       <use xlink:href="#DejaVuSans-30" x="127.246094"/>
       <use xlink:href="#DejaVuSans-30" x="190.869141"/>
      </g>
     </g>
    </g>
    <g id="text_20">
     <!-- n_samples -->
     <g transform="translate(532.355459 324.123281) scale(0.18 -0.18)">
      <use xlink:href="#DejaVuSans-6e"/>
      <use xlink:href="#DejaVuSans-5f" x="63.378906"/>
      <use xlink:href="#DejaVuSans-73" x="113.378906"/>
      <use xlink:href="#DejaVuSans-61" x="165.478516"/>
      <use xlink:href="#DejaVuSans-6d" x="226.757812"/>
      <use xlink:href="#DejaVuSans-70" x="324.169922"/>
      <use xlink:href="#DejaVuSans-6c" x="387.646484"/>
      <use xlink:href="#DejaVuSans-65" x="415.429688"/>
      <use xlink:href="#DejaVuSans-73" x="476.953125"/>
     </g>
    </g>
   </g>
   <g id="matplotlib.axis_4">
    <g id="ytick_7">
     <g id="line2d_21">
      <g>
       <use xlink:href="#m6cfef44f96" x="423.15636" y="263.049645" style="stroke: #000000; stroke-width: 1.875"/>
      </g>
     </g>
    </g>
    <g id="ytick_8">
     <g id="line2d_22">
      <g>
       <use xlink:href="#m6cfef44f96" x="423.15636" y="219.460055" style="stroke: #000000; stroke-width: 1.875"/>
      </g>
     </g>
    </g>
    <g id="ytick_9">
     <g id="line2d_23">
      <g>
       <use xlink:href="#m6cfef44f96" x="423.15636" y="175.870466" style="stroke: #000000; stroke-width: 1.875"/>
      </g>
     </g>
    </g>
    <g id="ytick_10">
     <g id="line2d_24">
      <g>
       <use xlink:href="#m6cfef44f96" x="423.15636" y="132.280876" style="stroke: #000000; stroke-width: 1.875"/>
      </g>
     </g>
    </g>
    <g id="ytick_11">
     <g id="line2d_25">
      <g>
       <use xlink:href="#m6cfef44f96" x="423.15636" y="88.691287" style="stroke: #000000; stroke-width: 1.875"/>
      </g>
     </g>
    </g>
    <g id="ytick_12">
     <g id="line2d_26">
      <g>
       <use xlink:href="#m6cfef44f96" x="423.15636" y="45.101697" style="stroke: #000000; stroke-width: 1.875"/>
      </g>
     </g>
    </g>
   </g>
   <g id="line2d_27">
    <path d="M 438.131608 183.898215 
L 439.178142 189.964433 
L 440.224676 199.081922 
L 441.205802 203.004985 
L 442.252336 210.960085 
L 443.29887 215.064772 
L 444.279996 214.19298 
L 445.32653 218.806212 
L 446.373064 215.75494 
L 447.419598 223.128846 
" clip-path="url(#p8ee707a9a4)" style="fill: none; stroke: #000000; stroke-width: 2.25; stroke-linecap: square"/>
   </g>
   <g id="line2d_28">
    <path d="M 438.131608 185.968721 
L 439.178142 184.987955 
L 440.224676 195.921677 
L 441.205802 196.72082 
L 442.252336 202.205843 
L 443.29887 207.291295 
L 444.279996 208.126762 
L 445.32653 211.940851 
L 446.373064 208.417359 
L 447.419598 210.596839 
" clip-path="url(#p8ee707a9a4)" style="fill: none; stroke-dasharray: 9,3.375; stroke-dashoffset: 0; stroke: #000000; stroke-width: 2.25"/>
   </g>
   <g id="patch_6">
    <path d="M 423.15636 277.977187 
L 423.15636 26.877187 
" style="fill: none; stroke: #000000; stroke-width: 1.875; stroke-linejoin: miter; stroke-linecap: square"/>
   </g>
   <g id="patch_7">
    <path d="M 423.15636 277.977187 
L 736.782996 277.977187 
" style="fill: none; stroke: #000000; stroke-width: 1.875; stroke-linejoin: miter; stroke-linecap: square"/>
   </g>
   <g id="text_21">
    <!-- dataset = forrest -->
    <g transform="translate(503.210928 20.877187) scale(0.18 -0.18)">
     <defs>
      <path id="DejaVuSans-66" d="M 2375 4863 
L 2375 4384 
L 1825 4384 
Q 1516 4384 1395 4259 
Q 1275 4134 1275 3809 
L 1275 3500 
L 2222 3500 
L 2222 3053 
L 1275 3053 
L 1275 0 
L 697 0 
L 697 3053 
L 147 3053 
L 147 3500 
L 697 3500 
L 697 3744 
Q 697 4328 969 4595 
Q 1241 4863 1831 4863 
L 2375 4863 
z
" transform="scale(0.015625)"/>
     </defs>
     <use xlink:href="#DejaVuSans-64"/>
     <use xlink:href="#DejaVuSans-61" x="63.476562"/>
     <use xlink:href="#DejaVuSans-74" x="124.755859"/>
     <use xlink:href="#DejaVuSans-61" x="163.964844"/>
     <use xlink:href="#DejaVuSans-73" x="225.244141"/>
     <use xlink:href="#DejaVuSans-65" x="277.34375"/>
     <use xlink:href="#DejaVuSans-74" x="338.867188"/>
     <use xlink:href="#DejaVuSans-20" x="378.076172"/>
     <use xlink:href="#DejaVuSans-3d" x="409.863281"/>
     <use xlink:href="#DejaVuSans-20" x="493.652344"/>
     <use xlink:href="#DejaVuSans-66" x="525.439453"/>
     <use xlink:href="#DejaVuSans-6f" x="560.644531"/>
     <use xlink:href="#DejaVuSans-72" x="621.826172"/>
     <use xlink:href="#DejaVuSans-72" x="661.189453"/>
     <use xlink:href="#DejaVuSans-65" x="700.052734"/>
     <use xlink:href="#DejaVuSans-73" x="761.576172"/>
     <use xlink:href="#DejaVuSans-74" x="813.675781"/>
    </g>
   </g>
  </g>
  <g id="axes_3">
   <g id="patch_8">
    <path d="M 765.125454 277.977187 
L 1078.752091 277.977187 
L 1078.752091 26.877187 
L 765.125454 26.877187 
z
" style="fill: #ffffff"/>
   </g>
   <g id="PolyCollection_5">
    <defs>
     <path id="m8b6d9a81b0" d="M 781.01642 -134.758487 
L 781.01642 -116.428156 
L 782.978671 -109.02398 
L 784.940923 -104.825959 
L 786.903174 -106.376316 
L 788.865425 -111.786168 
L 790.762268 -105.269423 
L 792.72452 -102.202007 
L 794.686771 -96.632731 
L 796.649022 -90.433827 
L 798.611274 -100.398892 
L 798.611274 -118.469905 
L 798.611274 -118.469905 
L 796.649022 -111.184288 
L 794.686771 -115.099784 
L 792.72452 -121.193749 
L 790.762268 -127.388617 
L 788.865425 -133.043156 
L 786.903174 -127.390635 
L 784.940923 -126.44014 
L 782.978671 -128.862793 
L 781.01642 -134.758487 
z
" style="stroke: #000000; stroke-opacity: 0.2; stroke-width: 1.5"/>
    </defs>
    <g clip-path="url(#p083d92e220)">
     <use xlink:href="#m8b6d9a81b0" x="0" y="335.567344" style="fill-opacity: 0.2; stroke: #000000; stroke-opacity: 0.2; stroke-width: 1.5"/>
    </g>
   </g>
   <g id="PolyCollection_6">
    <defs>
     <path id="me9c472de03" d="M 781.01642 -118.633366 
L 781.01642 -97.616019 
L 782.978671 -84.703612 
L 784.940923 -88.034886 
L 786.903174 -93.843805 
L 788.865425 -86.441142 
L 790.762268 -87.265005 
L 792.72452 -80.79064 
L 794.686771 -81.033813 
L 796.649022 -69.003793 
L 798.611274 -70.237317 
L 798.611274 -93.587009 
L 798.611274 -93.587009 
L 796.649022 -95.181258 
L 794.686771 -102.991564 
L 792.72452 -99.947356 
L 790.762268 -105.271946 
L 788.865425 -107.572003 
L 786.903174 -113.302218 
L 784.940923 -107.511462 
L 782.978671 -103.841662 
L 781.01642 -118.633366 
z
" style="stroke: #000000; stroke-opacity: 0.2; stroke-width: 1.5"/>
    </defs>
    <g clip-path="url(#p083d92e220)">
     <use xlink:href="#me9c472de03" x="0" y="335.567344" style="fill-opacity: 0.2; stroke: #000000; stroke-opacity: 0.2; stroke-width: 1.5"/>
    </g>
   </g>
   <g id="matplotlib.axis_5">
    <g id="xtick_11">
     <g id="line2d_29">
      <g>
       <use xlink:href="#mb07097e340" x="779.119577" y="277.977187" style="stroke: #000000; stroke-width: 1.875"/>
      </g>
     </g>
     <g id="text_22">
      <!-- 0 -->
      <g transform="translate(773.870514 303.014609) scale(0.165 -0.165)">
       <use xlink:href="#DejaVuSans-30"/>
      </g>
     </g>
    </g>
    <g id="xtick_12">
     <g id="line2d_30">
      <g>
       <use xlink:href="#mb07097e340" x="844.527956" y="277.977187" style="stroke: #000000; stroke-width: 1.875"/>
      </g>
     </g>
     <g id="text_23">
      <!-- 1000 -->
      <g transform="translate(823.531706 303.014609) scale(0.165 -0.165)">
       <use xlink:href="#DejaVuSans-31"/>
       <use xlink:href="#DejaVuSans-30" x="63.623047"/>
       <use xlink:href="#DejaVuSans-30" x="127.246094"/>
       <use xlink:href="#DejaVuSans-30" x="190.869141"/>
      </g>
     </g>
    </g>
    <g id="xtick_13">
     <g id="line2d_31">
      <g>
       <use xlink:href="#mb07097e340" x="909.936335" y="277.977187" style="stroke: #000000; stroke-width: 1.875"/>
      </g>
     </g>
     <g id="text_24">
      <!-- 2000 -->
      <g transform="translate(888.940085 303.014609) scale(0.165 -0.165)">
       <use xlink:href="#DejaVuSans-32"/>
       <use xlink:href="#DejaVuSans-30" x="63.623047"/>
       <use xlink:href="#DejaVuSans-30" x="127.246094"/>
       <use xlink:href="#DejaVuSans-30" x="190.869141"/>
      </g>
     </g>
    </g>
    <g id="xtick_14">
     <g id="line2d_32">
      <g>
       <use xlink:href="#mb07097e340" x="975.344714" y="277.977187" style="stroke: #000000; stroke-width: 1.875"/>
      </g>
     </g>
     <g id="text_25">
      <!-- 3000 -->
      <g transform="translate(954.348464 303.014609) scale(0.165 -0.165)">
       <use xlink:href="#DejaVuSans-33"/>
       <use xlink:href="#DejaVuSans-30" x="63.623047"/>
       <use xlink:href="#DejaVuSans-30" x="127.246094"/>
       <use xlink:href="#DejaVuSans-30" x="190.869141"/>
      </g>
     </g>
    </g>
    <g id="xtick_15">
     <g id="line2d_33">
      <g>
       <use xlink:href="#mb07097e340" x="1040.753093" y="277.977187" style="stroke: #000000; stroke-width: 1.875"/>
      </g>
     </g>
     <g id="text_26">
      <!-- 4000 -->
      <g transform="translate(1019.756843 303.014609) scale(0.165 -0.165)">
       <use xlink:href="#DejaVuSans-34"/>
       <use xlink:href="#DejaVuSans-30" x="63.623047"/>
       <use xlink:href="#DejaVuSans-30" x="127.246094"/>
       <use xlink:href="#DejaVuSans-30" x="190.869141"/>
      </g>
     </g>
    </g>
    <g id="text_27">
     <!-- n_samples -->
     <g transform="translate(874.324554 324.123281) scale(0.18 -0.18)">
      <use xlink:href="#DejaVuSans-6e"/>
      <use xlink:href="#DejaVuSans-5f" x="63.378906"/>
      <use xlink:href="#DejaVuSans-73" x="113.378906"/>
      <use xlink:href="#DejaVuSans-61" x="165.478516"/>
      <use xlink:href="#DejaVuSans-6d" x="226.757812"/>
      <use xlink:href="#DejaVuSans-70" x="324.169922"/>
      <use xlink:href="#DejaVuSans-6c" x="387.646484"/>
      <use xlink:href="#DejaVuSans-65" x="415.429688"/>
      <use xlink:href="#DejaVuSans-73" x="476.953125"/>
     </g>
    </g>
   </g>
   <g id="matplotlib.axis_6">
    <g id="ytick_13">
     <g id="line2d_34">
      <g>
       <use xlink:href="#m6cfef44f96" x="765.125454" y="263.049645" style="stroke: #000000; stroke-width: 1.875"/>
      </g>
     </g>
    </g>
    <g id="ytick_14">
     <g id="line2d_35">
      <g>
       <use xlink:href="#m6cfef44f96" x="765.125454" y="219.460055" style="stroke: #000000; stroke-width: 1.875"/>
      </g>
     </g>
    </g>
    <g id="ytick_15">
     <g id="line2d_36">
      <g>
       <use xlink:href="#m6cfef44f96" x="765.125454" y="175.870466" style="stroke: #000000; stroke-width: 1.875"/>
      </g>
     </g>
    </g>
    <g id="ytick_16">
     <g id="line2d_37">
      <g>
       <use xlink:href="#m6cfef44f96" x="765.125454" y="132.280876" style="stroke: #000000; stroke-width: 1.875"/>
      </g>
     </g>
    </g>
    <g id="ytick_17">
     <g id="line2d_38">
      <g>
       <use xlink:href="#m6cfef44f96" x="765.125454" y="88.691287" style="stroke: #000000; stroke-width: 1.875"/>
      </g>
     </g>
    </g>
    <g id="ytick_18">
     <g id="line2d_39">
      <g>
       <use xlink:href="#m6cfef44f96" x="765.125454" y="45.101697" style="stroke: #000000; stroke-width: 1.875"/>
      </g>
     </g>
    </g>
   </g>
   <g id="line2d_40">
    <path d="M 781.01642 209.107528 
L 782.978671 217.300756 
L 784.940923 220.24709 
L 786.903174 218.551939 
L 788.865425 213.567389 
L 790.762268 218.874825 
L 792.72452 224.262982 
L 794.686771 229.873124 
L 796.649022 235.463085 
L 798.611274 226.079215 
" clip-path="url(#p083d92e220)" style="fill: none; stroke: #000000; stroke-width: 2.25; stroke-linecap: square"/>
   </g>
   <g id="line2d_41">
    <path d="M 781.01642 227.814727 
L 782.978671 241.23467 
L 784.940923 237.501302 
L 786.903174 231.971882 
L 788.865425 239.05519 
L 790.762268 239.620241 
L 792.72452 245.12948 
L 794.686771 243.676494 
L 796.649022 253.181446 
L 798.611274 253.988661 
" clip-path="url(#p083d92e220)" style="fill: none; stroke-dasharray: 9,3.375; stroke-dashoffset: 0; stroke: #000000; stroke-width: 2.25"/>
   </g>
   <g id="patch_9">
    <path d="M 765.125454 277.977187 
L 765.125454 26.877187 
" style="fill: none; stroke: #000000; stroke-width: 1.875; stroke-linejoin: miter; stroke-linecap: square"/>
   </g>
   <g id="patch_10">
    <path d="M 765.125454 277.977187 
L 1078.752091 277.977187 
" style="fill: none; stroke: #000000; stroke-width: 1.875; stroke-linejoin: miter; stroke-linecap: square"/>
   </g>
   <g id="text_28">
    <!-- dataset = bold5000 -->
    <g transform="translate(832.310022 20.877187) scale(0.18 -0.18)">
     <defs>
      <path id="DejaVuSans-62" d="M 3116 1747 
Q 3116 2381 2855 2742 
Q 2594 3103 2138 3103 
Q 1681 3103 1420 2742 
Q 1159 2381 1159 1747 
Q 1159 1113 1420 752 
Q 1681 391 2138 391 
Q 2594 391 2855 752 
Q 3116 1113 3116 1747 
z
M 1159 2969 
Q 1341 3281 1617 3432 
Q 1894 3584 2278 3584 
Q 2916 3584 3314 3078 
Q 3713 2572 3713 1747 
Q 3713 922 3314 415 
Q 2916 -91 2278 -91 
Q 1894 -91 1617 61 
Q 1341 213 1159 525 
L 1159 0 
L 581 0 
L 581 4863 
L 1159 4863 
L 1159 2969 
z
" transform="scale(0.015625)"/>
      <path id="DejaVuSans-35" d="M 691 4666 
L 3169 4666 
L 3169 4134 
L 1269 4134 
L 1269 2991 
Q 1406 3038 1543 3061 
Q 1681 3084 1819 3084 
Q 2600 3084 3056 2656 
Q 3513 2228 3513 1497 
Q 3513 744 3044 326 
Q 2575 -91 1722 -91 
Q 1428 -91 1123 -41 
Q 819 9 494 109 
L 494 744 
Q 775 591 1075 516 
Q 1375 441 1709 441 
Q 2250 441 2565 725 
Q 2881 1009 2881 1497 
Q 2881 1984 2565 2268 
Q 2250 2553 1709 2553 
Q 1456 2553 1204 2497 
Q 953 2441 691 2322 
L 691 4666 
z
" transform="scale(0.015625)"/>
     </defs>
     <use xlink:href="#DejaVuSans-64"/>
     <use xlink:href="#DejaVuSans-61" x="63.476562"/>
     <use xlink:href="#DejaVuSans-74" x="124.755859"/>
     <use xlink:href="#DejaVuSans-61" x="163.964844"/>
     <use xlink:href="#DejaVuSans-73" x="225.244141"/>
     <use xlink:href="#DejaVuSans-65" x="277.34375"/>
     <use xlink:href="#DejaVuSans-74" x="338.867188"/>
     <use xlink:href="#DejaVuSans-20" x="378.076172"/>
     <use xlink:href="#DejaVuSans-3d" x="409.863281"/>
     <use xlink:href="#DejaVuSans-20" x="493.652344"/>
     <use xlink:href="#DejaVuSans-62" x="525.439453"/>
     <use xlink:href="#DejaVuSans-6f" x="588.916016"/>
     <use xlink:href="#DejaVuSans-6c" x="650.097656"/>
     <use xlink:href="#DejaVuSans-64" x="677.880859"/>
     <use xlink:href="#DejaVuSans-35" x="741.357422"/>
     <use xlink:href="#DejaVuSans-30" x="804.980469"/>
     <use xlink:href="#DejaVuSans-30" x="868.603516"/>
     <use xlink:href="#DejaVuSans-30" x="932.226562"/>
    </g>
   </g>
  </g>
  <g id="axes_4">
   <g id="patch_11">
    <path d="M 1107.094548 277.977187 
L 1420.721185 277.977187 
L 1420.721185 26.877187 
L 1107.094548 26.877187 
z
" style="fill: #ffffff"/>
   </g>
   <g id="PolyCollection_7">
    <defs>
     <path id="mdbd3a4e08f" d="M 1123.181739 -177.672927 
L 1123.181739 -168.122569 
L 1125.274807 -154.661489 
L 1127.433284 -141.347104 
L 1129.526352 -134.223047 
L 1131.684829 -132.54536 
L 1133.777897 -129.844296 
L 1135.870965 -125.743801 
L 1138.029441 -126.399275 
L 1140.122509 -124.302457 
L 1142.280986 -121.323137 
L 1142.280986 -130.82576 
L 1142.280986 -130.82576 
L 1140.122509 -133.897057 
L 1138.029441 -135.574744 
L 1135.870965 -135.107879 
L 1133.777897 -139.625176 
L 1131.684829 -142.373974 
L 1129.526352 -144.751377 
L 1127.433284 -150.708854 
L 1125.274807 -163.424812 
L 1123.181739 -177.672927 
z
" style="stroke: #000000; stroke-opacity: 0.2; stroke-width: 1.5"/>
    </defs>
    <g clip-path="url(#p9a3b0e55d2)">
     <use xlink:href="#mdbd3a4e08f" x="0" y="335.567344" style="fill-opacity: 0.2; stroke: #000000; stroke-opacity: 0.2; stroke-width: 1.5"/>
    </g>
   </g>
   <g id="PolyCollection_8">
    <defs>
     <path id="m9cc260cc93" d="M 1123.181739 -170.68858 
L 1123.181739 -161.606251 
L 1125.274807 -146.235798 
L 1127.433284 -140.043142 
L 1129.526352 -137.714639 
L 1131.684829 -132.963327 
L 1133.777897 -128.401788 
L 1135.870965 -130.823432 
L 1138.029441 -127.470386 
L 1140.122509 -127.330676 
L 1142.280986 -127.051256 
L 1142.280986 -136.64702 
L 1142.280986 -136.64702 
L 1140.122509 -137.158126 
L 1138.029441 -136.878706 
L 1135.870965 -140.093205 
L 1133.777897 -137.436382 
L 1131.684829 -142.698801 
L 1129.526352 -147.682963 
L 1127.433284 -149.404891 
L 1125.274807 -156.438137 
L 1123.181739 -170.68858 
z
" style="stroke: #000000; stroke-opacity: 0.2; stroke-width: 1.5"/>
    </defs>
    <g clip-path="url(#p9a3b0e55d2)">
     <use xlink:href="#m9cc260cc93" x="0" y="335.567344" style="fill-opacity: 0.2; stroke: #000000; stroke-opacity: 0.2; stroke-width: 1.5"/>
    </g>
   </g>
   <g id="matplotlib.axis_7">
    <g id="xtick_16">
     <g id="line2d_42">
      <g>
       <use xlink:href="#mb07097e340" x="1121.088671" y="277.977187" style="stroke: #000000; stroke-width: 1.875"/>
      </g>
     </g>
     <g id="text_29">
      <!-- 0 -->
      <g transform="translate(1115.839609 303.014609) scale(0.165 -0.165)">
       <use xlink:href="#DejaVuSans-30"/>
      </g>
     </g>
    </g>
    <g id="xtick_17">
     <g id="line2d_43">
      <g>
       <use xlink:href="#mb07097e340" x="1186.49705" y="277.977187" style="stroke: #000000; stroke-width: 1.875"/>
      </g>
     </g>
     <g id="text_30">
      <!-- 1000 -->
      <g transform="translate(1165.5008 303.014609) scale(0.165 -0.165)">
       <use xlink:href="#DejaVuSans-31"/>
       <use xlink:href="#DejaVuSans-30" x="63.623047"/>
       <use xlink:href="#DejaVuSans-30" x="127.246094"/>
       <use xlink:href="#DejaVuSans-30" x="190.869141"/>
      </g>
     </g>
    </g>
    <g id="xtick_18">
     <g id="line2d_44">
      <g>
       <use xlink:href="#mb07097e340" x="1251.905429" y="277.977187" style="stroke: #000000; stroke-width: 1.875"/>
      </g>
     </g>
     <g id="text_31">
      <!-- 2000 -->
      <g transform="translate(1230.909179 303.014609) scale(0.165 -0.165)">
       <use xlink:href="#DejaVuSans-32"/>
       <use xlink:href="#DejaVuSans-30" x="63.623047"/>
       <use xlink:href="#DejaVuSans-30" x="127.246094"/>
       <use xlink:href="#DejaVuSans-30" x="190.869141"/>
      </g>
     </g>
    </g>
    <g id="xtick_19">
     <g id="line2d_45">
      <g>
       <use xlink:href="#mb07097e340" x="1317.313808" y="277.977187" style="stroke: #000000; stroke-width: 1.875"/>
      </g>
     </g>
     <g id="text_32">
      <!-- 3000 -->
      <g transform="translate(1296.317558 303.014609) scale(0.165 -0.165)">
       <use xlink:href="#DejaVuSans-33"/>
       <use xlink:href="#DejaVuSans-30" x="63.623047"/>
       <use xlink:href="#DejaVuSans-30" x="127.246094"/>
       <use xlink:href="#DejaVuSans-30" x="190.869141"/>
      </g>
     </g>
    </g>
    <g id="xtick_20">
     <g id="line2d_46">
      <g>
       <use xlink:href="#mb07097e340" x="1382.722187" y="277.977187" style="stroke: #000000; stroke-width: 1.875"/>
      </g>
     </g>
     <g id="text_33">
      <!-- 4000 -->
      <g transform="translate(1361.725937 303.014609) scale(0.165 -0.165)">
       <use xlink:href="#DejaVuSans-34"/>
       <use xlink:href="#DejaVuSans-30" x="63.623047"/>
       <use xlink:href="#DejaVuSans-30" x="127.246094"/>
       <use xlink:href="#DejaVuSans-30" x="190.869141"/>
      </g>
     </g>
    </g>
    <g id="text_34">
     <!-- n_samples -->
     <g transform="translate(1216.293648 324.123281) scale(0.18 -0.18)">
      <use xlink:href="#DejaVuSans-6e"/>
      <use xlink:href="#DejaVuSans-5f" x="63.378906"/>
      <use xlink:href="#DejaVuSans-73" x="113.378906"/>
      <use xlink:href="#DejaVuSans-61" x="165.478516"/>
      <use xlink:href="#DejaVuSans-6d" x="226.757812"/>
      <use xlink:href="#DejaVuSans-70" x="324.169922"/>
      <use xlink:href="#DejaVuSans-6c" x="387.646484"/>
      <use xlink:href="#DejaVuSans-65" x="415.429688"/>
      <use xlink:href="#DejaVuSans-73" x="476.953125"/>
     </g>
    </g>
   </g>
   <g id="matplotlib.axis_8">
    <g id="ytick_19">
     <g id="line2d_47">
      <g>
       <use xlink:href="#m6cfef44f96" x="1107.094548" y="263.049645" style="stroke: #000000; stroke-width: 1.875"/>
      </g>
     </g>
    </g>
    <g id="ytick_20">
     <g id="line2d_48">
      <g>
       <use xlink:href="#m6cfef44f96" x="1107.094548" y="219.460055" style="stroke: #000000; stroke-width: 1.875"/>
      </g>
     </g>
    </g>
    <g id="ytick_21">
     <g id="line2d_49">
      <g>
       <use xlink:href="#m6cfef44f96" x="1107.094548" y="175.870466" style="stroke: #000000; stroke-width: 1.875"/>
      </g>
     </g>
    </g>
    <g id="ytick_22">
     <g id="line2d_50">
      <g>
       <use xlink:href="#m6cfef44f96" x="1107.094548" y="132.280876" style="stroke: #000000; stroke-width: 1.875"/>
      </g>
     </g>
    </g>
    <g id="ytick_23">
     <g id="line2d_51">
      <g>
       <use xlink:href="#m6cfef44f96" x="1107.094548" y="88.691287" style="stroke: #000000; stroke-width: 1.875"/>
      </g>
     </g>
    </g>
    <g id="ytick_24">
     <g id="line2d_52">
      <g>
       <use xlink:href="#m6cfef44f96" x="1107.094548" y="45.101697" style="stroke: #000000; stroke-width: 1.875"/>
      </g>
     </g>
    </g>
   </g>
   <g id="line2d_53">
    <path d="M 1123.181739 162.597995 
L 1125.274807 176.429307 
L 1127.433284 189.515498 
L 1129.526352 196.081878 
L 1131.684829 198.084391 
L 1133.777897 200.552605 
L 1135.870965 205.163043 
L 1138.029441 204.650772 
L 1140.122509 206.373865 
L 1142.280986 209.5872 
" clip-path="url(#p9a3b0e55d2)" style="fill: none; stroke: #000000; stroke-width: 2.25; stroke-linecap: square"/>
   </g>
   <g id="line2d_54">
    <path d="M 1123.181739 169.583506 
L 1125.274807 184.346219 
L 1127.433284 190.446899 
L 1129.526352 193.008253 
L 1131.684829 197.47898 
L 1133.777897 202.741399 
L 1135.870965 200.133475 
L 1138.029441 203.34681 
L 1140.122509 203.113959 
L 1142.280986 203.71937 
" clip-path="url(#p9a3b0e55d2)" style="fill: none; stroke-dasharray: 9,3.375; stroke-dashoffset: 0; stroke: #000000; stroke-width: 2.25"/>
   </g>
   <g id="patch_12">
    <path d="M 1107.094548 277.977187 
L 1107.094548 26.877187 
" style="fill: none; stroke: #000000; stroke-width: 1.875; stroke-linejoin: miter; stroke-linecap: square"/>
   </g>
   <g id="patch_13">
    <path d="M 1107.094548 277.977187 
L 1420.721185 277.977187 
" style="fill: none; stroke: #000000; stroke-width: 1.875; stroke-linejoin: miter; stroke-linecap: square"/>
   </g>
   <g id="text_35">
    <!-- dataset = rsvp -->
    <g transform="translate(1197.189742 20.877187) scale(0.18 -0.18)">
     <defs>
      <path id="DejaVuSans-76" d="M 191 3500 
L 800 3500 
L 1894 563 
L 2988 3500 
L 3597 3500 
L 2284 0 
L 1503 0 
L 191 3500 
z
" transform="scale(0.015625)"/>
     </defs>
     <use xlink:href="#DejaVuSans-64"/>
     <use xlink:href="#DejaVuSans-61" x="63.476562"/>
     <use xlink:href="#DejaVuSans-74" x="124.755859"/>
     <use xlink:href="#DejaVuSans-61" x="163.964844"/>
     <use xlink:href="#DejaVuSans-73" x="225.244141"/>
     <use xlink:href="#DejaVuSans-65" x="277.34375"/>
     <use xlink:href="#DejaVuSans-74" x="338.867188"/>
     <use xlink:href="#DejaVuSans-20" x="378.076172"/>
     <use xlink:href="#DejaVuSans-3d" x="409.863281"/>
     <use xlink:href="#DejaVuSans-20" x="493.652344"/>
     <use xlink:href="#DejaVuSans-72" x="525.439453"/>
     <use xlink:href="#DejaVuSans-73" x="566.552734"/>
     <use xlink:href="#DejaVuSans-76" x="618.652344"/>
     <use xlink:href="#DejaVuSans-70" x="677.832031"/>
    </g>
   </g>
  </g>
  <g id="axes_5">
   <g id="patch_14">
    <path d="M 1449.063643 277.977187 
L 1762.690279 277.977187 
L 1762.690279 26.877187 
L 1449.063643 26.877187 
z
" style="fill: #ffffff"/>
   </g>
   <g id="PolyCollection_9">
    <defs>
     <path id="m7a82544c95" d="M 1491.575819 -110.727516 
L 1491.575819 -106.802227 
L 1520.093872 -104.030557 
L 1548.611925 -100.86305 
L 1577.195387 -101.160868 
L 1605.71344 -97.956667 
L 1634.231493 -98.118187 
L 1662.814955 -97.339169 
L 1691.333008 -98.818203 
L 1719.851061 -95.468006 
L 1748.434523 -96.776083 
L 1748.434523 -101.023426 
L 1748.434523 -101.023426 
L 1719.851061 -99.400479 
L 1691.333008 -103.186558 
L 1662.814955 -101.707684 
L 1634.231493 -102.340434 
L 1605.71344 -101.920768 
L 1577.195387 -105.053871 
L 1548.611925 -104.810393 
L 1520.093872 -107.820906 
L 1491.575819 -110.727516 
z
" style="stroke: #000000; stroke-opacity: 0.2; stroke-width: 1.5"/>
    </defs>
    <g clip-path="url(#p99a6b631bf)">
     <use xlink:href="#m7a82544c95" x="0" y="335.567344" style="fill-opacity: 0.2; stroke: #000000; stroke-opacity: 0.2; stroke-width: 1.5"/>
    </g>
   </g>
   <g id="matplotlib.axis_9">
    <g id="xtick_21">
     <g id="line2d_55">
      <g>
       <use xlink:href="#mb07097e340" x="1463.057765" y="277.977187" style="stroke: #000000; stroke-width: 1.875"/>
      </g>
     </g>
     <g id="text_36">
      <!-- 0 -->
      <g transform="translate(1457.808703 303.014609) scale(0.165 -0.165)">
       <use xlink:href="#DejaVuSans-30"/>
      </g>
     </g>
    </g>
    <g id="xtick_22">
     <g id="line2d_56">
      <g>
       <use xlink:href="#mb07097e340" x="1528.466144" y="277.977187" style="stroke: #000000; stroke-width: 1.875"/>
      </g>
     </g>
     <g id="text_37">
      <!-- 1000 -->
      <g transform="translate(1507.469894 303.014609) scale(0.165 -0.165)">
       <use xlink:href="#DejaVuSans-31"/>
       <use xlink:href="#DejaVuSans-30" x="63.623047"/>
       <use xlink:href="#DejaVuSans-30" x="127.246094"/>
       <use xlink:href="#DejaVuSans-30" x="190.869141"/>
      </g>
     </g>
    </g>
    <g id="xtick_23">
     <g id="line2d_57">
      <g>
       <use xlink:href="#mb07097e340" x="1593.874523" y="277.977187" style="stroke: #000000; stroke-width: 1.875"/>
      </g>
     </g>
     <g id="text_38">
      <!-- 2000 -->
      <g transform="translate(1572.878273 303.014609) scale(0.165 -0.165)">
       <use xlink:href="#DejaVuSans-32"/>
       <use xlink:href="#DejaVuSans-30" x="63.623047"/>
       <use xlink:href="#DejaVuSans-30" x="127.246094"/>
       <use xlink:href="#DejaVuSans-30" x="190.869141"/>
      </g>
     </g>
    </g>
    <g id="xtick_24">
     <g id="line2d_58">
      <g>
       <use xlink:href="#mb07097e340" x="1659.282902" y="277.977187" style="stroke: #000000; stroke-width: 1.875"/>
      </g>
     </g>
     <g id="text_39">
      <!-- 3000 -->
      <g transform="translate(1638.286652 303.014609) scale(0.165 -0.165)">
       <use xlink:href="#DejaVuSans-33"/>
       <use xlink:href="#DejaVuSans-30" x="63.623047"/>
       <use xlink:href="#DejaVuSans-30" x="127.246094"/>
       <use xlink:href="#DejaVuSans-30" x="190.869141"/>
      </g>
     </g>
    </g>
    <g id="xtick_25">
     <g id="line2d_59">
      <g>
       <use xlink:href="#mb07097e340" x="1724.691281" y="277.977187" style="stroke: #000000; stroke-width: 1.875"/>
      </g>
     </g>
     <g id="text_40">
      <!-- 4000 -->
      <g transform="translate(1703.695031 303.014609) scale(0.165 -0.165)">
       <use xlink:href="#DejaVuSans-34"/>
       <use xlink:href="#DejaVuSans-30" x="63.623047"/>
       <use xlink:href="#DejaVuSans-30" x="127.246094"/>
       <use xlink:href="#DejaVuSans-30" x="190.869141"/>
      </g>
     </g>
    </g>
    <g id="text_41">
     <!-- n_samples -->
     <g transform="translate(1558.262742 324.123281) scale(0.18 -0.18)">
      <use xlink:href="#DejaVuSans-6e"/>
      <use xlink:href="#DejaVuSans-5f" x="63.378906"/>
      <use xlink:href="#DejaVuSans-73" x="113.378906"/>
      <use xlink:href="#DejaVuSans-61" x="165.478516"/>
      <use xlink:href="#DejaVuSans-6d" x="226.757812"/>
      <use xlink:href="#DejaVuSans-70" x="324.169922"/>
      <use xlink:href="#DejaVuSans-6c" x="387.646484"/>
      <use xlink:href="#DejaVuSans-65" x="415.429688"/>
      <use xlink:href="#DejaVuSans-73" x="476.953125"/>
     </g>
    </g>
   </g>
   <g id="matplotlib.axis_10">
    <g id="ytick_25">
     <g id="line2d_60">
      <g>
       <use xlink:href="#m6cfef44f96" x="1449.063643" y="263.049645" style="stroke: #000000; stroke-width: 1.875"/>
      </g>
     </g>
    </g>
    <g id="ytick_26">
     <g id="line2d_61">
      <g>
       <use xlink:href="#m6cfef44f96" x="1449.063643" y="219.460055" style="stroke: #000000; stroke-width: 1.875"/>
      </g>
     </g>
    </g>
    <g id="ytick_27">
     <g id="line2d_62">
      <g>
       <use xlink:href="#m6cfef44f96" x="1449.063643" y="175.870466" style="stroke: #000000; stroke-width: 1.875"/>
      </g>
     </g>
    </g>
    <g id="ytick_28">
     <g id="line2d_63">
      <g>
       <use xlink:href="#m6cfef44f96" x="1449.063643" y="132.280876" style="stroke: #000000; stroke-width: 1.875"/>
      </g>
     </g>
    </g>
    <g id="ytick_29">
     <g id="line2d_64">
      <g>
       <use xlink:href="#m6cfef44f96" x="1449.063643" y="88.691287" style="stroke: #000000; stroke-width: 1.875"/>
      </g>
     </g>
    </g>
    <g id="ytick_30">
     <g id="line2d_65">
      <g>
       <use xlink:href="#m6cfef44f96" x="1449.063643" y="45.101697" style="stroke: #000000; stroke-width: 1.875"/>
      </g>
     </g>
    </g>
   </g>
   <g id="line2d_66">
    <path d="M 1491.575819 226.752654 
L 1520.093872 229.616479 
L 1548.611925 232.684924 
L 1577.195387 232.402468 
L 1605.71344 235.763659 
L 1634.231493 235.210465 
L 1662.814955 236.018247 
L 1691.333008 234.434426 
L 1719.851061 238.064278 
L 1748.434523 236.569087 
" clip-path="url(#p99a6b631bf)" style="fill: none; stroke-dasharray: 9,3.375; stroke-dashoffset: 0; stroke: #000000; stroke-width: 2.25"/>
   </g>
   <g id="patch_15">
    <path d="M 1449.063643 277.977187 
L 1449.063643 26.877187 
" style="fill: none; stroke: #000000; stroke-width: 1.875; stroke-linejoin: miter; stroke-linecap: square"/>
   </g>
   <g id="patch_16">
    <path d="M 1449.063643 277.977187 
L 1762.690279 277.977187 
" style="fill: none; stroke: #000000; stroke-width: 1.875; stroke-linejoin: miter; stroke-linecap: square"/>
   </g>
   <g id="text_42">
    <!-- dataset = nsd -->
    <g transform="translate(1542.481805 20.877187) scale(0.18 -0.18)">
     <use xlink:href="#DejaVuSans-64"/>
     <use xlink:href="#DejaVuSans-61" x="63.476562"/>
     <use xlink:href="#DejaVuSans-74" x="124.755859"/>
     <use xlink:href="#DejaVuSans-61" x="163.964844"/>
     <use xlink:href="#DejaVuSans-73" x="225.244141"/>
     <use xlink:href="#DejaVuSans-65" x="277.34375"/>
     <use xlink:href="#DejaVuSans-74" x="338.867188"/>
     <use xlink:href="#DejaVuSans-20" x="378.076172"/>
     <use xlink:href="#DejaVuSans-3d" x="409.863281"/>
     <use xlink:href="#DejaVuSans-20" x="493.652344"/>
     <use xlink:href="#DejaVuSans-6e" x="525.439453"/>
     <use xlink:href="#DejaVuSans-73" x="588.818359"/>
     <use xlink:href="#DejaVuSans-64" x="640.917969"/>
    </g>
   </g>
  </g>
  <g id="legend_1">
   <g id="text_43">
    <!-- feature -->
    <g transform="translate(1798.534692 148.531641) scale(0.18 -0.18)">
     <use xlink:href="#DejaVuSans-66"/>
     <use xlink:href="#DejaVuSans-65" x="35.205078"/>
     <use xlink:href="#DejaVuSans-61" x="96.728516"/>
     <use xlink:href="#DejaVuSans-74" x="158.007812"/>
     <use xlink:href="#DejaVuSans-75" x="197.216797"/>
     <use xlink:href="#DejaVuSans-72" x="260.595703"/>
     <use xlink:href="#DejaVuSans-65" x="299.458984"/>
    </g>
   </g>
   <g id="line2d_67">
    <path d="M 1779.177192 167.2875 
L 1795.677192 167.2875 
L 1812.177192 167.2875 
" style="fill: none; stroke: #000000; stroke-width: 2.25; stroke-linecap: square"/>
   </g>
   <g id="text_44">
    <!-- voxels -->
    <g transform="translate(1825.377192 173.0625) scale(0.165 -0.165)">
     <defs>
      <path id="DejaVuSans-78" d="M 3513 3500 
L 2247 1797 
L 3578 0 
L 2900 0 
L 1881 1375 
L 863 0 
L 184 0 
L 1544 1831 
L 300 3500 
L 978 3500 
L 1906 2253 
L 2834 3500 
L 3513 3500 
z
" transform="scale(0.015625)"/>
     </defs>
     <use xlink:href="#DejaVuSans-76"/>
     <use xlink:href="#DejaVuSans-6f" x="59.179688"/>
     <use xlink:href="#DejaVuSans-78" x="117.236328"/>
     <use xlink:href="#DejaVuSans-65" x="173.291016"/>
     <use xlink:href="#DejaVuSans-6c" x="234.814453"/>
     <use xlink:href="#DejaVuSans-73" x="262.597656"/>
    </g>
   </g>
   <g id="line2d_68">
    <path d="M 1779.177192 191.506406 
L 1795.677192 191.506406 
L 1812.177192 191.506406 
" style="fill: none; stroke-dasharray: 9,3.375; stroke-dashoffset: 0; stroke: #000000; stroke-width: 2.25"/>
   </g>
   <g id="text_45">
    <!-- difumo -->
    <g transform="translate(1825.377192 197.281406) scale(0.165 -0.165)">
     <use xlink:href="#DejaVuSans-64"/>
     <use xlink:href="#DejaVuSans-69" x="63.476562"/>
     <use xlink:href="#DejaVuSans-66" x="91.259766"/>
     <use xlink:href="#DejaVuSans-75" x="126.464844"/>
     <use xlink:href="#DejaVuSans-6d" x="189.84375"/>
     <use xlink:href="#DejaVuSans-6f" x="287.255859"/>
    </g>
   </g>
  </g>
 </g>
 <defs>
  <clipPath id="p88cf80eae6">
   <rect x="81.187266" y="26.877187" width="313.626636" height="251.1"/>
  </clipPath>
  <clipPath id="p8ee707a9a4">
   <rect x="423.15636" y="26.877187" width="313.626636" height="251.1"/>
  </clipPath>
  <clipPath id="p083d92e220">
   <rect x="765.125454" y="26.877187" width="313.626636" height="251.1"/>
  </clipPath>
  <clipPath id="p9a3b0e55d2">
   <rect x="1107.094548" y="26.877187" width="313.626636" height="251.1"/>
  </clipPath>
  <clipPath id="p99a6b631bf">
   <rect x="1449.063643" y="26.877187" width="313.626636" height="251.1"/>
  </clipPath>
 </defs>
</svg>
