<?xml version="1.0" encoding="utf-8" standalone="no"?>
<!DOCTYPE svg PUBLIC "-//W3C//DTD SVG 1.1//EN"
  "http://www.w3.org/Graphics/SVG/1.1/DTD/svg11.dtd">
<svg xmlns:xlink="http://www.w3.org/1999/xlink" width="1897.719379pt" height="335.567344pt" viewBox="0 0 1897.719379 335.567344" xmlns="http://www.w3.org/2000/svg" version="1.1">
 <metadata>
  <rdf:RDF xmlns:dc="http://purl.org/dc/elements/1.1/" xmlns:cc="http://creativecommons.org/ns#" xmlns:rdf="http://www.w3.org/1999/02/22-rdf-syntax-ns#">
   <cc:Work>
    <dc:type rdf:resource="http://purl.org/dc/dcmitype/StillImage"/>
    <dc:date>2024-01-31T14:11:42.445335</dc:date>
    <dc:format>image/svg+xml</dc:format>
    <dc:creator>
     <cc:Agent>
      <dc:title>Matplotlib v3.8.0, https://matplotlib.org/</dc:title>
     </cc:Agent>
    </dc:creator>
   </cc:Work>
  </rdf:RDF>
 </metadata>
 <defs>
  <style type="text/css">*{stroke-linejoin: round; stroke-linecap: butt}</style>
 </defs>
 <g id="figure_1">
  <g id="patch_1">
   <path d="M 0 335.567344 
L 1897.719379 335.567344 
L 1897.719379 0 
L 0 0 
z
" style="fill: #ffffff"/>
  </g>
  <g id="axes_1">
   <g id="patch_2">
    <path d="M 81.187266 277.977187 
L 394.813902 277.977187 
L 394.813902 26.877187 
L 81.187266 26.877187 
z
" style="fill: #ffffff"/>
   </g>
   <g id="PolyCollection_1">
    <defs>
     <path id="md25334c7c3" d="M 95.443022 -297.27652 
L 95.443022 -249.007496 
L 95.770064 -238.921431 
L 96.031697 -221.631034 
L 96.358739 -212.265403 
L 96.685781 -204.340637 
L 96.947415 -187.03223 
L 97.274456 -172.641577 
L 97.53609 -176.243743 
L 97.863132 -162.555512 
L 98.190174 -163.275945 
L 98.190174 -202.899771 
L 98.190174 -202.899771 
L 97.863132 -200.018038 
L 97.53609 -223.071901 
L 97.274456 -211.544969 
L 96.947415 -231.73511 
L 96.685781 -248.305073 
L 96.358739 -255.491394 
L 96.031697 -260.534427 
L 95.770064 -286.470022 
L 95.443022 -297.27652 
z
" style="stroke: #000000; stroke-opacity: 0.2; stroke-width: 1.5"/>
    </defs>
    <g clip-path="url(#pde1cd087ce)">
     <use xlink:href="#md25334c7c3" x="0" y="335.567344" style="fill-opacity: 0.2; stroke: #000000; stroke-opacity: 0.2; stroke-width: 1.5"/>
    </g>
   </g>
   <g id="PolyCollection_2">
    <defs>
     <path id="m83c7915a46" d="M 95.443022 -269.179625 
L 95.443022 -225.953633 
L 95.770064 -199.297605 
L 96.031697 -194.254573 
L 96.358739 -171.921144 
L 96.685781 -166.878111 
L 96.947415 -153.910314 
L 97.274456 -148.146848 
L 97.53609 -151.028581 
L 97.863132 -150.308148 
L 98.190174 -142.383382 
L 98.190174 -179.125476 
L 98.190174 -179.125476 
L 97.863132 -190.652407 
L 97.53609 -192.813706 
L 97.274456 -187.050241 
L 96.947415 -196.415872 
L 96.685781 -214.426702 
L 96.358739 -215.165146 
L 96.031697 -234.598832 
L 95.770064 -241.100741 
L 95.443022 -269.179625 
z
" style="stroke: #000000; stroke-opacity: 0.2; stroke-width: 1.5"/>
    </defs>
    <g clip-path="url(#pde1cd087ce)">
     <use xlink:href="#m83c7915a46" x="0" y="335.567344" style="fill-opacity: 0.2; stroke: #000000; stroke-opacity: 0.2; stroke-width: 1.5"/>
    </g>
   </g>
   <g id="matplotlib.axis_1">
    <g id="xtick_1">
     <g id="line2d_1">
      <defs>
       <path id="m5aac213c70" d="M 0 0 
L 0 9 
" style="stroke: #000000; stroke-width: 1.875"/>
      </defs>
      <g>
       <use xlink:href="#m5aac213c70" x="95.181388" y="277.977187" style="stroke: #000000; stroke-width: 1.875"/>
      </g>
     </g>
     <g id="text_1">
      <!-- 0 -->
      <g transform="translate(89.932326 303.014609) scale(0.165 -0.165)">
       <defs>
        <path id="DejaVuSans-30" d="M 2034 4250 
Q 1547 4250 1301 3770 
Q 1056 3291 1056 2328 
Q 1056 1369 1301 889 
Q 1547 409 2034 409 
Q 2525 409 2770 889 
Q 3016 1369 3016 2328 
Q 3016 3291 2770 3770 
Q 2525 4250 2034 4250 
z
M 2034 4750 
Q 2819 4750 3233 4129 
Q 3647 3509 3647 2328 
Q 3647 1150 3233 529 
Q 2819 -91 2034 -91 
Q 1250 -91 836 529 
Q 422 1150 422 2328 
Q 422 3509 836 4129 
Q 1250 4750 2034 4750 
z
" transform="scale(0.015625)"/>
       </defs>
       <use xlink:href="#DejaVuSans-30"/>
      </g>
     </g>
    </g>
    <g id="xtick_2">
     <g id="line2d_2">
      <g>
       <use xlink:href="#m5aac213c70" x="160.589767" y="277.977187" style="stroke: #000000; stroke-width: 1.875"/>
      </g>
     </g>
     <g id="text_2">
      <!-- 1000 -->
      <g transform="translate(139.593517 303.014609) scale(0.165 -0.165)">
       <defs>
        <path id="DejaVuSans-31" d="M 794 531 
L 1825 531 
L 1825 4091 
L 703 3866 
L 703 4441 
L 1819 4666 
L 2450 4666 
L 2450 531 
L 3481 531 
L 3481 0 
L 794 0 
L 794 531 
z
" transform="scale(0.015625)"/>
       </defs>
       <use xlink:href="#DejaVuSans-31"/>
       <use xlink:href="#DejaVuSans-30" x="63.623047"/>
       <use xlink:href="#DejaVuSans-30" x="127.246094"/>
       <use xlink:href="#DejaVuSans-30" x="190.869141"/>
      </g>
     </g>
    </g>
    <g id="xtick_3">
     <g id="line2d_3">
      <g>
       <use xlink:href="#m5aac213c70" x="225.998146" y="277.977187" style="stroke: #000000; stroke-width: 1.875"/>
      </g>
     </g>
     <g id="text_3">
      <!-- 2000 -->
      <g transform="translate(205.001896 303.014609) scale(0.165 -0.165)">
       <defs>
        <path id="DejaVuSans-32" d="M 1228 531 
L 3431 531 
L 3431 0 
L 469 0 
L 469 531 
Q 828 903 1448 1529 
Q 2069 2156 2228 2338 
Q 2531 2678 2651 2914 
Q 2772 3150 2772 3378 
Q 2772 3750 2511 3984 
Q 2250 4219 1831 4219 
Q 1534 4219 1204 4116 
Q 875 4013 500 3803 
L 500 4441 
Q 881 4594 1212 4672 
Q 1544 4750 1819 4750 
Q 2544 4750 2975 4387 
Q 3406 4025 3406 3419 
Q 3406 3131 3298 2873 
Q 3191 2616 2906 2266 
Q 2828 2175 2409 1742 
Q 1991 1309 1228 531 
z
" transform="scale(0.015625)"/>
       </defs>
       <use xlink:href="#DejaVuSans-32"/>
       <use xlink:href="#DejaVuSans-30" x="63.623047"/>
       <use xlink:href="#DejaVuSans-30" x="127.246094"/>
       <use xlink:href="#DejaVuSans-30" x="190.869141"/>
      </g>
     </g>
    </g>
    <g id="xtick_4">
     <g id="line2d_4">
      <g>
       <use xlink:href="#m5aac213c70" x="291.406525" y="277.977187" style="stroke: #000000; stroke-width: 1.875"/>
      </g>
     </g>
     <g id="text_4">
      <!-- 3000 -->
      <g transform="translate(270.410275 303.014609) scale(0.165 -0.165)">
       <defs>
        <path id="DejaVuSans-33" d="M 2597 2516 
Q 3050 2419 3304 2112 
Q 3559 1806 3559 1356 
Q 3559 666 3084 287 
Q 2609 -91 1734 -91 
Q 1441 -91 1130 -33 
Q 819 25 488 141 
L 488 750 
Q 750 597 1062 519 
Q 1375 441 1716 441 
Q 2309 441 2620 675 
Q 2931 909 2931 1356 
Q 2931 1769 2642 2001 
Q 2353 2234 1838 2234 
L 1294 2234 
L 1294 2753 
L 1863 2753 
Q 2328 2753 2575 2939 
Q 2822 3125 2822 3475 
Q 2822 3834 2567 4026 
Q 2313 4219 1838 4219 
Q 1578 4219 1281 4162 
Q 984 4106 628 3988 
L 628 4550 
Q 988 4650 1302 4700 
Q 1616 4750 1894 4750 
Q 2613 4750 3031 4423 
Q 3450 4097 3450 3541 
Q 3450 3153 3228 2886 
Q 3006 2619 2597 2516 
z
" transform="scale(0.015625)"/>
       </defs>
       <use xlink:href="#DejaVuSans-33"/>
       <use xlink:href="#DejaVuSans-30" x="63.623047"/>
       <use xlink:href="#DejaVuSans-30" x="127.246094"/>
       <use xlink:href="#DejaVuSans-30" x="190.869141"/>
      </g>
     </g>
    </g>
    <g id="xtick_5">
     <g id="line2d_5">
      <g>
       <use xlink:href="#m5aac213c70" x="356.814904" y="277.977187" style="stroke: #000000; stroke-width: 1.875"/>
      </g>
     </g>
     <g id="text_5">
      <!-- 4000 -->
      <g transform="translate(335.818654 303.014609) scale(0.165 -0.165)">
       <defs>
        <path id="DejaVuSans-34" d="M 2419 4116 
L 825 1625 
L 2419 1625 
L 2419 4116 
z
M 2253 4666 
L 3047 4666 
L 3047 1625 
L 3713 1625 
L 3713 1100 
L 3047 1100 
L 3047 0 
L 2419 0 
L 2419 1100 
L 313 1100 
L 313 1709 
L 2253 4666 
z
" transform="scale(0.015625)"/>
       </defs>
       <use xlink:href="#DejaVuSans-34"/>
       <use xlink:href="#DejaVuSans-30" x="63.623047"/>
       <use xlink:href="#DejaVuSans-30" x="127.246094"/>
       <use xlink:href="#DejaVuSans-30" x="190.869141"/>
      </g>
     </g>
    </g>
    <g id="text_6">
     <!-- n_samples -->
     <g transform="translate(190.386365 324.123281) scale(0.18 -0.18)">
      <defs>
       <path id="DejaVuSans-6e" d="M 3513 2113 
L 3513 0 
L 2938 0 
L 2938 2094 
Q 2938 2591 2744 2837 
Q 2550 3084 2163 3084 
Q 1697 3084 1428 2787 
Q 1159 2491 1159 1978 
L 1159 0 
L 581 0 
L 581 3500 
L 1159 3500 
L 1159 2956 
Q 1366 3272 1645 3428 
Q 1925 3584 2291 3584 
Q 2894 3584 3203 3211 
Q 3513 2838 3513 2113 
z
" transform="scale(0.015625)"/>
       <path id="DejaVuSans-5f" d="M 3263 -1063 
L 3263 -1509 
L -63 -1509 
L -63 -1063 
L 3263 -1063 
z
" transform="scale(0.015625)"/>
       <path id="DejaVuSans-73" d="M 2834 3397 
L 2834 2853 
Q 2591 2978 2328 3040 
Q 2066 3103 1784 3103 
Q 1356 3103 1142 2972 
Q 928 2841 928 2578 
Q 928 2378 1081 2264 
Q 1234 2150 1697 2047 
L 1894 2003 
Q 2506 1872 2764 1633 
Q 3022 1394 3022 966 
Q 3022 478 2636 193 
Q 2250 -91 1575 -91 
Q 1294 -91 989 -36 
Q 684 19 347 128 
L 347 722 
Q 666 556 975 473 
Q 1284 391 1588 391 
Q 1994 391 2212 530 
Q 2431 669 2431 922 
Q 2431 1156 2273 1281 
Q 2116 1406 1581 1522 
L 1381 1569 
Q 847 1681 609 1914 
Q 372 2147 372 2553 
Q 372 3047 722 3315 
Q 1072 3584 1716 3584 
Q 2034 3584 2315 3537 
Q 2597 3491 2834 3397 
z
" transform="scale(0.015625)"/>
       <path id="DejaVuSans-61" d="M 2194 1759 
Q 1497 1759 1228 1600 
Q 959 1441 959 1056 
Q 959 750 1161 570 
Q 1363 391 1709 391 
Q 2188 391 2477 730 
Q 2766 1069 2766 1631 
L 2766 1759 
L 2194 1759 
z
M 3341 1997 
L 3341 0 
L 2766 0 
L 2766 531 
Q 2569 213 2275 61 
Q 1981 -91 1556 -91 
Q 1019 -91 701 211 
Q 384 513 384 1019 
Q 384 1609 779 1909 
Q 1175 2209 1959 2209 
L 2766 2209 
L 2766 2266 
Q 2766 2663 2505 2880 
Q 2244 3097 1772 3097 
Q 1472 3097 1187 3025 
Q 903 2953 641 2809 
L 641 3341 
Q 956 3463 1253 3523 
Q 1550 3584 1831 3584 
Q 2591 3584 2966 3190 
Q 3341 2797 3341 1997 
z
" transform="scale(0.015625)"/>
       <path id="DejaVuSans-6d" d="M 3328 2828 
Q 3544 3216 3844 3400 
Q 4144 3584 4550 3584 
Q 5097 3584 5394 3201 
Q 5691 2819 5691 2113 
L 5691 0 
L 5113 0 
L 5113 2094 
Q 5113 2597 4934 2840 
Q 4756 3084 4391 3084 
Q 3944 3084 3684 2787 
Q 3425 2491 3425 1978 
L 3425 0 
L 2847 0 
L 2847 2094 
Q 2847 2600 2669 2842 
Q 2491 3084 2119 3084 
Q 1678 3084 1418 2786 
Q 1159 2488 1159 1978 
L 1159 0 
L 581 0 
L 581 3500 
L 1159 3500 
L 1159 2956 
Q 1356 3278 1631 3431 
Q 1906 3584 2284 3584 
Q 2666 3584 2933 3390 
Q 3200 3197 3328 2828 
z
" transform="scale(0.015625)"/>
       <path id="DejaVuSans-70" d="M 1159 525 
L 1159 -1331 
L 581 -1331 
L 581 3500 
L 1159 3500 
L 1159 2969 
Q 1341 3281 1617 3432 
Q 1894 3584 2278 3584 
Q 2916 3584 3314 3078 
Q 3713 2572 3713 1747 
Q 3713 922 3314 415 
Q 2916 -91 2278 -91 
Q 1894 -91 1617 61 
Q 1341 213 1159 525 
z
M 3116 1747 
Q 3116 2381 2855 2742 
Q 2594 3103 2138 3103 
Q 1681 3103 1420 2742 
Q 1159 2381 1159 1747 
Q 1159 1113 1420 752 
Q 1681 391 2138 391 
Q 2594 391 2855 752 
Q 3116 1113 3116 1747 
z
" transform="scale(0.015625)"/>
       <path id="DejaVuSans-6c" d="M 603 4863 
L 1178 4863 
L 1178 0 
L 603 0 
L 603 4863 
z
" transform="scale(0.015625)"/>
       <path id="DejaVuSans-65" d="M 3597 1894 
L 3597 1613 
L 953 1613 
Q 991 1019 1311 708 
Q 1631 397 2203 397 
Q 2534 397 2845 478 
Q 3156 559 3463 722 
L 3463 178 
Q 3153 47 2828 -22 
Q 2503 -91 2169 -91 
Q 1331 -91 842 396 
Q 353 884 353 1716 
Q 353 2575 817 3079 
Q 1281 3584 2069 3584 
Q 2775 3584 3186 3129 
Q 3597 2675 3597 1894 
z
M 3022 2063 
Q 3016 2534 2758 2815 
Q 2500 3097 2075 3097 
Q 1594 3097 1305 2825 
Q 1016 2553 972 2059 
L 3022 2063 
z
" transform="scale(0.015625)"/>
      </defs>
      <use xlink:href="#DejaVuSans-6e"/>
      <use xlink:href="#DejaVuSans-5f" x="63.378906"/>
      <use xlink:href="#DejaVuSans-73" x="113.378906"/>
      <use xlink:href="#DejaVuSans-61" x="165.478516"/>
      <use xlink:href="#DejaVuSans-6d" x="226.757812"/>
      <use xlink:href="#DejaVuSans-70" x="324.169922"/>
      <use xlink:href="#DejaVuSans-6c" x="387.646484"/>
      <use xlink:href="#DejaVuSans-65" x="415.429688"/>
      <use xlink:href="#DejaVuSans-73" x="476.953125"/>
     </g>
    </g>
   </g>
   <g id="matplotlib.axis_2">
    <g id="ytick_1">
     <g id="line2d_6">
      <defs>
       <path id="mdda0e8e9fe" d="M 0 0 
L -9 0 
" style="stroke: #000000; stroke-width: 1.875"/>
      </defs>
      <g>
       <use xlink:href="#mdda0e8e9fe" x="81.187266" y="260.904682" style="stroke: #000000; stroke-width: 1.875"/>
      </g>
     </g>
     <g id="text_7">
      <!-- −0.1 -->
      <g transform="translate(28.620625 267.173393) scale(0.165 -0.165)">
       <defs>
        <path id="DejaVuSans-2212" d="M 678 2272 
L 4684 2272 
L 4684 1741 
L 678 1741 
L 678 2272 
z
" transform="scale(0.015625)"/>
        <path id="DejaVuSans-2e" d="M 684 794 
L 1344 794 
L 1344 0 
L 684 0 
L 684 794 
z
" transform="scale(0.015625)"/>
       </defs>
       <use xlink:href="#DejaVuSans-2212"/>
       <use xlink:href="#DejaVuSans-30" x="83.789062"/>
       <use xlink:href="#DejaVuSans-2e" x="147.412109"/>
       <use xlink:href="#DejaVuSans-31" x="179.199219"/>
      </g>
     </g>
    </g>
    <g id="ytick_2">
     <g id="line2d_7">
      <g>
       <use xlink:href="#mdda0e8e9fe" x="81.187266" y="214.796957" style="stroke: #000000; stroke-width: 1.875"/>
      </g>
     </g>
     <g id="text_8">
      <!-- 0.0 -->
      <g transform="translate(42.447109 221.065668) scale(0.165 -0.165)">
       <use xlink:href="#DejaVuSans-30"/>
       <use xlink:href="#DejaVuSans-2e" x="63.623047"/>
       <use xlink:href="#DejaVuSans-30" x="95.410156"/>
      </g>
     </g>
    </g>
    <g id="ytick_3">
     <g id="line2d_8">
      <g>
       <use xlink:href="#mdda0e8e9fe" x="81.187266" y="168.689233" style="stroke: #000000; stroke-width: 1.875"/>
      </g>
     </g>
     <g id="text_9">
      <!-- 0.1 -->
      <g transform="translate(42.447109 174.957943) scale(0.165 -0.165)">
       <use xlink:href="#DejaVuSans-30"/>
       <use xlink:href="#DejaVuSans-2e" x="63.623047"/>
       <use xlink:href="#DejaVuSans-31" x="95.410156"/>
      </g>
     </g>
    </g>
    <g id="ytick_4">
     <g id="line2d_9">
      <g>
       <use xlink:href="#mdda0e8e9fe" x="81.187266" y="122.581508" style="stroke: #000000; stroke-width: 1.875"/>
      </g>
     </g>
     <g id="text_10">
      <!-- 0.2 -->
      <g transform="translate(42.447109 128.850219) scale(0.165 -0.165)">
       <use xlink:href="#DejaVuSans-30"/>
       <use xlink:href="#DejaVuSans-2e" x="63.623047"/>
       <use xlink:href="#DejaVuSans-32" x="95.410156"/>
      </g>
     </g>
    </g>
    <g id="ytick_5">
     <g id="line2d_10">
      <g>
       <use xlink:href="#mdda0e8e9fe" x="81.187266" y="76.473783" style="stroke: #000000; stroke-width: 1.875"/>
      </g>
     </g>
     <g id="text_11">
      <!-- 0.3 -->
      <g transform="translate(42.447109 82.742494) scale(0.165 -0.165)">
       <use xlink:href="#DejaVuSans-30"/>
       <use xlink:href="#DejaVuSans-2e" x="63.623047"/>
       <use xlink:href="#DejaVuSans-33" x="95.410156"/>
      </g>
     </g>
    </g>
    <g id="ytick_6">
     <g id="line2d_11">
      <g>
       <use xlink:href="#mdda0e8e9fe" x="81.187266" y="30.366059" style="stroke: #000000; stroke-width: 1.875"/>
      </g>
     </g>
     <g id="text_12">
      <!-- 0.4 -->
      <g transform="translate(42.447109 36.63477) scale(0.165 -0.165)">
       <use xlink:href="#DejaVuSans-30"/>
       <use xlink:href="#DejaVuSans-2e" x="63.623047"/>
       <use xlink:href="#DejaVuSans-34" x="95.410156"/>
      </g>
     </g>
    </g>
    <g id="text_13">
     <!-- gain -->
     <g transform="translate(20.877188 171.860156) rotate(-90) scale(0.18 -0.18)">
      <defs>
       <path id="DejaVuSans-67" d="M 2906 1791 
Q 2906 2416 2648 2759 
Q 2391 3103 1925 3103 
Q 1463 3103 1205 2759 
Q 947 2416 947 1791 
Q 947 1169 1205 825 
Q 1463 481 1925 481 
Q 2391 481 2648 825 
Q 2906 1169 2906 1791 
z
M 3481 434 
Q 3481 -459 3084 -895 
Q 2688 -1331 1869 -1331 
Q 1566 -1331 1297 -1286 
Q 1028 -1241 775 -1147 
L 775 -588 
Q 1028 -725 1275 -790 
Q 1522 -856 1778 -856 
Q 2344 -856 2625 -561 
Q 2906 -266 2906 331 
L 2906 616 
Q 2728 306 2450 153 
Q 2172 0 1784 0 
Q 1141 0 747 490 
Q 353 981 353 1791 
Q 353 2603 747 3093 
Q 1141 3584 1784 3584 
Q 2172 3584 2450 3431 
Q 2728 3278 2906 2969 
L 2906 3500 
L 3481 3500 
L 3481 434 
z
" transform="scale(0.015625)"/>
       <path id="DejaVuSans-69" d="M 603 3500 
L 1178 3500 
L 1178 0 
L 603 0 
L 603 3500 
z
M 603 4863 
L 1178 4863 
L 1178 4134 
L 603 4134 
L 603 4863 
z
" transform="scale(0.015625)"/>
      </defs>
      <use xlink:href="#DejaVuSans-67"/>
      <use xlink:href="#DejaVuSans-61" x="63.476562"/>
      <use xlink:href="#DejaVuSans-69" x="124.755859"/>
      <use xlink:href="#DejaVuSans-6e" x="152.539062"/>
     </g>
    </g>
   </g>
   <g id="line2d_12">
    <path d="M 95.443022 62.785553 
L 95.770064 73.592051 
L 96.031697 94.484613 
L 96.358739 100.968512 
L 96.685781 110.334144 
L 96.947415 126.183674 
L 97.274456 143.474071 
L 97.53609 137.710605 
L 97.863132 155.001002 
L 98.190174 152.119269 
" clip-path="url(#pde1cd087ce)" style="fill: none; stroke: #000000; stroke-width: 2.25; stroke-linecap: square"/>
   </g>
   <g id="line2d_13">
    <path d="M 95.443022 88.000714 
L 95.770064 115.377176 
L 96.031697 121.140642 
L 96.358739 142.033204 
L 96.685781 144.194504 
L 96.947415 160.764467 
L 97.274456 169.409666 
L 97.53609 165.087067 
L 97.863132 164.366633 
L 98.190174 175.173131 
" clip-path="url(#pde1cd087ce)" style="fill: none; stroke-dasharray: 9,3.375; stroke-dashoffset: 0; stroke: #000000; stroke-width: 2.25"/>
   </g>
   <g id="line2d_14"/>
   <g id="line2d_15"/>
   <g id="patch_3">
    <path d="M 81.187266 277.977187 
L 81.187266 26.877187 
" style="fill: none; stroke: #000000; stroke-width: 1.875; stroke-linejoin: miter; stroke-linecap: square"/>
   </g>
   <g id="patch_4">
    <path d="M 81.187266 277.977187 
L 394.813902 277.977187 
" style="fill: none; stroke: #000000; stroke-width: 1.875; stroke-linejoin: miter; stroke-linecap: square"/>
   </g>
   <g id="text_14">
    <!-- dataset = neuromod -->
    <g transform="translate(144.774646 20.877187) scale(0.18 -0.18)">
     <defs>
      <path id="DejaVuSans-64" d="M 2906 2969 
L 2906 4863 
L 3481 4863 
L 3481 0 
L 2906 0 
L 2906 525 
Q 2725 213 2448 61 
Q 2172 -91 1784 -91 
Q 1150 -91 751 415 
Q 353 922 353 1747 
Q 353 2572 751 3078 
Q 1150 3584 1784 3584 
Q 2172 3584 2448 3432 
Q 2725 3281 2906 2969 
z
M 947 1747 
Q 947 1113 1208 752 
Q 1469 391 1925 391 
Q 2381 391 2643 752 
Q 2906 1113 2906 1747 
Q 2906 2381 2643 2742 
Q 2381 3103 1925 3103 
Q 1469 3103 1208 2742 
Q 947 2381 947 1747 
z
" transform="scale(0.015625)"/>
      <path id="DejaVuSans-74" d="M 1172 4494 
L 1172 3500 
L 2356 3500 
L 2356 3053 
L 1172 3053 
L 1172 1153 
Q 1172 725 1289 603 
Q 1406 481 1766 481 
L 2356 481 
L 2356 0 
L 1766 0 
Q 1100 0 847 248 
Q 594 497 594 1153 
L 594 3053 
L 172 3053 
L 172 3500 
L 594 3500 
L 594 4494 
L 1172 4494 
z
" transform="scale(0.015625)"/>
      <path id="DejaVuSans-20" transform="scale(0.015625)"/>
      <path id="DejaVuSans-3d" d="M 678 2906 
L 4684 2906 
L 4684 2381 
L 678 2381 
L 678 2906 
z
M 678 1631 
L 4684 1631 
L 4684 1100 
L 678 1100 
L 678 1631 
z
" transform="scale(0.015625)"/>
      <path id="DejaVuSans-75" d="M 544 1381 
L 544 3500 
L 1119 3500 
L 1119 1403 
Q 1119 906 1312 657 
Q 1506 409 1894 409 
Q 2359 409 2629 706 
Q 2900 1003 2900 1516 
L 2900 3500 
L 3475 3500 
L 3475 0 
L 2900 0 
L 2900 538 
Q 2691 219 2414 64 
Q 2138 -91 1772 -91 
Q 1169 -91 856 284 
Q 544 659 544 1381 
z
M 1991 3584 
L 1991 3584 
z
" transform="scale(0.015625)"/>
      <path id="DejaVuSans-72" d="M 2631 2963 
Q 2534 3019 2420 3045 
Q 2306 3072 2169 3072 
Q 1681 3072 1420 2755 
Q 1159 2438 1159 1844 
L 1159 0 
L 581 0 
L 581 3500 
L 1159 3500 
L 1159 2956 
Q 1341 3275 1631 3429 
Q 1922 3584 2338 3584 
Q 2397 3584 2469 3576 
Q 2541 3569 2628 3553 
L 2631 2963 
z
" transform="scale(0.015625)"/>
      <path id="DejaVuSans-6f" d="M 1959 3097 
Q 1497 3097 1228 2736 
Q 959 2375 959 1747 
Q 959 1119 1226 758 
Q 1494 397 1959 397 
Q 2419 397 2687 759 
Q 2956 1122 2956 1747 
Q 2956 2369 2687 2733 
Q 2419 3097 1959 3097 
z
M 1959 3584 
Q 2709 3584 3137 3096 
Q 3566 2609 3566 1747 
Q 3566 888 3137 398 
Q 2709 -91 1959 -91 
Q 1206 -91 779 398 
Q 353 888 353 1747 
Q 353 2609 779 3096 
Q 1206 3584 1959 3584 
z
" transform="scale(0.015625)"/>
     </defs>
     <use xlink:href="#DejaVuSans-64"/>
     <use xlink:href="#DejaVuSans-61" x="63.476562"/>
     <use xlink:href="#DejaVuSans-74" x="124.755859"/>
     <use xlink:href="#DejaVuSans-61" x="163.964844"/>
     <use xlink:href="#DejaVuSans-73" x="225.244141"/>
     <use xlink:href="#DejaVuSans-65" x="277.34375"/>
     <use xlink:href="#DejaVuSans-74" x="338.867188"/>
     <use xlink:href="#DejaVuSans-20" x="378.076172"/>
     <use xlink:href="#DejaVuSans-3d" x="409.863281"/>
     <use xlink:href="#DejaVuSans-20" x="493.652344"/>
     <use xlink:href="#DejaVuSans-6e" x="525.439453"/>
     <use xlink:href="#DejaVuSans-65" x="588.818359"/>
     <use xlink:href="#DejaVuSans-75" x="650.341797"/>
     <use xlink:href="#DejaVuSans-72" x="713.720703"/>
     <use xlink:href="#DejaVuSans-6f" x="752.583984"/>
     <use xlink:href="#DejaVuSans-6d" x="813.765625"/>
     <use xlink:href="#DejaVuSans-6f" x="911.177734"/>
     <use xlink:href="#DejaVuSans-64" x="972.359375"/>
    </g>
   </g>
  </g>
  <g id="axes_2">
   <g id="patch_5">
    <path d="M 423.15636 277.977187 
L 736.782996 277.977187 
L 736.782996 26.877187 
L 423.15636 26.877187 
z
" style="fill: #ffffff"/>
   </g>
   <g id="PolyCollection_3">
    <defs>
     <path id="mfed6b0b5b3" d="M 438.131608 -149.626138 
L 438.131608 -136.29236 
L 439.178142 -144.398674 
L 440.224676 -144.047103 
L 441.205802 -145.438019 
L 442.252336 -142.900173 
L 443.29887 -146.047986 
L 444.279996 -140.941556 
L 445.32653 -135.254936 
L 446.373064 -132.373203 
L 447.419598 -129.184086 
L 447.419598 -147.973944 
L 447.419598 -147.973944 
L 446.373064 -151.778792 
L 445.32653 -153.046754 
L 444.279996 -158.084984 
L 443.29887 -163.690915 
L 442.252336 -159.617105 
L 441.205802 -162.040642 
L 440.224676 -160.231875 
L 439.178142 -160.199215 
L 438.131608 -149.626138 
z
" style="stroke: #000000; stroke-opacity: 0.2; stroke-width: 1.5"/>
    </defs>
    <g clip-path="url(#p3d9142674e)">
     <use xlink:href="#mfed6b0b5b3" x="0" y="335.567344" style="fill-opacity: 0.2; stroke: #000000; stroke-opacity: 0.2; stroke-width: 1.5"/>
    </g>
   </g>
   <g id="PolyCollection_4">
    <defs>
     <path id="mc703e69887" d="M 438.131608 -145.059552 
L 438.131608 -131.450088 
L 439.178142 -131.643164 
L 440.224676 -125.035351 
L 441.205802 -128.146662 
L 442.252336 -115.348887 
L 443.29887 -123.881697 
L 444.279996 -122.230465 
L 445.32653 -117.347849 
L 446.373064 -118.809848 
L 447.419598 -114.352768 
L 447.419598 -132.572043 
L 447.419598 -132.572043 
L 446.373064 -137.946475 
L 445.32653 -137.139589 
L 444.279996 -138.984859 
L 443.29887 -143.018324 
L 442.252336 -134.606546 
L 441.205802 -144.288208 
L 440.224676 -141.71386 
L 439.178142 -147.821212 
L 438.131608 -145.059552 
z
" style="stroke: #000000; stroke-opacity: 0.2; stroke-width: 1.5"/>
    </defs>
    <g clip-path="url(#p3d9142674e)">
     <use xlink:href="#mc703e69887" x="0" y="335.567344" style="fill-opacity: 0.2; stroke: #000000; stroke-opacity: 0.2; stroke-width: 1.5"/>
    </g>
   </g>
   <g id="matplotlib.axis_3">
    <g id="xtick_6">
     <g id="line2d_16">
      <g>
       <use xlink:href="#m5aac213c70" x="437.150483" y="277.977187" style="stroke: #000000; stroke-width: 1.875"/>
      </g>
     </g>
     <g id="text_15">
      <!-- 0 -->
      <g transform="translate(431.90142 303.014609) scale(0.165 -0.165)">
       <use xlink:href="#DejaVuSans-30"/>
      </g>
     </g>
    </g>
    <g id="xtick_7">
     <g id="line2d_17">
      <g>
       <use xlink:href="#m5aac213c70" x="502.558862" y="277.977187" style="stroke: #000000; stroke-width: 1.875"/>
      </g>
     </g>
     <g id="text_16">
      <!-- 1000 -->
      <g transform="translate(481.562612 303.014609) scale(0.165 -0.165)">
       <use xlink:href="#DejaVuSans-31"/>
       <use xlink:href="#DejaVuSans-30" x="63.623047"/>
       <use xlink:href="#DejaVuSans-30" x="127.246094"/>
       <use xlink:href="#DejaVuSans-30" x="190.869141"/>
      </g>
     </g>
    </g>
    <g id="xtick_8">
     <g id="line2d_18">
      <g>
       <use xlink:href="#m5aac213c70" x="567.967241" y="277.977187" style="stroke: #000000; stroke-width: 1.875"/>
      </g>
     </g>
     <g id="text_17">
      <!-- 2000 -->
      <g transform="translate(546.970991 303.014609) scale(0.165 -0.165)">
       <use xlink:href="#DejaVuSans-32"/>
       <use xlink:href="#DejaVuSans-30" x="63.623047"/>
       <use xlink:href="#DejaVuSans-30" x="127.246094"/>
       <use xlink:href="#DejaVuSans-30" x="190.869141"/>
      </g>
     </g>
    </g>
    <g id="xtick_9">
     <g id="line2d_19">
      <g>
       <use xlink:href="#m5aac213c70" x="633.37562" y="277.977187" style="stroke: #000000; stroke-width: 1.875"/>
      </g>
     </g>
     <g id="text_18">
      <!-- 3000 -->
      <g transform="translate(612.37937 303.014609) scale(0.165 -0.165)">
       <use xlink:href="#DejaVuSans-33"/>
       <use xlink:href="#DejaVuSans-30" x="63.623047"/>
       <use xlink:href="#DejaVuSans-30" x="127.246094"/>
       <use xlink:href="#DejaVuSans-30" x="190.869141"/>
      </g>
     </g>
    </g>
    <g id="xtick_10">
     <g id="line2d_20">
      <g>
       <use xlink:href="#m5aac213c70" x="698.783999" y="277.977187" style="stroke: #000000; stroke-width: 1.875"/>
      </g>
     </g>
     <g id="text_19">
      <!-- 4000 -->
      <g transform="translate(677.787749 303.014609) scale(0.165 -0.165)">
       <use xlink:href="#DejaVuSans-34"/>
       <use xlink:href="#DejaVuSans-30" x="63.623047"/>
       <use xlink:href="#DejaVuSans-30" x="127.246094"/>
       <use xlink:href="#DejaVuSans-30" x="190.869141"/>
      </g>
     </g>
    </g>
    <g id="text_20">
     <!-- n_samples -->
     <g transform="translate(532.355459 324.123281) scale(0.18 -0.18)">
      <use xlink:href="#DejaVuSans-6e"/>
      <use xlink:href="#DejaVuSans-5f" x="63.378906"/>
      <use xlink:href="#DejaVuSans-73" x="113.378906"/>
      <use xlink:href="#DejaVuSans-61" x="165.478516"/>
      <use xlink:href="#DejaVuSans-6d" x="226.757812"/>
      <use xlink:href="#DejaVuSans-70" x="324.169922"/>
      <use xlink:href="#DejaVuSans-6c" x="387.646484"/>
      <use xlink:href="#DejaVuSans-65" x="415.429688"/>
      <use xlink:href="#DejaVuSans-73" x="476.953125"/>
     </g>
    </g>
   </g>
   <g id="matplotlib.axis_4">
    <g id="ytick_7">
     <g id="line2d_21">
      <g>
       <use xlink:href="#mdda0e8e9fe" x="423.15636" y="260.904682" style="stroke: #000000; stroke-width: 1.875"/>
      </g>
     </g>
    </g>
    <g id="ytick_8">
     <g id="line2d_22">
      <g>
       <use xlink:href="#mdda0e8e9fe" x="423.15636" y="214.796957" style="stroke: #000000; stroke-width: 1.875"/>
      </g>
     </g>
    </g>
    <g id="ytick_9">
     <g id="line2d_23">
      <g>
       <use xlink:href="#mdda0e8e9fe" x="423.15636" y="168.689233" style="stroke: #000000; stroke-width: 1.875"/>
      </g>
     </g>
    </g>
    <g id="ytick_10">
     <g id="line2d_24">
      <g>
       <use xlink:href="#mdda0e8e9fe" x="423.15636" y="122.581508" style="stroke: #000000; stroke-width: 1.875"/>
      </g>
     </g>
    </g>
    <g id="ytick_11">
     <g id="line2d_25">
      <g>
       <use xlink:href="#mdda0e8e9fe" x="423.15636" y="76.473783" style="stroke: #000000; stroke-width: 1.875"/>
      </g>
     </g>
    </g>
    <g id="ytick_12">
     <g id="line2d_26">
      <g>
       <use xlink:href="#mdda0e8e9fe" x="423.15636" y="30.366059" style="stroke: #000000; stroke-width: 1.875"/>
      </g>
     </g>
    </g>
   </g>
   <g id="line2d_27">
    <path d="M 438.131608 192.780519 
L 439.178142 183.174743 
L 440.224676 183.213166 
L 441.205802 181.445703 
L 442.252336 183.904782 
L 443.29887 180.984626 
L 444.279996 185.941206 
L 445.32653 191.089902 
L 446.373064 193.395288 
L 447.419598 197.660253 
" clip-path="url(#p3d9142674e)" style="fill: none; stroke: #000000; stroke-width: 2.25; stroke-linecap: square"/>
   </g>
   <g id="line2d_28">
    <path d="M 438.131608 197.160753 
L 439.178142 196.200175 
L 440.224676 202.463141 
L 441.205802 199.350869 
L 442.252336 210.762531 
L 443.29887 202.194179 
L 444.279996 204.960643 
L 445.32653 208.341876 
L 446.373064 207.189183 
L 447.419598 212.337879 
" clip-path="url(#p3d9142674e)" style="fill: none; stroke-dasharray: 9,3.375; stroke-dashoffset: 0; stroke: #000000; stroke-width: 2.25"/>
   </g>
   <g id="patch_6">
    <path d="M 423.15636 277.977187 
L 423.15636 26.877187 
" style="fill: none; stroke: #000000; stroke-width: 1.875; stroke-linejoin: miter; stroke-linecap: square"/>
   </g>
   <g id="patch_7">
    <path d="M 423.15636 277.977187 
L 736.782996 277.977187 
" style="fill: none; stroke: #000000; stroke-width: 1.875; stroke-linejoin: miter; stroke-linecap: square"/>
   </g>
   <g id="text_21">
    <!-- dataset = forrest -->
    <g transform="translate(503.210928 20.877187) scale(0.18 -0.18)">
     <defs>
      <path id="DejaVuSans-66" d="M 2375 4863 
L 2375 4384 
L 1825 4384 
Q 1516 4384 1395 4259 
Q 1275 4134 1275 3809 
L 1275 3500 
L 2222 3500 
L 2222 3053 
L 1275 3053 
L 1275 0 
L 697 0 
L 697 3053 
L 147 3053 
L 147 3500 
L 697 3500 
L 697 3744 
Q 697 4328 969 4595 
Q 1241 4863 1831 4863 
L 2375 4863 
z
" transform="scale(0.015625)"/>
     </defs>
     <use xlink:href="#DejaVuSans-64"/>
     <use xlink:href="#DejaVuSans-61" x="63.476562"/>
     <use xlink:href="#DejaVuSans-74" x="124.755859"/>
     <use xlink:href="#DejaVuSans-61" x="163.964844"/>
     <use xlink:href="#DejaVuSans-73" x="225.244141"/>
     <use xlink:href="#DejaVuSans-65" x="277.34375"/>
     <use xlink:href="#DejaVuSans-74" x="338.867188"/>
     <use xlink:href="#DejaVuSans-20" x="378.076172"/>
     <use xlink:href="#DejaVuSans-3d" x="409.863281"/>
     <use xlink:href="#DejaVuSans-20" x="493.652344"/>
     <use xlink:href="#DejaVuSans-66" x="525.439453"/>
     <use xlink:href="#DejaVuSans-6f" x="560.644531"/>
     <use xlink:href="#DejaVuSans-72" x="621.826172"/>
     <use xlink:href="#DejaVuSans-72" x="661.189453"/>
     <use xlink:href="#DejaVuSans-65" x="700.052734"/>
     <use xlink:href="#DejaVuSans-73" x="761.576172"/>
     <use xlink:href="#DejaVuSans-74" x="813.675781"/>
    </g>
   </g>
  </g>
  <g id="axes_3">
   <g id="patch_8">
    <path d="M 765.125454 277.977187 
L 1078.752091 277.977187 
L 1078.752091 26.877187 
L 765.125454 26.877187 
z
" style="fill: #ffffff"/>
   </g>
   <g id="PolyCollection_5">
    <defs>
     <path id="m811ce8fd32" d="M 781.01642 -134.155502 
L 781.01642 -108.385873 
L 782.978671 -112.466727 
L 784.940923 -110.801192 
L 786.903174 -105.440102 
L 788.865425 -103.799649 
L 790.762268 -105.230376 
L 792.72452 -103.753221 
L 794.686771 -101.259455 
L 796.649022 -106.528223 
L 798.611274 -102.731807 
L 798.611274 -123.54859 
L 798.611274 -123.54859 
L 796.649022 -129.611436 
L 794.686771 -125.448933 
L 792.72452 -127.217997 
L 790.762268 -128.158829 
L 788.865425 -125.553529 
L 786.903174 -125.574876 
L 784.940923 -134.517853 
L 782.978671 -135.886676 
L 781.01642 -134.155502 
z
" style="stroke: #000000; stroke-opacity: 0.2; stroke-width: 1.5"/>
    </defs>
    <g clip-path="url(#pa1bb2bf6be)">
     <use xlink:href="#m811ce8fd32" x="0" y="335.567344" style="fill-opacity: 0.2; stroke: #000000; stroke-opacity: 0.2; stroke-width: 1.5"/>
    </g>
   </g>
   <g id="PolyCollection_6">
    <defs>
     <path id="m381b8ba291" d="M 781.01642 -125.852909 
L 781.01642 -104.801318 
L 782.978671 -80.74632 
L 784.940923 -78.803819 
L 786.903174 -76.322327 
L 788.865425 -69.661788 
L 790.762268 -69.70875 
L 792.72452 -69.003793 
L 794.686771 -74.234671 
L 796.649022 -75.089585 
L 798.611274 -74.103926 
L 798.611274 -97.826991 
L 798.611274 -97.826991 
L 796.649022 -98.444429 
L 794.686771 -99.297208 
L 792.72452 -94.707248 
L 790.762268 -94.173594 
L 788.865425 -91.657948 
L 786.903174 -98.76302 
L 784.940923 -101.36832 
L 782.978671 -103.760692 
L 781.01642 -125.852909 
z
" style="stroke: #000000; stroke-opacity: 0.2; stroke-width: 1.5"/>
    </defs>
    <g clip-path="url(#pa1bb2bf6be)">
     <use xlink:href="#m381b8ba291" x="0" y="335.567344" style="fill-opacity: 0.2; stroke: #000000; stroke-opacity: 0.2; stroke-width: 1.5"/>
    </g>
   </g>
   <g id="matplotlib.axis_5">
    <g id="xtick_11">
     <g id="line2d_29">
      <g>
       <use xlink:href="#m5aac213c70" x="779.119577" y="277.977187" style="stroke: #000000; stroke-width: 1.875"/>
      </g>
     </g>
     <g id="text_22">
      <!-- 0 -->
      <g transform="translate(773.870514 303.014609) scale(0.165 -0.165)">
       <use xlink:href="#DejaVuSans-30"/>
      </g>
     </g>
    </g>
    <g id="xtick_12">
     <g id="line2d_30">
      <g>
       <use xlink:href="#m5aac213c70" x="844.527956" y="277.977187" style="stroke: #000000; stroke-width: 1.875"/>
      </g>
     </g>
     <g id="text_23">
      <!-- 1000 -->
      <g transform="translate(823.531706 303.014609) scale(0.165 -0.165)">
       <use xlink:href="#DejaVuSans-31"/>
       <use xlink:href="#DejaVuSans-30" x="63.623047"/>
       <use xlink:href="#DejaVuSans-30" x="127.246094"/>
       <use xlink:href="#DejaVuSans-30" x="190.869141"/>
      </g>
     </g>
    </g>
    <g id="xtick_13">
     <g id="line2d_31">
      <g>
       <use xlink:href="#m5aac213c70" x="909.936335" y="277.977187" style="stroke: #000000; stroke-width: 1.875"/>
      </g>
     </g>
     <g id="text_24">
      <!-- 2000 -->
      <g transform="translate(888.940085 303.014609) scale(0.165 -0.165)">
       <use xlink:href="#DejaVuSans-32"/>
       <use xlink:href="#DejaVuSans-30" x="63.623047"/>
       <use xlink:href="#DejaVuSans-30" x="127.246094"/>
       <use xlink:href="#DejaVuSans-30" x="190.869141"/>
      </g>
     </g>
    </g>
    <g id="xtick_14">
     <g id="line2d_32">
      <g>
       <use xlink:href="#m5aac213c70" x="975.344714" y="277.977187" style="stroke: #000000; stroke-width: 1.875"/>
      </g>
     </g>
     <g id="text_25">
      <!-- 3000 -->
      <g transform="translate(954.348464 303.014609) scale(0.165 -0.165)">
       <use xlink:href="#DejaVuSans-33"/>
       <use xlink:href="#DejaVuSans-30" x="63.623047"/>
       <use xlink:href="#DejaVuSans-30" x="127.246094"/>
       <use xlink:href="#DejaVuSans-30" x="190.869141"/>
      </g>
     </g>
    </g>
    <g id="xtick_15">
     <g id="line2d_33">
      <g>
       <use xlink:href="#m5aac213c70" x="1040.753093" y="277.977187" style="stroke: #000000; stroke-width: 1.875"/>
      </g>
     </g>
     <g id="text_26">
      <!-- 4000 -->
      <g transform="translate(1019.756843 303.014609) scale(0.165 -0.165)">
       <use xlink:href="#DejaVuSans-34"/>
       <use xlink:href="#DejaVuSans-30" x="63.623047"/>
       <use xlink:href="#DejaVuSans-30" x="127.246094"/>
       <use xlink:href="#DejaVuSans-30" x="190.869141"/>
      </g>
     </g>
    </g>
    <g id="text_27">
     <!-- n_samples -->
     <g transform="translate(874.324554 324.123281) scale(0.18 -0.18)">
      <use xlink:href="#DejaVuSans-6e"/>
      <use xlink:href="#DejaVuSans-5f" x="63.378906"/>
      <use xlink:href="#DejaVuSans-73" x="113.378906"/>
      <use xlink:href="#DejaVuSans-61" x="165.478516"/>
      <use xlink:href="#DejaVuSans-6d" x="226.757812"/>
      <use xlink:href="#DejaVuSans-70" x="324.169922"/>
      <use xlink:href="#DejaVuSans-6c" x="387.646484"/>
      <use xlink:href="#DejaVuSans-65" x="415.429688"/>
      <use xlink:href="#DejaVuSans-73" x="476.953125"/>
     </g>
    </g>
   </g>
   <g id="matplotlib.axis_6">
    <g id="ytick_13">
     <g id="line2d_34">
      <g>
       <use xlink:href="#mdda0e8e9fe" x="765.125454" y="260.904682" style="stroke: #000000; stroke-width: 1.875"/>
      </g>
     </g>
    </g>
    <g id="ytick_14">
     <g id="line2d_35">
      <g>
       <use xlink:href="#mdda0e8e9fe" x="765.125454" y="214.796957" style="stroke: #000000; stroke-width: 1.875"/>
      </g>
     </g>
    </g>
    <g id="ytick_15">
     <g id="line2d_36">
      <g>
       <use xlink:href="#mdda0e8e9fe" x="765.125454" y="168.689233" style="stroke: #000000; stroke-width: 1.875"/>
      </g>
     </g>
    </g>
    <g id="ytick_16">
     <g id="line2d_37">
      <g>
       <use xlink:href="#mdda0e8e9fe" x="765.125454" y="122.581508" style="stroke: #000000; stroke-width: 1.875"/>
      </g>
     </g>
    </g>
    <g id="ytick_17">
     <g id="line2d_38">
      <g>
       <use xlink:href="#mdda0e8e9fe" x="765.125454" y="76.473783" style="stroke: #000000; stroke-width: 1.875"/>
      </g>
     </g>
    </g>
    <g id="ytick_18">
     <g id="line2d_39">
      <g>
       <use xlink:href="#mdda0e8e9fe" x="765.125454" y="30.366059" style="stroke: #000000; stroke-width: 1.875"/>
      </g>
     </g>
    </g>
   </g>
   <g id="line2d_40">
    <path d="M 781.01642 214.327341 
L 782.978671 211.851186 
L 784.940923 213.473495 
L 786.903174 220.368307 
L 788.865425 220.752538 
L 790.762268 219.044845 
L 792.72452 219.941384 
L 794.686771 222.076001 
L 796.649022 217.806767 
L 798.611274 222.545616 
" clip-path="url(#pa1bb2bf6be)" style="fill: none; stroke: #000000; stroke-width: 2.25; stroke-linecap: square"/>
   </g>
   <g id="line2d_41">
    <path d="M 781.01642 220.282923 
L 782.978671 243.230054 
L 784.940923 245.727556 
L 786.903174 248.139673 
L 788.865425 255.11987 
L 790.762268 253.924485 
L 792.72452 253.348138 
L 794.686771 248.801404 
L 796.649022 248.780058 
L 798.611274 249.54852 
" clip-path="url(#pa1bb2bf6be)" style="fill: none; stroke-dasharray: 9,3.375; stroke-dashoffset: 0; stroke: #000000; stroke-width: 2.25"/>
   </g>
   <g id="patch_9">
    <path d="M 765.125454 277.977187 
L 765.125454 26.877187 
" style="fill: none; stroke: #000000; stroke-width: 1.875; stroke-linejoin: miter; stroke-linecap: square"/>
   </g>
   <g id="patch_10">
    <path d="M 765.125454 277.977187 
L 1078.752091 277.977187 
" style="fill: none; stroke: #000000; stroke-width: 1.875; stroke-linejoin: miter; stroke-linecap: square"/>
   </g>
   <g id="text_28">
    <!-- dataset = bold5000 -->
    <g transform="translate(832.310022 20.877187) scale(0.18 -0.18)">
     <defs>
      <path id="DejaVuSans-62" d="M 3116 1747 
Q 3116 2381 2855 2742 
Q 2594 3103 2138 3103 
Q 1681 3103 1420 2742 
Q 1159 2381 1159 1747 
Q 1159 1113 1420 752 
Q 1681 391 2138 391 
Q 2594 391 2855 752 
Q 3116 1113 3116 1747 
z
M 1159 2969 
Q 1341 3281 1617 3432 
Q 1894 3584 2278 3584 
Q 2916 3584 3314 3078 
Q 3713 2572 3713 1747 
Q 3713 922 3314 415 
Q 2916 -91 2278 -91 
Q 1894 -91 1617 61 
Q 1341 213 1159 525 
L 1159 0 
L 581 0 
L 581 4863 
L 1159 4863 
L 1159 2969 
z
" transform="scale(0.015625)"/>
      <path id="DejaVuSans-35" d="M 691 4666 
L 3169 4666 
L 3169 4134 
L 1269 4134 
L 1269 2991 
Q 1406 3038 1543 3061 
Q 1681 3084 1819 3084 
Q 2600 3084 3056 2656 
Q 3513 2228 3513 1497 
Q 3513 744 3044 326 
Q 2575 -91 1722 -91 
Q 1428 -91 1123 -41 
Q 819 9 494 109 
L 494 744 
Q 775 591 1075 516 
Q 1375 441 1709 441 
Q 2250 441 2565 725 
Q 2881 1009 2881 1497 
Q 2881 1984 2565 2268 
Q 2250 2553 1709 2553 
Q 1456 2553 1204 2497 
Q 953 2441 691 2322 
L 691 4666 
z
" transform="scale(0.015625)"/>
     </defs>
     <use xlink:href="#DejaVuSans-64"/>
     <use xlink:href="#DejaVuSans-61" x="63.476562"/>
     <use xlink:href="#DejaVuSans-74" x="124.755859"/>
     <use xlink:href="#DejaVuSans-61" x="163.964844"/>
     <use xlink:href="#DejaVuSans-73" x="225.244141"/>
     <use xlink:href="#DejaVuSans-65" x="277.34375"/>
     <use xlink:href="#DejaVuSans-74" x="338.867188"/>
     <use xlink:href="#DejaVuSans-20" x="378.076172"/>
     <use xlink:href="#DejaVuSans-3d" x="409.863281"/>
     <use xlink:href="#DejaVuSans-20" x="493.652344"/>
     <use xlink:href="#DejaVuSans-62" x="525.439453"/>
     <use xlink:href="#DejaVuSans-6f" x="588.916016"/>
     <use xlink:href="#DejaVuSans-6c" x="650.097656"/>
     <use xlink:href="#DejaVuSans-64" x="677.880859"/>
     <use xlink:href="#DejaVuSans-35" x="741.357422"/>
     <use xlink:href="#DejaVuSans-30" x="804.980469"/>
     <use xlink:href="#DejaVuSans-30" x="868.603516"/>
     <use xlink:href="#DejaVuSans-30" x="932.226562"/>
    </g>
   </g>
  </g>
  <g id="axes_4">
   <g id="patch_11">
    <path d="M 1107.094548 277.977187 
L 1420.721185 277.977187 
L 1420.721185 26.877187 
L 1107.094548 26.877187 
z
" style="fill: #ffffff"/>
   </g>
   <g id="PolyCollection_7">
    <defs>
     <path id="m87c9cf017b" d="M 1123.181739 -166.336247 
L 1123.181739 -156.385648 
L 1125.274807 -143.084112 
L 1127.433284 -136.089136 
L 1129.526352 -131.606441 
L 1131.684829 -124.120093 
L 1133.777897 -117.074626 
L 1135.870965 -113.723688 
L 1138.029441 -109.094443 
L 1140.122509 -104.463966 
L 1142.280986 -102.542811 
L 1142.280986 -111.903516 
L 1142.280986 -111.903516 
L 1140.122509 -113.628862 
L 1138.029441 -118.70145 
L 1135.870965 -123.873791 
L 1133.777897 -127.520291 
L 1131.684829 -134.366254 
L 1129.526352 -140.771336 
L 1127.433284 -146.091458 
L 1125.274807 -152.39802 
L 1123.181739 -166.336247 
z
" style="stroke: #000000; stroke-opacity: 0.2; stroke-width: 1.5"/>
    </defs>
    <g clip-path="url(#p290d706219)">
     <use xlink:href="#m87c9cf017b" x="0" y="335.567344" style="fill-opacity: 0.2; stroke: #000000; stroke-opacity: 0.2; stroke-width: 1.5"/>
    </g>
   </g>
   <g id="PolyCollection_8">
    <defs>
     <path id="mc76c6f3dbc" d="M 1123.181739 -135.007871 
L 1123.181739 -125.104069 
L 1125.274807 -115.889913 
L 1127.433284 -102.987386 
L 1129.526352 -100.720177 
L 1131.684829 -96.480088 
L 1133.777897 -89.932151 
L 1135.870965 -88.74867 
L 1138.029441 -91.903798 
L 1140.122509 -89.63782 
L 1142.280986 -91.853306 
L 1142.280986 -101.854397 
L 1142.280986 -101.854397 
L 1140.122509 -100.228804 
L 1138.029441 -102.396261 
L 1135.870965 -98.209128 
L 1133.777897 -100.72264 
L 1131.684829 -105.99227 
L 1129.526352 -110.377676 
L 1127.433284 -113.62763 
L 1125.274807 -125.943959 
L 1123.181739 -135.007871 
z
" style="stroke: #000000; stroke-opacity: 0.2; stroke-width: 1.5"/>
    </defs>
    <g clip-path="url(#p290d706219)">
     <use xlink:href="#mc76c6f3dbc" x="0" y="335.567344" style="fill-opacity: 0.2; stroke: #000000; stroke-opacity: 0.2; stroke-width: 1.5"/>
    </g>
   </g>
   <g id="matplotlib.axis_7">
    <g id="xtick_16">
     <g id="line2d_42">
      <g>
       <use xlink:href="#m5aac213c70" x="1121.088671" y="277.977187" style="stroke: #000000; stroke-width: 1.875"/>
      </g>
     </g>
     <g id="text_29">
      <!-- 0 -->
      <g transform="translate(1115.839609 303.014609) scale(0.165 -0.165)">
       <use xlink:href="#DejaVuSans-30"/>
      </g>
     </g>
    </g>
    <g id="xtick_17">
     <g id="line2d_43">
      <g>
       <use xlink:href="#m5aac213c70" x="1186.49705" y="277.977187" style="stroke: #000000; stroke-width: 1.875"/>
      </g>
     </g>
     <g id="text_30">
      <!-- 1000 -->
      <g transform="translate(1165.5008 303.014609) scale(0.165 -0.165)">
       <use xlink:href="#DejaVuSans-31"/>
       <use xlink:href="#DejaVuSans-30" x="63.623047"/>
       <use xlink:href="#DejaVuSans-30" x="127.246094"/>
       <use xlink:href="#DejaVuSans-30" x="190.869141"/>
      </g>
     </g>
    </g>
    <g id="xtick_18">
     <g id="line2d_44">
      <g>
       <use xlink:href="#m5aac213c70" x="1251.905429" y="277.977187" style="stroke: #000000; stroke-width: 1.875"/>
      </g>
     </g>
     <g id="text_31">
      <!-- 2000 -->
      <g transform="translate(1230.909179 303.014609) scale(0.165 -0.165)">
       <use xlink:href="#DejaVuSans-32"/>
       <use xlink:href="#DejaVuSans-30" x="63.623047"/>
       <use xlink:href="#DejaVuSans-30" x="127.246094"/>
       <use xlink:href="#DejaVuSans-30" x="190.869141"/>
      </g>
     </g>
    </g>
    <g id="xtick_19">
     <g id="line2d_45">
      <g>
       <use xlink:href="#m5aac213c70" x="1317.313808" y="277.977187" style="stroke: #000000; stroke-width: 1.875"/>
      </g>
     </g>
     <g id="text_32">
      <!-- 3000 -->
      <g transform="translate(1296.317558 303.014609) scale(0.165 -0.165)">
       <use xlink:href="#DejaVuSans-33"/>
       <use xlink:href="#DejaVuSans-30" x="63.623047"/>
       <use xlink:href="#DejaVuSans-30" x="127.246094"/>
       <use xlink:href="#DejaVuSans-30" x="190.869141"/>
      </g>
     </g>
    </g>
    <g id="xtick_20">
     <g id="line2d_46">
      <g>
       <use xlink:href="#m5aac213c70" x="1382.722187" y="277.977187" style="stroke: #000000; stroke-width: 1.875"/>
      </g>
     </g>
     <g id="text_33">
      <!-- 4000 -->
      <g transform="translate(1361.725937 303.014609) scale(0.165 -0.165)">
       <use xlink:href="#DejaVuSans-34"/>
       <use xlink:href="#DejaVuSans-30" x="63.623047"/>
       <use xlink:href="#DejaVuSans-30" x="127.246094"/>
       <use xlink:href="#DejaVuSans-30" x="190.869141"/>
      </g>
     </g>
    </g>
    <g id="text_34">
     <!-- n_samples -->
     <g transform="translate(1216.293648 324.123281) scale(0.18 -0.18)">
      <use xlink:href="#DejaVuSans-6e"/>
      <use xlink:href="#DejaVuSans-5f" x="63.378906"/>
      <use xlink:href="#DejaVuSans-73" x="113.378906"/>
      <use xlink:href="#DejaVuSans-61" x="165.478516"/>
      <use xlink:href="#DejaVuSans-6d" x="226.757812"/>
      <use xlink:href="#DejaVuSans-70" x="324.169922"/>
      <use xlink:href="#DejaVuSans-6c" x="387.646484"/>
      <use xlink:href="#DejaVuSans-65" x="415.429688"/>
      <use xlink:href="#DejaVuSans-73" x="476.953125"/>
     </g>
    </g>
   </g>
   <g id="matplotlib.axis_8">
    <g id="ytick_19">
     <g id="line2d_47">
      <g>
       <use xlink:href="#mdda0e8e9fe" x="1107.094548" y="260.904682" style="stroke: #000000; stroke-width: 1.875"/>
      </g>
     </g>
    </g>
    <g id="ytick_20">
     <g id="line2d_48">
      <g>
       <use xlink:href="#mdda0e8e9fe" x="1107.094548" y="214.796957" style="stroke: #000000; stroke-width: 1.875"/>
      </g>
     </g>
    </g>
    <g id="ytick_21">
     <g id="line2d_49">
      <g>
       <use xlink:href="#mdda0e8e9fe" x="1107.094548" y="168.689233" style="stroke: #000000; stroke-width: 1.875"/>
      </g>
     </g>
    </g>
    <g id="ytick_22">
     <g id="line2d_50">
      <g>
       <use xlink:href="#mdda0e8e9fe" x="1107.094548" y="122.581508" style="stroke: #000000; stroke-width: 1.875"/>
      </g>
     </g>
    </g>
    <g id="ytick_23">
     <g id="line2d_51">
      <g>
       <use xlink:href="#mdda0e8e9fe" x="1107.094548" y="76.473783" style="stroke: #000000; stroke-width: 1.875"/>
      </g>
     </g>
    </g>
    <g id="ytick_24">
     <g id="line2d_52">
      <g>
       <use xlink:href="#mdda0e8e9fe" x="1107.094548" y="30.366059" style="stroke: #000000; stroke-width: 1.875"/>
      </g>
     </g>
    </g>
   </g>
   <g id="line2d_53">
    <path d="M 1123.181739 174.206396 
L 1125.274807 187.753003 
L 1127.433284 194.452416 
L 1129.526352 199.329195 
L 1131.684829 206.570472 
L 1133.777897 213.220625 
L 1135.870965 217.161456 
L 1138.029441 221.939714 
L 1140.122509 226.225368 
L 1142.280986 228.195783 
" clip-path="url(#p290d706219)" style="fill: none; stroke: #000000; stroke-width: 2.25; stroke-linecap: square"/>
   </g>
   <g id="line2d_54">
    <path d="M 1123.181739 205.831566 
L 1125.274807 214.747697 
L 1127.433284 226.865753 
L 1129.526352 230.116938 
L 1131.684829 234.205551 
L 1133.777897 240.116797 
L 1135.870965 242.136473 
L 1138.029441 238.244903 
L 1140.122509 240.954224 
L 1142.280986 238.688246 
" clip-path="url(#p290d706219)" style="fill: none; stroke-dasharray: 9,3.375; stroke-dashoffset: 0; stroke: #000000; stroke-width: 2.25"/>
   </g>
   <g id="patch_12">
    <path d="M 1107.094548 277.977187 
L 1107.094548 26.877187 
" style="fill: none; stroke: #000000; stroke-width: 1.875; stroke-linejoin: miter; stroke-linecap: square"/>
   </g>
   <g id="patch_13">
    <path d="M 1107.094548 277.977187 
L 1420.721185 277.977187 
" style="fill: none; stroke: #000000; stroke-width: 1.875; stroke-linejoin: miter; stroke-linecap: square"/>
   </g>
   <g id="text_35">
    <!-- dataset = rsvp -->
    <g transform="translate(1197.189742 20.877187) scale(0.18 -0.18)">
     <defs>
      <path id="DejaVuSans-76" d="M 191 3500 
L 800 3500 
L 1894 563 
L 2988 3500 
L 3597 3500 
L 2284 0 
L 1503 0 
L 191 3500 
z
" transform="scale(0.015625)"/>
     </defs>
     <use xlink:href="#DejaVuSans-64"/>
     <use xlink:href="#DejaVuSans-61" x="63.476562"/>
     <use xlink:href="#DejaVuSans-74" x="124.755859"/>
     <use xlink:href="#DejaVuSans-61" x="163.964844"/>
     <use xlink:href="#DejaVuSans-73" x="225.244141"/>
     <use xlink:href="#DejaVuSans-65" x="277.34375"/>
     <use xlink:href="#DejaVuSans-74" x="338.867188"/>
     <use xlink:href="#DejaVuSans-20" x="378.076172"/>
     <use xlink:href="#DejaVuSans-3d" x="409.863281"/>
     <use xlink:href="#DejaVuSans-20" x="493.652344"/>
     <use xlink:href="#DejaVuSans-72" x="525.439453"/>
     <use xlink:href="#DejaVuSans-73" x="566.552734"/>
     <use xlink:href="#DejaVuSans-76" x="618.652344"/>
     <use xlink:href="#DejaVuSans-70" x="677.832031"/>
    </g>
   </g>
  </g>
  <g id="axes_5">
   <g id="patch_14">
    <path d="M 1449.063643 277.977187 
L 1762.690279 277.977187 
L 1762.690279 26.877187 
L 1449.063643 26.877187 
z
" style="fill: #ffffff"/>
   </g>
   <g id="PolyCollection_9">
    <defs>
     <path id="m32a35e6e25" d="M 1491.575819 -113.719347 
L 1491.575819 -110.173627 
L 1520.093872 -110.182107 
L 1548.611925 -109.232561 
L 1577.195387 -110.548251 
L 1605.71344 -112.071012 
L 1634.231493 -109.617237 
L 1662.814955 -105.325823 
L 1691.333008 -104.249403 
L 1719.851061 -101.710964 
L 1748.434523 -99.356538 
L 1748.434523 -105.45837 
L 1748.434523 -105.45837 
L 1719.851061 -107.376317 
L 1691.333008 -109.391373 
L 1662.814955 -110.016744 
L 1634.231493 -113.938354 
L 1605.71344 -116.566279 
L 1577.195387 -115.358155 
L 1548.611925 -113.771876 
L 1520.093872 -114.356634 
L 1491.575819 -113.719347 
z
" style="stroke: #000000; stroke-opacity: 0.2; stroke-width: 1.5"/>
    </defs>
    <g clip-path="url(#p72166b8960)">
     <use xlink:href="#m32a35e6e25" x="0" y="335.567344" style="fill-opacity: 0.2; stroke: #000000; stroke-opacity: 0.2; stroke-width: 1.5"/>
    </g>
   </g>
   <g id="matplotlib.axis_9">
    <g id="xtick_21">
     <g id="line2d_55">
      <g>
       <use xlink:href="#m5aac213c70" x="1463.057765" y="277.977187" style="stroke: #000000; stroke-width: 1.875"/>
      </g>
     </g>
     <g id="text_36">
      <!-- 0 -->
      <g transform="translate(1457.808703 303.014609) scale(0.165 -0.165)">
       <use xlink:href="#DejaVuSans-30"/>
      </g>
     </g>
    </g>
    <g id="xtick_22">
     <g id="line2d_56">
      <g>
       <use xlink:href="#m5aac213c70" x="1528.466144" y="277.977187" style="stroke: #000000; stroke-width: 1.875"/>
      </g>
     </g>
     <g id="text_37">
      <!-- 1000 -->
      <g transform="translate(1507.469894 303.014609) scale(0.165 -0.165)">
       <use xlink:href="#DejaVuSans-31"/>
       <use xlink:href="#DejaVuSans-30" x="63.623047"/>
       <use xlink:href="#DejaVuSans-30" x="127.246094"/>
       <use xlink:href="#DejaVuSans-30" x="190.869141"/>
      </g>
     </g>
    </g>
    <g id="xtick_23">
     <g id="line2d_57">
      <g>
       <use xlink:href="#m5aac213c70" x="1593.874523" y="277.977187" style="stroke: #000000; stroke-width: 1.875"/>
      </g>
     </g>
     <g id="text_38">
      <!-- 2000 -->
      <g transform="translate(1572.878273 303.014609) scale(0.165 -0.165)">
       <use xlink:href="#DejaVuSans-32"/>
       <use xlink:href="#DejaVuSans-30" x="63.623047"/>
       <use xlink:href="#DejaVuSans-30" x="127.246094"/>
       <use xlink:href="#DejaVuSans-30" x="190.869141"/>
      </g>
     </g>
    </g>
    <g id="xtick_24">
     <g id="line2d_58">
      <g>
       <use xlink:href="#m5aac213c70" x="1659.282902" y="277.977187" style="stroke: #000000; stroke-width: 1.875"/>
      </g>
     </g>
     <g id="text_39">
      <!-- 3000 -->
      <g transform="translate(1638.286652 303.014609) scale(0.165 -0.165)">
       <use xlink:href="#DejaVuSans-33"/>
       <use xlink:href="#DejaVuSans-30" x="63.623047"/>
       <use xlink:href="#DejaVuSans-30" x="127.246094"/>
       <use xlink:href="#DejaVuSans-30" x="190.869141"/>
      </g>
     </g>
    </g>
    <g id="xtick_25">
     <g id="line2d_59">
      <g>
       <use xlink:href="#m5aac213c70" x="1724.691281" y="277.977187" style="stroke: #000000; stroke-width: 1.875"/>
      </g>
     </g>
     <g id="text_40">
      <!-- 4000 -->
      <g transform="translate(1703.695031 303.014609) scale(0.165 -0.165)">
       <use xlink:href="#DejaVuSans-34"/>
       <use xlink:href="#DejaVuSans-30" x="63.623047"/>
       <use xlink:href="#DejaVuSans-30" x="127.246094"/>
       <use xlink:href="#DejaVuSans-30" x="190.869141"/>
      </g>
     </g>
    </g>
    <g id="text_41">
     <!-- n_samples -->
     <g transform="translate(1558.262742 324.123281) scale(0.18 -0.18)">
      <use xlink:href="#DejaVuSans-6e"/>
      <use xlink:href="#DejaVuSans-5f" x="63.378906"/>
      <use xlink:href="#DejaVuSans-73" x="113.378906"/>
      <use xlink:href="#DejaVuSans-61" x="165.478516"/>
      <use xlink:href="#DejaVuSans-6d" x="226.757812"/>
      <use xlink:href="#DejaVuSans-70" x="324.169922"/>
      <use xlink:href="#DejaVuSans-6c" x="387.646484"/>
      <use xlink:href="#DejaVuSans-65" x="415.429688"/>
      <use xlink:href="#DejaVuSans-73" x="476.953125"/>
     </g>
    </g>
   </g>
   <g id="matplotlib.axis_10">
    <g id="ytick_25">
     <g id="line2d_60">
      <g>
       <use xlink:href="#mdda0e8e9fe" x="1449.063643" y="260.904682" style="stroke: #000000; stroke-width: 1.875"/>
      </g>
     </g>
    </g>
    <g id="ytick_26">
     <g id="line2d_61">
      <g>
       <use xlink:href="#mdda0e8e9fe" x="1449.063643" y="214.796957" style="stroke: #000000; stroke-width: 1.875"/>
      </g>
     </g>
    </g>
    <g id="ytick_27">
     <g id="line2d_62">
      <g>
       <use xlink:href="#mdda0e8e9fe" x="1449.063643" y="168.689233" style="stroke: #000000; stroke-width: 1.875"/>
      </g>
     </g>
    </g>
    <g id="ytick_28">
     <g id="line2d_63">
      <g>
       <use xlink:href="#mdda0e8e9fe" x="1449.063643" y="122.581508" style="stroke: #000000; stroke-width: 1.875"/>
      </g>
     </g>
    </g>
    <g id="ytick_29">
     <g id="line2d_64">
      <g>
       <use xlink:href="#mdda0e8e9fe" x="1449.063643" y="76.473783" style="stroke: #000000; stroke-width: 1.875"/>
      </g>
     </g>
    </g>
    <g id="ytick_30">
     <g id="line2d_65">
      <g>
       <use xlink:href="#mdda0e8e9fe" x="1449.063643" y="30.366059" style="stroke: #000000; stroke-width: 1.875"/>
      </g>
     </g>
    </g>
   </g>
   <g id="line2d_66">
    <path d="M 1491.575819 223.649325 
L 1520.093872 223.256118 
L 1548.611925 224.09812 
L 1577.195387 222.677019 
L 1605.71344 221.315018 
L 1634.231493 223.888607 
L 1662.814955 227.916826 
L 1691.333008 228.752971 
L 1719.851061 230.939307 
L 1748.434523 233.173909 
" clip-path="url(#p72166b8960)" style="fill: none; stroke-dasharray: 9,3.375; stroke-dashoffset: 0; stroke: #000000; stroke-width: 2.25"/>
   </g>
   <g id="patch_15">
    <path d="M 1449.063643 277.977187 
L 1449.063643 26.877187 
" style="fill: none; stroke: #000000; stroke-width: 1.875; stroke-linejoin: miter; stroke-linecap: square"/>
   </g>
   <g id="patch_16">
    <path d="M 1449.063643 277.977187 
L 1762.690279 277.977187 
" style="fill: none; stroke: #000000; stroke-width: 1.875; stroke-linejoin: miter; stroke-linecap: square"/>
   </g>
   <g id="text_42">
    <!-- dataset = nsd -->
    <g transform="translate(1542.481805 20.877187) scale(0.18 -0.18)">
     <use xlink:href="#DejaVuSans-64"/>
     <use xlink:href="#DejaVuSans-61" x="63.476562"/>
     <use xlink:href="#DejaVuSans-74" x="124.755859"/>
     <use xlink:href="#DejaVuSans-61" x="163.964844"/>
     <use xlink:href="#DejaVuSans-73" x="225.244141"/>
     <use xlink:href="#DejaVuSans-65" x="277.34375"/>
     <use xlink:href="#DejaVuSans-74" x="338.867188"/>
     <use xlink:href="#DejaVuSans-20" x="378.076172"/>
     <use xlink:href="#DejaVuSans-3d" x="409.863281"/>
     <use xlink:href="#DejaVuSans-20" x="493.652344"/>
     <use xlink:href="#DejaVuSans-6e" x="525.439453"/>
     <use xlink:href="#DejaVuSans-73" x="588.818359"/>
     <use xlink:href="#DejaVuSans-64" x="640.917969"/>
    </g>
   </g>
  </g>
  <g id="legend_1">
   <g id="text_43">
    <!-- feature -->
    <g transform="translate(1798.534692 148.531641) scale(0.18 -0.18)">
     <use xlink:href="#DejaVuSans-66"/>
     <use xlink:href="#DejaVuSans-65" x="35.205078"/>
     <use xlink:href="#DejaVuSans-61" x="96.728516"/>
     <use xlink:href="#DejaVuSans-74" x="158.007812"/>
     <use xlink:href="#DejaVuSans-75" x="197.216797"/>
     <use xlink:href="#DejaVuSans-72" x="260.595703"/>
     <use xlink:href="#DejaVuSans-65" x="299.458984"/>
    </g>
   </g>
   <g id="line2d_67">
    <path d="M 1779.177192 167.2875 
L 1795.677192 167.2875 
L 1812.177192 167.2875 
" style="fill: none; stroke: #000000; stroke-width: 2.25; stroke-linecap: square"/>
   </g>
   <g id="text_44">
    <!-- voxels -->
    <g transform="translate(1825.377192 173.0625) scale(0.165 -0.165)">
     <defs>
      <path id="DejaVuSans-78" d="M 3513 3500 
L 2247 1797 
L 3578 0 
L 2900 0 
L 1881 1375 
L 863 0 
L 184 0 
L 1544 1831 
L 300 3500 
L 978 3500 
L 1906 2253 
L 2834 3500 
L 3513 3500 
z
" transform="scale(0.015625)"/>
     </defs>
     <use xlink:href="#DejaVuSans-76"/>
     <use xlink:href="#DejaVuSans-6f" x="59.179688"/>
     <use xlink:href="#DejaVuSans-78" x="117.236328"/>
     <use xlink:href="#DejaVuSans-65" x="173.291016"/>
     <use xlink:href="#DejaVuSans-6c" x="234.814453"/>
     <use xlink:href="#DejaVuSans-73" x="262.597656"/>
    </g>
   </g>
   <g id="line2d_68">
    <path d="M 1779.177192 191.506406 
L 1795.677192 191.506406 
L 1812.177192 191.506406 
" style="fill: none; stroke-dasharray: 9,3.375; stroke-dashoffset: 0; stroke: #000000; stroke-width: 2.25"/>
   </g>
   <g id="text_45">
    <!-- difumo -->
    <g transform="translate(1825.377192 197.281406) scale(0.165 -0.165)">
     <use xlink:href="#DejaVuSans-64"/>
     <use xlink:href="#DejaVuSans-69" x="63.476562"/>
     <use xlink:href="#DejaVuSans-66" x="91.259766"/>
     <use xlink:href="#DejaVuSans-75" x="126.464844"/>
     <use xlink:href="#DejaVuSans-6d" x="189.84375"/>
     <use xlink:href="#DejaVuSans-6f" x="287.255859"/>
    </g>
   </g>
  </g>
 </g>
 <defs>
  <clipPath id="pde1cd087ce">
   <rect x="81.187266" y="26.877187" width="313.626636" height="251.1"/>
  </clipPath>
  <clipPath id="p3d9142674e">
   <rect x="423.15636" y="26.877187" width="313.626636" height="251.1"/>
  </clipPath>
  <clipPath id="pa1bb2bf6be">
   <rect x="765.125454" y="26.877187" width="313.626636" height="251.1"/>
  </clipPath>
  <clipPath id="p290d706219">
   <rect x="1107.094548" y="26.877187" width="313.626636" height="251.1"/>
  </clipPath>
  <clipPath id="p72166b8960">
   <rect x="1449.063643" y="26.877187" width="313.626636" height="251.1"/>
  </clipPath>
 </defs>
</svg>
