<?xml version="1.0" encoding="utf-8" standalone="no"?>
<!DOCTYPE svg PUBLIC "-//W3C//DTD SVG 1.1//EN"
  "http://www.w3.org/Graphics/SVG/1.1/DTD/svg11.dtd">
<svg xmlns:xlink="http://www.w3.org/1999/xlink" width="1955.918872pt" height="335.567344pt" viewBox="0 0 1955.918872 335.567344" xmlns="http://www.w3.org/2000/svg" version="1.1">
 <metadata>
  <rdf:RDF xmlns:dc="http://purl.org/dc/elements/1.1/" xmlns:cc="http://creativecommons.org/ns#" xmlns:rdf="http://www.w3.org/1999/02/22-rdf-syntax-ns#">
   <cc:Work>
    <dc:type rdf:resource="http://purl.org/dc/dcmitype/StillImage"/>
    <dc:date>2024-01-31T14:14:14.766067</dc:date>
    <dc:format>image/svg+xml</dc:format>
    <dc:creator>
     <cc:Agent>
      <dc:title>Matplotlib v3.8.0, https://matplotlib.org/</dc:title>
     </cc:Agent>
    </dc:creator>
   </cc:Work>
  </rdf:RDF>
 </metadata>
 <defs>
  <style type="text/css">*{stroke-linejoin: round; stroke-linecap: butt}</style>
 </defs>
 <g id="figure_1">
  <g id="patch_1">
   <path d="M 0 335.567344 
L 1955.918872 335.567344 
L 1955.918872 0 
L 0 0 
z
" style="fill: #ffffff"/>
  </g>
  <g id="axes_1">
   <g id="patch_2">
    <path d="M 81.187266 277.977187 
L 394.106204 277.977187 
L 394.106204 26.877187 
L 81.187266 26.877187 
z
" style="fill: #ffffff"/>
   </g>
   <g id="PolyCollection_1">
    <defs>
     <path id="m8ca863d170" d="M 95.410854 -269.754515 
L 95.410854 -227.683353 
L 95.737158 -200.161348 
L 95.998201 -195.088168 
L 96.324505 -172.621225 
L 96.650809 -169.704146 
L 96.911852 -153.777983 
L 97.238156 -149.411424 
L 97.499199 -150.154282 
L 97.825503 -153.777983 
L 98.151807 -142.906881 
L 98.151807 -181.318106 
L 98.151807 -181.318106 
L 97.825503 -192.913947 
L 97.499199 -193.638687 
L 97.238156 -187.116027 
L 96.911852 -198.711868 
L 96.650809 -216.10563 
L 96.324505 -217.55511 
L 95.998201 -235.691731 
L 95.737158 -242.196273 
L 95.410854 -269.754515 
z
" style="stroke: #000000; stroke-opacity: 0.2; stroke-width: 1.5"/>
    </defs>
    <g clip-path="url(#p686cc3e82f)">
     <use xlink:href="#m8ca863d170" x="0" y="335.567344" style="fill-opacity: 0.2; stroke: #000000; stroke-opacity: 0.2; stroke-width: 1.5"/>
    </g>
   </g>
   <g id="PolyCollection_2">
    <defs>
     <path id="mab914bcead" d="M 95.410854 -274.809577 
L 95.410854 -217.55511 
L 95.737158 -252.342635 
L 95.998201 -230.600432 
L 96.324505 -216.83037 
L 96.650809 -179.143886 
L 96.911852 -171.896485 
L 97.238156 -162.474864 
L 97.499199 -147.237203 
L 97.825503 -137.108961 
L 98.151807 -139.265062 
L 98.151807 -174.070705 
L 98.151807 -174.070705 
L 97.825503 -179.143886 
L 97.499199 -184.941806 
L 97.238156 -204.509789 
L 96.911852 -211.03245 
L 96.650809 -222.628291 
L 96.324505 -260.314775 
L 95.998201 -276.277176 
L 95.737158 -297.27652 
L 95.410854 -274.809577 
z
" style="stroke: #000000; stroke-opacity: 0.2; stroke-width: 1.5"/>
    </defs>
    <g clip-path="url(#p686cc3e82f)">
     <use xlink:href="#mab914bcead" x="0" y="335.567344" style="fill-opacity: 0.2; stroke: #000000; stroke-opacity: 0.2; stroke-width: 1.5"/>
    </g>
   </g>
   <g id="matplotlib.axis_1">
    <g id="xtick_1">
     <g id="line2d_1">
      <defs>
       <path id="m44fde45e55" d="M 0 0 
L 0 9 
" style="stroke: #000000; stroke-width: 1.875"/>
      </defs>
      <g>
       <use xlink:href="#m44fde45e55" x="95.149811" y="277.977187" style="stroke: #000000; stroke-width: 1.875"/>
      </g>
     </g>
     <g id="text_1">
      <!-- 0 -->
      <g transform="translate(89.900748 303.014609) scale(0.165 -0.165)">
       <defs>
        <path id="DejaVuSans-30" d="M 2034 4250 
Q 1547 4250 1301 3770 
Q 1056 3291 1056 2328 
Q 1056 1369 1301 889 
Q 1547 409 2034 409 
Q 2525 409 2770 889 
Q 3016 1369 3016 2328 
Q 3016 3291 2770 3770 
Q 2525 4250 2034 4250 
z
M 2034 4750 
Q 2819 4750 3233 4129 
Q 3647 3509 3647 2328 
Q 3647 1150 3233 529 
Q 2819 -91 2034 -91 
Q 1250 -91 836 529 
Q 422 1150 422 2328 
Q 422 3509 836 4129 
Q 1250 4750 2034 4750 
z
" transform="scale(0.015625)"/>
       </defs>
       <use xlink:href="#DejaVuSans-30"/>
      </g>
     </g>
    </g>
    <g id="xtick_2">
     <g id="line2d_2">
      <g>
       <use xlink:href="#m44fde45e55" x="160.410596" y="277.977187" style="stroke: #000000; stroke-width: 1.875"/>
      </g>
     </g>
     <g id="text_2">
      <!-- 1000 -->
      <g transform="translate(139.414346 303.014609) scale(0.165 -0.165)">
       <defs>
        <path id="DejaVuSans-31" d="M 794 531 
L 1825 531 
L 1825 4091 
L 703 3866 
L 703 4441 
L 1819 4666 
L 2450 4666 
L 2450 531 
L 3481 531 
L 3481 0 
L 794 0 
L 794 531 
z
" transform="scale(0.015625)"/>
       </defs>
       <use xlink:href="#DejaVuSans-31"/>
       <use xlink:href="#DejaVuSans-30" x="63.623047"/>
       <use xlink:href="#DejaVuSans-30" x="127.246094"/>
       <use xlink:href="#DejaVuSans-30" x="190.869141"/>
      </g>
     </g>
    </g>
    <g id="xtick_3">
     <g id="line2d_3">
      <g>
       <use xlink:href="#m44fde45e55" x="225.671381" y="277.977187" style="stroke: #000000; stroke-width: 1.875"/>
      </g>
     </g>
     <g id="text_3">
      <!-- 2000 -->
      <g transform="translate(204.675131 303.014609) scale(0.165 -0.165)">
       <defs>
        <path id="DejaVuSans-32" d="M 1228 531 
L 3431 531 
L 3431 0 
L 469 0 
L 469 531 
Q 828 903 1448 1529 
Q 2069 2156 2228 2338 
Q 2531 2678 2651 2914 
Q 2772 3150 2772 3378 
Q 2772 3750 2511 3984 
Q 2250 4219 1831 4219 
Q 1534 4219 1204 4116 
Q 875 4013 500 3803 
L 500 4441 
Q 881 4594 1212 4672 
Q 1544 4750 1819 4750 
Q 2544 4750 2975 4387 
Q 3406 4025 3406 3419 
Q 3406 3131 3298 2873 
Q 3191 2616 2906 2266 
Q 2828 2175 2409 1742 
Q 1991 1309 1228 531 
z
" transform="scale(0.015625)"/>
       </defs>
       <use xlink:href="#DejaVuSans-32"/>
       <use xlink:href="#DejaVuSans-30" x="63.623047"/>
       <use xlink:href="#DejaVuSans-30" x="127.246094"/>
       <use xlink:href="#DejaVuSans-30" x="190.869141"/>
      </g>
     </g>
    </g>
    <g id="xtick_4">
     <g id="line2d_4">
      <g>
       <use xlink:href="#m44fde45e55" x="290.932166" y="277.977187" style="stroke: #000000; stroke-width: 1.875"/>
      </g>
     </g>
     <g id="text_4">
      <!-- 3000 -->
      <g transform="translate(269.935916 303.014609) scale(0.165 -0.165)">
       <defs>
        <path id="DejaVuSans-33" d="M 2597 2516 
Q 3050 2419 3304 2112 
Q 3559 1806 3559 1356 
Q 3559 666 3084 287 
Q 2609 -91 1734 -91 
Q 1441 -91 1130 -33 
Q 819 25 488 141 
L 488 750 
Q 750 597 1062 519 
Q 1375 441 1716 441 
Q 2309 441 2620 675 
Q 2931 909 2931 1356 
Q 2931 1769 2642 2001 
Q 2353 2234 1838 2234 
L 1294 2234 
L 1294 2753 
L 1863 2753 
Q 2328 2753 2575 2939 
Q 2822 3125 2822 3475 
Q 2822 3834 2567 4026 
Q 2313 4219 1838 4219 
Q 1578 4219 1281 4162 
Q 984 4106 628 3988 
L 628 4550 
Q 988 4650 1302 4700 
Q 1616 4750 1894 4750 
Q 2613 4750 3031 4423 
Q 3450 4097 3450 3541 
Q 3450 3153 3228 2886 
Q 3006 2619 2597 2516 
z
" transform="scale(0.015625)"/>
       </defs>
       <use xlink:href="#DejaVuSans-33"/>
       <use xlink:href="#DejaVuSans-30" x="63.623047"/>
       <use xlink:href="#DejaVuSans-30" x="127.246094"/>
       <use xlink:href="#DejaVuSans-30" x="190.869141"/>
      </g>
     </g>
    </g>
    <g id="xtick_5">
     <g id="line2d_5">
      <g>
       <use xlink:href="#m44fde45e55" x="356.192951" y="277.977187" style="stroke: #000000; stroke-width: 1.875"/>
      </g>
     </g>
     <g id="text_5">
      <!-- 4000 -->
      <g transform="translate(335.196701 303.014609) scale(0.165 -0.165)">
       <defs>
        <path id="DejaVuSans-34" d="M 2419 4116 
L 825 1625 
L 2419 1625 
L 2419 4116 
z
M 2253 4666 
L 3047 4666 
L 3047 1625 
L 3713 1625 
L 3713 1100 
L 3047 1100 
L 3047 0 
L 2419 0 
L 2419 1100 
L 313 1100 
L 313 1709 
L 2253 4666 
z
" transform="scale(0.015625)"/>
       </defs>
       <use xlink:href="#DejaVuSans-34"/>
       <use xlink:href="#DejaVuSans-30" x="63.623047"/>
       <use xlink:href="#DejaVuSans-30" x="127.246094"/>
       <use xlink:href="#DejaVuSans-30" x="190.869141"/>
      </g>
     </g>
    </g>
    <g id="text_6">
     <!-- n_samples -->
     <g transform="translate(190.032516 324.123281) scale(0.18 -0.18)">
      <defs>
       <path id="DejaVuSans-6e" d="M 3513 2113 
L 3513 0 
L 2938 0 
L 2938 2094 
Q 2938 2591 2744 2837 
Q 2550 3084 2163 3084 
Q 1697 3084 1428 2787 
Q 1159 2491 1159 1978 
L 1159 0 
L 581 0 
L 581 3500 
L 1159 3500 
L 1159 2956 
Q 1366 3272 1645 3428 
Q 1925 3584 2291 3584 
Q 2894 3584 3203 3211 
Q 3513 2838 3513 2113 
z
" transform="scale(0.015625)"/>
       <path id="DejaVuSans-5f" d="M 3263 -1063 
L 3263 -1509 
L -63 -1509 
L -63 -1063 
L 3263 -1063 
z
" transform="scale(0.015625)"/>
       <path id="DejaVuSans-73" d="M 2834 3397 
L 2834 2853 
Q 2591 2978 2328 3040 
Q 2066 3103 1784 3103 
Q 1356 3103 1142 2972 
Q 928 2841 928 2578 
Q 928 2378 1081 2264 
Q 1234 2150 1697 2047 
L 1894 2003 
Q 2506 1872 2764 1633 
Q 3022 1394 3022 966 
Q 3022 478 2636 193 
Q 2250 -91 1575 -91 
Q 1294 -91 989 -36 
Q 684 19 347 128 
L 347 722 
Q 666 556 975 473 
Q 1284 391 1588 391 
Q 1994 391 2212 530 
Q 2431 669 2431 922 
Q 2431 1156 2273 1281 
Q 2116 1406 1581 1522 
L 1381 1569 
Q 847 1681 609 1914 
Q 372 2147 372 2553 
Q 372 3047 722 3315 
Q 1072 3584 1716 3584 
Q 2034 3584 2315 3537 
Q 2597 3491 2834 3397 
z
" transform="scale(0.015625)"/>
       <path id="DejaVuSans-61" d="M 2194 1759 
Q 1497 1759 1228 1600 
Q 959 1441 959 1056 
Q 959 750 1161 570 
Q 1363 391 1709 391 
Q 2188 391 2477 730 
Q 2766 1069 2766 1631 
L 2766 1759 
L 2194 1759 
z
M 3341 1997 
L 3341 0 
L 2766 0 
L 2766 531 
Q 2569 213 2275 61 
Q 1981 -91 1556 -91 
Q 1019 -91 701 211 
Q 384 513 384 1019 
Q 384 1609 779 1909 
Q 1175 2209 1959 2209 
L 2766 2209 
L 2766 2266 
Q 2766 2663 2505 2880 
Q 2244 3097 1772 3097 
Q 1472 3097 1187 3025 
Q 903 2953 641 2809 
L 641 3341 
Q 956 3463 1253 3523 
Q 1550 3584 1831 3584 
Q 2591 3584 2966 3190 
Q 3341 2797 3341 1997 
z
" transform="scale(0.015625)"/>
       <path id="DejaVuSans-6d" d="M 3328 2828 
Q 3544 3216 3844 3400 
Q 4144 3584 4550 3584 
Q 5097 3584 5394 3201 
Q 5691 2819 5691 2113 
L 5691 0 
L 5113 0 
L 5113 2094 
Q 5113 2597 4934 2840 
Q 4756 3084 4391 3084 
Q 3944 3084 3684 2787 
Q 3425 2491 3425 1978 
L 3425 0 
L 2847 0 
L 2847 2094 
Q 2847 2600 2669 2842 
Q 2491 3084 2119 3084 
Q 1678 3084 1418 2786 
Q 1159 2488 1159 1978 
L 1159 0 
L 581 0 
L 581 3500 
L 1159 3500 
L 1159 2956 
Q 1356 3278 1631 3431 
Q 1906 3584 2284 3584 
Q 2666 3584 2933 3390 
Q 3200 3197 3328 2828 
z
" transform="scale(0.015625)"/>
       <path id="DejaVuSans-70" d="M 1159 525 
L 1159 -1331 
L 581 -1331 
L 581 3500 
L 1159 3500 
L 1159 2969 
Q 1341 3281 1617 3432 
Q 1894 3584 2278 3584 
Q 2916 3584 3314 3078 
Q 3713 2572 3713 1747 
Q 3713 922 3314 415 
Q 2916 -91 2278 -91 
Q 1894 -91 1617 61 
Q 1341 213 1159 525 
z
M 3116 1747 
Q 3116 2381 2855 2742 
Q 2594 3103 2138 3103 
Q 1681 3103 1420 2742 
Q 1159 2381 1159 1747 
Q 1159 1113 1420 752 
Q 1681 391 2138 391 
Q 2594 391 2855 752 
Q 3116 1113 3116 1747 
z
" transform="scale(0.015625)"/>
       <path id="DejaVuSans-6c" d="M 603 4863 
L 1178 4863 
L 1178 0 
L 603 0 
L 603 4863 
z
" transform="scale(0.015625)"/>
       <path id="DejaVuSans-65" d="M 3597 1894 
L 3597 1613 
L 953 1613 
Q 991 1019 1311 708 
Q 1631 397 2203 397 
Q 2534 397 2845 478 
Q 3156 559 3463 722 
L 3463 178 
Q 3153 47 2828 -22 
Q 2503 -91 2169 -91 
Q 1331 -91 842 396 
Q 353 884 353 1716 
Q 353 2575 817 3079 
Q 1281 3584 2069 3584 
Q 2775 3584 3186 3129 
Q 3597 2675 3597 1894 
z
M 3022 2063 
Q 3016 2534 2758 2815 
Q 2500 3097 2075 3097 
Q 1594 3097 1305 2825 
Q 1016 2553 972 2059 
L 3022 2063 
z
" transform="scale(0.015625)"/>
      </defs>
      <use xlink:href="#DejaVuSans-6e"/>
      <use xlink:href="#DejaVuSans-5f" x="63.378906"/>
      <use xlink:href="#DejaVuSans-73" x="113.378906"/>
      <use xlink:href="#DejaVuSans-61" x="165.478516"/>
      <use xlink:href="#DejaVuSans-6d" x="226.757812"/>
      <use xlink:href="#DejaVuSans-70" x="324.169922"/>
      <use xlink:href="#DejaVuSans-6c" x="387.646484"/>
      <use xlink:href="#DejaVuSans-65" x="415.429688"/>
      <use xlink:href="#DejaVuSans-73" x="476.953125"/>
     </g>
    </g>
   </g>
   <g id="matplotlib.axis_2">
    <g id="ytick_1">
     <g id="line2d_6">
      <defs>
       <path id="m6e340cee35" d="M 0 0 
L -9 0 
" style="stroke: #000000; stroke-width: 1.875"/>
      </defs>
      <g>
       <use xlink:href="#m6e340cee35" x="81.187266" y="260.786031" style="stroke: #000000; stroke-width: 1.875"/>
      </g>
     </g>
     <g id="text_7">
      <!-- −0.1 -->
      <g transform="translate(28.620625 267.054741) scale(0.165 -0.165)">
       <defs>
        <path id="DejaVuSans-2212" d="M 678 2272 
L 4684 2272 
L 4684 1741 
L 678 1741 
L 678 2272 
z
" transform="scale(0.015625)"/>
        <path id="DejaVuSans-2e" d="M 684 794 
L 1344 794 
L 1344 0 
L 684 0 
L 684 794 
z
" transform="scale(0.015625)"/>
       </defs>
       <use xlink:href="#DejaVuSans-2212"/>
       <use xlink:href="#DejaVuSans-30" x="83.789062"/>
       <use xlink:href="#DejaVuSans-2e" x="147.412109"/>
       <use xlink:href="#DejaVuSans-31" x="179.199219"/>
      </g>
     </g>
    </g>
    <g id="ytick_2">
     <g id="line2d_7">
      <g>
       <use xlink:href="#m6e340cee35" x="81.187266" y="214.402665" style="stroke: #000000; stroke-width: 1.875"/>
      </g>
     </g>
     <g id="text_8">
      <!-- 0.0 -->
      <g transform="translate(42.447109 220.671376) scale(0.165 -0.165)">
       <use xlink:href="#DejaVuSans-30"/>
       <use xlink:href="#DejaVuSans-2e" x="63.623047"/>
       <use xlink:href="#DejaVuSans-30" x="95.410156"/>
      </g>
     </g>
    </g>
    <g id="ytick_3">
     <g id="line2d_8">
      <g>
       <use xlink:href="#m6e340cee35" x="81.187266" y="168.019299" style="stroke: #000000; stroke-width: 1.875"/>
      </g>
     </g>
     <g id="text_9">
      <!-- 0.1 -->
      <g transform="translate(42.447109 174.28801) scale(0.165 -0.165)">
       <use xlink:href="#DejaVuSans-30"/>
       <use xlink:href="#DejaVuSans-2e" x="63.623047"/>
       <use xlink:href="#DejaVuSans-31" x="95.410156"/>
      </g>
     </g>
    </g>
    <g id="ytick_4">
     <g id="line2d_9">
      <g>
       <use xlink:href="#m6e340cee35" x="81.187266" y="121.635934" style="stroke: #000000; stroke-width: 1.875"/>
      </g>
     </g>
     <g id="text_10">
      <!-- 0.2 -->
      <g transform="translate(42.447109 127.904645) scale(0.165 -0.165)">
       <use xlink:href="#DejaVuSans-30"/>
       <use xlink:href="#DejaVuSans-2e" x="63.623047"/>
       <use xlink:href="#DejaVuSans-32" x="95.410156"/>
      </g>
     </g>
    </g>
    <g id="ytick_5">
     <g id="line2d_10">
      <g>
       <use xlink:href="#m6e340cee35" x="81.187266" y="75.252568" style="stroke: #000000; stroke-width: 1.875"/>
      </g>
     </g>
     <g id="text_11">
      <!-- 0.3 -->
      <g transform="translate(42.447109 81.521279) scale(0.165 -0.165)">
       <use xlink:href="#DejaVuSans-30"/>
       <use xlink:href="#DejaVuSans-2e" x="63.623047"/>
       <use xlink:href="#DejaVuSans-33" x="95.410156"/>
      </g>
     </g>
    </g>
    <g id="ytick_6">
     <g id="line2d_11">
      <g>
       <use xlink:href="#m6e340cee35" x="81.187266" y="28.869203" style="stroke: #000000; stroke-width: 1.875"/>
      </g>
     </g>
     <g id="text_12">
      <!-- 0.4 -->
      <g transform="translate(42.447109 35.137914) scale(0.165 -0.165)">
       <use xlink:href="#DejaVuSans-30"/>
       <use xlink:href="#DejaVuSans-2e" x="63.623047"/>
       <use xlink:href="#DejaVuSans-34" x="95.410156"/>
      </g>
     </g>
    </g>
    <g id="text_13">
     <!-- gain -->
     <g transform="translate(20.877188 171.860156) rotate(-90) scale(0.18 -0.18)">
      <defs>
       <path id="DejaVuSans-67" d="M 2906 1791 
Q 2906 2416 2648 2759 
Q 2391 3103 1925 3103 
Q 1463 3103 1205 2759 
Q 947 2416 947 1791 
Q 947 1169 1205 825 
Q 1463 481 1925 481 
Q 2391 481 2648 825 
Q 2906 1169 2906 1791 
z
M 3481 434 
Q 3481 -459 3084 -895 
Q 2688 -1331 1869 -1331 
Q 1566 -1331 1297 -1286 
Q 1028 -1241 775 -1147 
L 775 -588 
Q 1028 -725 1275 -790 
Q 1522 -856 1778 -856 
Q 2344 -856 2625 -561 
Q 2906 -266 2906 331 
L 2906 616 
Q 2728 306 2450 153 
Q 2172 0 1784 0 
Q 1141 0 747 490 
Q 353 981 353 1791 
Q 353 2603 747 3093 
Q 1141 3584 1784 3584 
Q 2172 3584 2450 3431 
Q 2728 3278 2906 2969 
L 2906 3500 
L 3481 3500 
L 3481 434 
z
" transform="scale(0.015625)"/>
       <path id="DejaVuSans-69" d="M 603 3500 
L 1178 3500 
L 1178 0 
L 603 0 
L 603 3500 
z
M 603 4863 
L 1178 4863 
L 1178 4134 
L 603 4134 
L 603 4863 
z
" transform="scale(0.015625)"/>
      </defs>
      <use xlink:href="#DejaVuSans-67"/>
      <use xlink:href="#DejaVuSans-61" x="63.476562"/>
      <use xlink:href="#DejaVuSans-69" x="124.755859"/>
      <use xlink:href="#DejaVuSans-6e" x="152.539062"/>
     </g>
    </g>
   </g>
   <g id="line2d_12">
    <path d="M 95.410854 86.84841 
L 95.737158 114.388533 
L 95.998201 120.186454 
L 96.324505 141.203916 
L 96.650809 143.378136 
L 96.911852 160.047158 
L 97.238156 168.74404 
L 97.499199 164.395599 
L 97.825503 163.670859 
L 98.151807 174.54196 
" clip-path="url(#p686cc3e82f)" style="fill: none; stroke: #000000; stroke-width: 2.25; stroke-linecap: square"/>
   </g>
   <g id="line2d_13">
    <path d="M 95.410854 89.02263 
L 95.737158 60.033026 
L 95.998201 81.775229 
L 96.324505 96.270031 
L 96.650809 135.405996 
L 96.911852 144.827617 
L 97.238156 152.075018 
L 97.499199 170.19352 
L 97.825503 178.165661 
L 98.151807 178.890401 
" clip-path="url(#p686cc3e82f)" style="fill: none; stroke-dasharray: 9,3.375; stroke-dashoffset: 0; stroke: #000000; stroke-width: 2.25"/>
   </g>
   <g id="line2d_14"/>
   <g id="line2d_15"/>
   <g id="patch_3">
    <path d="M 81.187266 277.977187 
L 81.187266 26.877187 
" style="fill: none; stroke: #000000; stroke-width: 1.875; stroke-linejoin: miter; stroke-linecap: square"/>
   </g>
   <g id="patch_4">
    <path d="M 81.187266 277.977187 
L 394.106204 277.977187 
" style="fill: none; stroke: #000000; stroke-width: 1.875; stroke-linejoin: miter; stroke-linecap: square"/>
   </g>
   <g id="text_14">
    <!-- dataset = neuromod -->
    <g transform="translate(144.420798 20.877187) scale(0.18 -0.18)">
     <defs>
      <path id="DejaVuSans-64" d="M 2906 2969 
L 2906 4863 
L 3481 4863 
L 3481 0 
L 2906 0 
L 2906 525 
Q 2725 213 2448 61 
Q 2172 -91 1784 -91 
Q 1150 -91 751 415 
Q 353 922 353 1747 
Q 353 2572 751 3078 
Q 1150 3584 1784 3584 
Q 2172 3584 2448 3432 
Q 2725 3281 2906 2969 
z
M 947 1747 
Q 947 1113 1208 752 
Q 1469 391 1925 391 
Q 2381 391 2643 752 
Q 2906 1113 2906 1747 
Q 2906 2381 2643 2742 
Q 2381 3103 1925 3103 
Q 1469 3103 1208 2742 
Q 947 2381 947 1747 
z
" transform="scale(0.015625)"/>
      <path id="DejaVuSans-74" d="M 1172 4494 
L 1172 3500 
L 2356 3500 
L 2356 3053 
L 1172 3053 
L 1172 1153 
Q 1172 725 1289 603 
Q 1406 481 1766 481 
L 2356 481 
L 2356 0 
L 1766 0 
Q 1100 0 847 248 
Q 594 497 594 1153 
L 594 3053 
L 172 3053 
L 172 3500 
L 594 3500 
L 594 4494 
L 1172 4494 
z
" transform="scale(0.015625)"/>
      <path id="DejaVuSans-20" transform="scale(0.015625)"/>
      <path id="DejaVuSans-3d" d="M 678 2906 
L 4684 2906 
L 4684 2381 
L 678 2381 
L 678 2906 
z
M 678 1631 
L 4684 1631 
L 4684 1100 
L 678 1100 
L 678 1631 
z
" transform="scale(0.015625)"/>
      <path id="DejaVuSans-75" d="M 544 1381 
L 544 3500 
L 1119 3500 
L 1119 1403 
Q 1119 906 1312 657 
Q 1506 409 1894 409 
Q 2359 409 2629 706 
Q 2900 1003 2900 1516 
L 2900 3500 
L 3475 3500 
L 3475 0 
L 2900 0 
L 2900 538 
Q 2691 219 2414 64 
Q 2138 -91 1772 -91 
Q 1169 -91 856 284 
Q 544 659 544 1381 
z
M 1991 3584 
L 1991 3584 
z
" transform="scale(0.015625)"/>
      <path id="DejaVuSans-72" d="M 2631 2963 
Q 2534 3019 2420 3045 
Q 2306 3072 2169 3072 
Q 1681 3072 1420 2755 
Q 1159 2438 1159 1844 
L 1159 0 
L 581 0 
L 581 3500 
L 1159 3500 
L 1159 2956 
Q 1341 3275 1631 3429 
Q 1922 3584 2338 3584 
Q 2397 3584 2469 3576 
Q 2541 3569 2628 3553 
L 2631 2963 
z
" transform="scale(0.015625)"/>
      <path id="DejaVuSans-6f" d="M 1959 3097 
Q 1497 3097 1228 2736 
Q 959 2375 959 1747 
Q 959 1119 1226 758 
Q 1494 397 1959 397 
Q 2419 397 2687 759 
Q 2956 1122 2956 1747 
Q 2956 2369 2687 2733 
Q 2419 3097 1959 3097 
z
M 1959 3584 
Q 2709 3584 3137 3096 
Q 3566 2609 3566 1747 
Q 3566 888 3137 398 
Q 2709 -91 1959 -91 
Q 1206 -91 779 398 
Q 353 888 353 1747 
Q 353 2609 779 3096 
Q 1206 3584 1959 3584 
z
" transform="scale(0.015625)"/>
     </defs>
     <use xlink:href="#DejaVuSans-64"/>
     <use xlink:href="#DejaVuSans-61" x="63.476562"/>
     <use xlink:href="#DejaVuSans-74" x="124.755859"/>
     <use xlink:href="#DejaVuSans-61" x="163.964844"/>
     <use xlink:href="#DejaVuSans-73" x="225.244141"/>
     <use xlink:href="#DejaVuSans-65" x="277.34375"/>
     <use xlink:href="#DejaVuSans-74" x="338.867188"/>
     <use xlink:href="#DejaVuSans-20" x="378.076172"/>
     <use xlink:href="#DejaVuSans-3d" x="409.863281"/>
     <use xlink:href="#DejaVuSans-20" x="493.652344"/>
     <use xlink:href="#DejaVuSans-6e" x="525.439453"/>
     <use xlink:href="#DejaVuSans-65" x="588.818359"/>
     <use xlink:href="#DejaVuSans-75" x="650.341797"/>
     <use xlink:href="#DejaVuSans-72" x="713.720703"/>
     <use xlink:href="#DejaVuSans-6f" x="752.583984"/>
     <use xlink:href="#DejaVuSans-6d" x="813.765625"/>
     <use xlink:href="#DejaVuSans-6f" x="911.177734"/>
     <use xlink:href="#DejaVuSans-64" x="972.359375"/>
    </g>
   </g>
  </g>
  <g id="axes_2">
   <g id="patch_5">
    <path d="M 422.384708 277.977187 
L 735.303646 277.977187 
L 735.303646 26.877187 
L 422.384708 26.877187 
z
" style="fill: #ffffff"/>
   </g>
   <g id="PolyCollection_3">
    <defs>
     <path id="m5c45229996" d="M 437.326164 -146.40496 
L 437.326164 -132.218415 
L 438.370337 -132.488984 
L 439.414509 -125.18457 
L 440.393421 -128.00236 
L 441.437594 -115.364825 
L 442.481766 -123.715764 
L 443.460678 -122.55618 
L 444.504851 -118.147827 
L 445.549023 -118.2232 
L 446.593196 -115.366758 
L 446.593196 -132.186526 
L 446.593196 -132.186526 
L 445.549023 -138.412527 
L 444.504851 -137.167906 
L 443.460678 -140.030146 
L 442.481766 -143.005446 
L 441.437594 -134.346251 
L 440.393421 -144.513872 
L 439.414509 -141.613945 
L 438.370337 -147.720122 
L 437.326164 -146.40496 
z
" style="stroke: #000000; stroke-opacity: 0.2; stroke-width: 1.5"/>
    </defs>
    <g clip-path="url(#pe732d3c88e)">
     <use xlink:href="#m5c45229996" x="0" y="335.567344" style="fill-opacity: 0.2; stroke: #000000; stroke-opacity: 0.2; stroke-width: 1.5"/>
    </g>
   </g>
   <g id="PolyCollection_4">
    <defs>
     <path id="me3c93419ff" d="M 437.326164 -164.036437 
L 437.326164 -147.909521 
L 438.370337 -150.114663 
L 439.414509 -138.479203 
L 440.393421 -137.552502 
L 441.437594 -131.753615 
L 442.481766 -126.53452 
L 443.460678 -125.26091 
L 444.504851 -120.815837 
L 445.549023 -125.26091 
L 446.593196 -122.09138 
L 446.593196 -139.218438 
L 446.593196 -139.218438 
L 445.549023 -141.614911 
L 444.504851 -137.747698 
L 443.460678 -141.458368 
L 442.481766 -142.348348 
L 441.437594 -148.029344 
L 440.393421 -153.363431 
L 439.414509 -154.522049 
L 438.370337 -166.003865 
L 437.326164 -164.036437 
z
" style="stroke: #000000; stroke-opacity: 0.2; stroke-width: 1.5"/>
    </defs>
    <g clip-path="url(#pe732d3c88e)">
     <use xlink:href="#me3c93419ff" x="0" y="335.567344" style="fill-opacity: 0.2; stroke: #000000; stroke-opacity: 0.2; stroke-width: 1.5"/>
    </g>
   </g>
   <g id="matplotlib.axis_3">
    <g id="xtick_6">
     <g id="line2d_16">
      <g>
       <use xlink:href="#m44fde45e55" x="436.347253" y="277.977187" style="stroke: #000000; stroke-width: 1.875"/>
      </g>
     </g>
     <g id="text_15">
      <!-- 0 -->
      <g transform="translate(431.09819 303.014609) scale(0.165 -0.165)">
       <use xlink:href="#DejaVuSans-30"/>
      </g>
     </g>
    </g>
    <g id="xtick_7">
     <g id="line2d_17">
      <g>
       <use xlink:href="#m44fde45e55" x="501.608038" y="277.977187" style="stroke: #000000; stroke-width: 1.875"/>
      </g>
     </g>
     <g id="text_16">
      <!-- 1000 -->
      <g transform="translate(480.611788 303.014609) scale(0.165 -0.165)">
       <use xlink:href="#DejaVuSans-31"/>
       <use xlink:href="#DejaVuSans-30" x="63.623047"/>
       <use xlink:href="#DejaVuSans-30" x="127.246094"/>
       <use xlink:href="#DejaVuSans-30" x="190.869141"/>
      </g>
     </g>
    </g>
    <g id="xtick_8">
     <g id="line2d_18">
      <g>
       <use xlink:href="#m44fde45e55" x="566.868823" y="277.977187" style="stroke: #000000; stroke-width: 1.875"/>
      </g>
     </g>
     <g id="text_17">
      <!-- 2000 -->
      <g transform="translate(545.872573 303.014609) scale(0.165 -0.165)">
       <use xlink:href="#DejaVuSans-32"/>
       <use xlink:href="#DejaVuSans-30" x="63.623047"/>
       <use xlink:href="#DejaVuSans-30" x="127.246094"/>
       <use xlink:href="#DejaVuSans-30" x="190.869141"/>
      </g>
     </g>
    </g>
    <g id="xtick_9">
     <g id="line2d_19">
      <g>
       <use xlink:href="#m44fde45e55" x="632.129608" y="277.977187" style="stroke: #000000; stroke-width: 1.875"/>
      </g>
     </g>
     <g id="text_18">
      <!-- 3000 -->
      <g transform="translate(611.133358 303.014609) scale(0.165 -0.165)">
       <use xlink:href="#DejaVuSans-33"/>
       <use xlink:href="#DejaVuSans-30" x="63.623047"/>
       <use xlink:href="#DejaVuSans-30" x="127.246094"/>
       <use xlink:href="#DejaVuSans-30" x="190.869141"/>
      </g>
     </g>
    </g>
    <g id="xtick_10">
     <g id="line2d_20">
      <g>
       <use xlink:href="#m44fde45e55" x="697.390393" y="277.977187" style="stroke: #000000; stroke-width: 1.875"/>
      </g>
     </g>
     <g id="text_19">
      <!-- 4000 -->
      <g transform="translate(676.394143 303.014609) scale(0.165 -0.165)">
       <use xlink:href="#DejaVuSans-34"/>
       <use xlink:href="#DejaVuSans-30" x="63.623047"/>
       <use xlink:href="#DejaVuSans-30" x="127.246094"/>
       <use xlink:href="#DejaVuSans-30" x="190.869141"/>
      </g>
     </g>
    </g>
    <g id="text_20">
     <!-- n_samples -->
     <g transform="translate(531.229958 324.123281) scale(0.18 -0.18)">
      <use xlink:href="#DejaVuSans-6e"/>
      <use xlink:href="#DejaVuSans-5f" x="63.378906"/>
      <use xlink:href="#DejaVuSans-73" x="113.378906"/>
      <use xlink:href="#DejaVuSans-61" x="165.478516"/>
      <use xlink:href="#DejaVuSans-6d" x="226.757812"/>
      <use xlink:href="#DejaVuSans-70" x="324.169922"/>
      <use xlink:href="#DejaVuSans-6c" x="387.646484"/>
      <use xlink:href="#DejaVuSans-65" x="415.429688"/>
      <use xlink:href="#DejaVuSans-73" x="476.953125"/>
     </g>
    </g>
   </g>
   <g id="matplotlib.axis_4">
    <g id="ytick_7">
     <g id="line2d_21">
      <g>
       <use xlink:href="#m6e340cee35" x="422.384708" y="260.786031" style="stroke: #000000; stroke-width: 1.875"/>
      </g>
     </g>
    </g>
    <g id="ytick_8">
     <g id="line2d_22">
      <g>
       <use xlink:href="#m6e340cee35" x="422.384708" y="214.402665" style="stroke: #000000; stroke-width: 1.875"/>
      </g>
     </g>
    </g>
    <g id="ytick_9">
     <g id="line2d_23">
      <g>
       <use xlink:href="#m6e340cee35" x="422.384708" y="168.019299" style="stroke: #000000; stroke-width: 1.875"/>
      </g>
     </g>
    </g>
    <g id="ytick_10">
     <g id="line2d_24">
      <g>
       <use xlink:href="#m6e340cee35" x="422.384708" y="121.635934" style="stroke: #000000; stroke-width: 1.875"/>
      </g>
     </g>
    </g>
    <g id="ytick_11">
     <g id="line2d_25">
      <g>
       <use xlink:href="#m6e340cee35" x="422.384708" y="75.252568" style="stroke: #000000; stroke-width: 1.875"/>
      </g>
     </g>
    </g>
    <g id="ytick_12">
     <g id="line2d_26">
      <g>
       <use xlink:href="#m6e340cee35" x="422.384708" y="28.869203" style="stroke: #000000; stroke-width: 1.875"/>
      </g>
     </g>
    </g>
   </g>
   <g id="line2d_27">
    <path d="M 437.326164 196.661028 
L 438.370337 195.694708 
L 439.414509 201.995115 
L 440.393421 198.864238 
L 441.437594 210.34412 
L 442.481766 201.724545 
L 443.460678 204.507547 
L 444.504851 207.908994 
L 445.549023 206.74941 
L 446.593196 211.928885 
" clip-path="url(#pe732d3c88e)" style="fill: none; stroke: #000000; stroke-width: 2.25; stroke-linecap: square"/>
   </g>
   <g id="line2d_28">
    <path d="M 437.326164 178.764779 
L 438.370337 177.721153 
L 439.414509 189.355648 
L 440.393421 190.206009 
L 441.437594 196.042583 
L 442.481766 201.453975 
L 443.460678 202.34299 
L 444.504851 206.401534 
L 445.549023 202.652212 
L 446.593196 204.971381 
" clip-path="url(#pe732d3c88e)" style="fill: none; stroke-dasharray: 9,3.375; stroke-dashoffset: 0; stroke: #000000; stroke-width: 2.25"/>
   </g>
   <g id="patch_6">
    <path d="M 422.384708 277.977187 
L 422.384708 26.877187 
" style="fill: none; stroke: #000000; stroke-width: 1.875; stroke-linejoin: miter; stroke-linecap: square"/>
   </g>
   <g id="patch_7">
    <path d="M 422.384708 277.977187 
L 735.303646 277.977187 
" style="fill: none; stroke: #000000; stroke-width: 1.875; stroke-linejoin: miter; stroke-linecap: square"/>
   </g>
   <g id="text_21">
    <!-- dataset = forrest -->
    <g transform="translate(502.085427 20.877187) scale(0.18 -0.18)">
     <defs>
      <path id="DejaVuSans-66" d="M 2375 4863 
L 2375 4384 
L 1825 4384 
Q 1516 4384 1395 4259 
Q 1275 4134 1275 3809 
L 1275 3500 
L 2222 3500 
L 2222 3053 
L 1275 3053 
L 1275 0 
L 697 0 
L 697 3053 
L 147 3053 
L 147 3500 
L 697 3500 
L 697 3744 
Q 697 4328 969 4595 
Q 1241 4863 1831 4863 
L 2375 4863 
z
" transform="scale(0.015625)"/>
     </defs>
     <use xlink:href="#DejaVuSans-64"/>
     <use xlink:href="#DejaVuSans-61" x="63.476562"/>
     <use xlink:href="#DejaVuSans-74" x="124.755859"/>
     <use xlink:href="#DejaVuSans-61" x="163.964844"/>
     <use xlink:href="#DejaVuSans-73" x="225.244141"/>
     <use xlink:href="#DejaVuSans-65" x="277.34375"/>
     <use xlink:href="#DejaVuSans-74" x="338.867188"/>
     <use xlink:href="#DejaVuSans-20" x="378.076172"/>
     <use xlink:href="#DejaVuSans-3d" x="409.863281"/>
     <use xlink:href="#DejaVuSans-20" x="493.652344"/>
     <use xlink:href="#DejaVuSans-66" x="525.439453"/>
     <use xlink:href="#DejaVuSans-6f" x="560.644531"/>
     <use xlink:href="#DejaVuSans-72" x="621.826172"/>
     <use xlink:href="#DejaVuSans-72" x="661.189453"/>
     <use xlink:href="#DejaVuSans-65" x="700.052734"/>
     <use xlink:href="#DejaVuSans-73" x="761.576172"/>
     <use xlink:href="#DejaVuSans-74" x="813.675781"/>
    </g>
   </g>
  </g>
  <g id="axes_3">
   <g id="patch_8">
    <path d="M 763.582149 277.977187 
L 1076.501088 277.977187 
L 1076.501088 26.877187 
L 763.582149 26.877187 
z
" style="fill: #ffffff"/>
   </g>
   <g id="PolyCollection_5">
    <defs>
     <path id="mab80a1ae51" d="M 779.437257 -127.374359 
L 779.437257 -104.714152 
L 781.395081 -80.253906 
L 783.352904 -79.095396 
L 785.310728 -75.44539 
L 787.268551 -69.003793 
L 789.161114 -70.119356 
L 791.118938 -70.291683 
L 793.076761 -74.908545 
L 795.034585 -76.562026 
L 796.992408 -73.770972 
L 796.992408 -99.090169 
L 796.992408 -99.090169 
L 795.034585 -97.893006 
L 793.076761 -99.352686 
L 791.118938 -95.159931 
L 789.161114 -93.874725 
L 787.268551 -91.751505 
L 785.310728 -99.261423 
L 783.352904 -100.664734 
L 781.395081 -103.556179 
L 779.437257 -127.374359 
z
" style="stroke: #000000; stroke-opacity: 0.2; stroke-width: 1.5"/>
    </defs>
    <g clip-path="url(#p9e69c65bc6)">
     <use xlink:href="#mab80a1ae51" x="0" y="335.567344" style="fill-opacity: 0.2; stroke: #000000; stroke-opacity: 0.2; stroke-width: 1.5"/>
    </g>
   </g>
   <g id="PolyCollection_6">
    <defs>
     <path id="m83809d9b75" d="M 779.437257 -122.949687 
L 779.437257 -99.729014 
L 781.395081 -87.515265 
L 783.352904 -91.654336 
L 785.310728 -96.469831 
L 787.268551 -90.344972 
L 789.161114 -90.318667 
L 791.118938 -83.177024 
L 793.076761 -83.283857 
L 795.034585 -71.983816 
L 796.992408 -71.685868 
L 796.992408 -97.374951 
L 796.992408 -97.374951 
L 795.034585 -99.263033 
L 793.076761 -106.974805 
L 791.118938 -103.341441 
L 789.161114 -109.870544 
L 787.268551 -111.43813 
L 785.310728 -118.546488 
L 783.352904 -112.920894 
L 781.395081 -107.852009 
L 779.437257 -122.949687 
z
" style="stroke: #000000; stroke-opacity: 0.2; stroke-width: 1.5"/>
    </defs>
    <g clip-path="url(#p9e69c65bc6)">
     <use xlink:href="#m83809d9b75" x="0" y="335.567344" style="fill-opacity: 0.2; stroke: #000000; stroke-opacity: 0.2; stroke-width: 1.5"/>
    </g>
   </g>
   <g id="matplotlib.axis_5">
    <g id="xtick_11">
     <g id="line2d_29">
      <g>
       <use xlink:href="#m44fde45e55" x="777.544694" y="277.977187" style="stroke: #000000; stroke-width: 1.875"/>
      </g>
     </g>
     <g id="text_22">
      <!-- 0 -->
      <g transform="translate(772.295632 303.014609) scale(0.165 -0.165)">
       <use xlink:href="#DejaVuSans-30"/>
      </g>
     </g>
    </g>
    <g id="xtick_12">
     <g id="line2d_30">
      <g>
       <use xlink:href="#m44fde45e55" x="842.80548" y="277.977187" style="stroke: #000000; stroke-width: 1.875"/>
      </g>
     </g>
     <g id="text_23">
      <!-- 1000 -->
      <g transform="translate(821.80923 303.014609) scale(0.165 -0.165)">
       <use xlink:href="#DejaVuSans-31"/>
       <use xlink:href="#DejaVuSans-30" x="63.623047"/>
       <use xlink:href="#DejaVuSans-30" x="127.246094"/>
       <use xlink:href="#DejaVuSans-30" x="190.869141"/>
      </g>
     </g>
    </g>
    <g id="xtick_13">
     <g id="line2d_31">
      <g>
       <use xlink:href="#m44fde45e55" x="908.066265" y="277.977187" style="stroke: #000000; stroke-width: 1.875"/>
      </g>
     </g>
     <g id="text_24">
      <!-- 2000 -->
      <g transform="translate(887.070015 303.014609) scale(0.165 -0.165)">
       <use xlink:href="#DejaVuSans-32"/>
       <use xlink:href="#DejaVuSans-30" x="63.623047"/>
       <use xlink:href="#DejaVuSans-30" x="127.246094"/>
       <use xlink:href="#DejaVuSans-30" x="190.869141"/>
      </g>
     </g>
    </g>
    <g id="xtick_14">
     <g id="line2d_32">
      <g>
       <use xlink:href="#m44fde45e55" x="973.32705" y="277.977187" style="stroke: #000000; stroke-width: 1.875"/>
      </g>
     </g>
     <g id="text_25">
      <!-- 3000 -->
      <g transform="translate(952.3308 303.014609) scale(0.165 -0.165)">
       <use xlink:href="#DejaVuSans-33"/>
       <use xlink:href="#DejaVuSans-30" x="63.623047"/>
       <use xlink:href="#DejaVuSans-30" x="127.246094"/>
       <use xlink:href="#DejaVuSans-30" x="190.869141"/>
      </g>
     </g>
    </g>
    <g id="xtick_15">
     <g id="line2d_33">
      <g>
       <use xlink:href="#m44fde45e55" x="1038.587835" y="277.977187" style="stroke: #000000; stroke-width: 1.875"/>
      </g>
     </g>
     <g id="text_26">
      <!-- 4000 -->
      <g transform="translate(1017.591585 303.014609) scale(0.165 -0.165)">
       <use xlink:href="#DejaVuSans-34"/>
       <use xlink:href="#DejaVuSans-30" x="63.623047"/>
       <use xlink:href="#DejaVuSans-30" x="127.246094"/>
       <use xlink:href="#DejaVuSans-30" x="190.869141"/>
      </g>
     </g>
    </g>
    <g id="text_27">
     <!-- n_samples -->
     <g transform="translate(872.4274 324.123281) scale(0.18 -0.18)">
      <use xlink:href="#DejaVuSans-6e"/>
      <use xlink:href="#DejaVuSans-5f" x="63.378906"/>
      <use xlink:href="#DejaVuSans-73" x="113.378906"/>
      <use xlink:href="#DejaVuSans-61" x="165.478516"/>
      <use xlink:href="#DejaVuSans-6d" x="226.757812"/>
      <use xlink:href="#DejaVuSans-70" x="324.169922"/>
      <use xlink:href="#DejaVuSans-6c" x="387.646484"/>
      <use xlink:href="#DejaVuSans-65" x="415.429688"/>
      <use xlink:href="#DejaVuSans-73" x="476.953125"/>
     </g>
    </g>
   </g>
   <g id="matplotlib.axis_6">
    <g id="ytick_13">
     <g id="line2d_34">
      <g>
       <use xlink:href="#m6e340cee35" x="763.582149" y="260.786031" style="stroke: #000000; stroke-width: 1.875"/>
      </g>
     </g>
    </g>
    <g id="ytick_14">
     <g id="line2d_35">
      <g>
       <use xlink:href="#m6e340cee35" x="763.582149" y="214.402665" style="stroke: #000000; stroke-width: 1.875"/>
      </g>
     </g>
    </g>
    <g id="ytick_15">
     <g id="line2d_36">
      <g>
       <use xlink:href="#m6e340cee35" x="763.582149" y="168.019299" style="stroke: #000000; stroke-width: 1.875"/>
      </g>
     </g>
    </g>
    <g id="ytick_16">
     <g id="line2d_37">
      <g>
       <use xlink:href="#m6e340cee35" x="763.582149" y="121.635934" style="stroke: #000000; stroke-width: 1.875"/>
      </g>
     </g>
    </g>
    <g id="ytick_17">
     <g id="line2d_38">
      <g>
       <use xlink:href="#m6e340cee35" x="763.582149" y="75.252568" style="stroke: #000000; stroke-width: 1.875"/>
      </g>
     </g>
    </g>
    <g id="ytick_18">
     <g id="line2d_39">
      <g>
       <use xlink:href="#m6e340cee35" x="763.582149" y="28.869203" style="stroke: #000000; stroke-width: 1.875"/>
      </g>
     </g>
    </g>
   </g>
   <g id="line2d_40">
    <path d="M 779.437257 219.921427 
L 781.395081 243.00574 
L 783.352904 245.518173 
L 785.310728 247.94471 
L 787.268551 254.966636 
L 789.161114 253.764104 
L 791.118938 253.184312 
L 793.076761 248.610397 
L 795.034585 248.588923 
L 796.992408 249.361979 
" clip-path="url(#p9e69c65bc6)" style="fill: none; stroke: #000000; stroke-width: 2.25; stroke-linecap: square"/>
   </g>
   <g id="line2d_41">
    <path d="M 779.437257 223.29281 
L 781.395081 237.572874 
L 783.352904 233.600225 
L 785.310728 227.716409 
L 787.268551 235.253706 
L 789.161114 235.854972 
L 791.118938 241.717314 
L 793.076761 240.171201 
L 795.034585 250.285352 
L 796.992408 251.144303 
" clip-path="url(#p9e69c65bc6)" style="fill: none; stroke-dasharray: 9,3.375; stroke-dashoffset: 0; stroke: #000000; stroke-width: 2.25"/>
   </g>
   <g id="patch_9">
    <path d="M 763.582149 277.977187 
L 763.582149 26.877187 
" style="fill: none; stroke: #000000; stroke-width: 1.875; stroke-linejoin: miter; stroke-linecap: square"/>
   </g>
   <g id="patch_10">
    <path d="M 763.582149 277.977187 
L 1076.501088 277.977187 
" style="fill: none; stroke: #000000; stroke-width: 1.875; stroke-linejoin: miter; stroke-linecap: square"/>
   </g>
   <g id="text_28">
    <!-- dataset = bold5000 -->
    <g transform="translate(830.412869 20.877187) scale(0.18 -0.18)">
     <defs>
      <path id="DejaVuSans-62" d="M 3116 1747 
Q 3116 2381 2855 2742 
Q 2594 3103 2138 3103 
Q 1681 3103 1420 2742 
Q 1159 2381 1159 1747 
Q 1159 1113 1420 752 
Q 1681 391 2138 391 
Q 2594 391 2855 752 
Q 3116 1113 3116 1747 
z
M 1159 2969 
Q 1341 3281 1617 3432 
Q 1894 3584 2278 3584 
Q 2916 3584 3314 3078 
Q 3713 2572 3713 1747 
Q 3713 922 3314 415 
Q 2916 -91 2278 -91 
Q 1894 -91 1617 61 
Q 1341 213 1159 525 
L 1159 0 
L 581 0 
L 581 4863 
L 1159 4863 
L 1159 2969 
z
" transform="scale(0.015625)"/>
      <path id="DejaVuSans-35" d="M 691 4666 
L 3169 4666 
L 3169 4134 
L 1269 4134 
L 1269 2991 
Q 1406 3038 1543 3061 
Q 1681 3084 1819 3084 
Q 2600 3084 3056 2656 
Q 3513 2228 3513 1497 
Q 3513 744 3044 326 
Q 2575 -91 1722 -91 
Q 1428 -91 1123 -41 
Q 819 9 494 109 
L 494 744 
Q 775 591 1075 516 
Q 1375 441 1709 441 
Q 2250 441 2565 725 
Q 2881 1009 2881 1497 
Q 2881 1984 2565 2268 
Q 2250 2553 1709 2553 
Q 1456 2553 1204 2497 
Q 953 2441 691 2322 
L 691 4666 
z
" transform="scale(0.015625)"/>
     </defs>
     <use xlink:href="#DejaVuSans-64"/>
     <use xlink:href="#DejaVuSans-61" x="63.476562"/>
     <use xlink:href="#DejaVuSans-74" x="124.755859"/>
     <use xlink:href="#DejaVuSans-61" x="163.964844"/>
     <use xlink:href="#DejaVuSans-73" x="225.244141"/>
     <use xlink:href="#DejaVuSans-65" x="277.34375"/>
     <use xlink:href="#DejaVuSans-74" x="338.867188"/>
     <use xlink:href="#DejaVuSans-20" x="378.076172"/>
     <use xlink:href="#DejaVuSans-3d" x="409.863281"/>
     <use xlink:href="#DejaVuSans-20" x="493.652344"/>
     <use xlink:href="#DejaVuSans-62" x="525.439453"/>
     <use xlink:href="#DejaVuSans-6f" x="588.916016"/>
     <use xlink:href="#DejaVuSans-6c" x="650.097656"/>
     <use xlink:href="#DejaVuSans-64" x="677.880859"/>
     <use xlink:href="#DejaVuSans-35" x="741.357422"/>
     <use xlink:href="#DejaVuSans-30" x="804.980469"/>
     <use xlink:href="#DejaVuSans-30" x="868.603516"/>
     <use xlink:href="#DejaVuSans-30" x="932.226562"/>
    </g>
   </g>
  </g>
  <g id="axes_4">
   <g id="patch_11">
    <path d="M 1104.779591 277.977187 
L 1417.69853 277.977187 
L 1417.69853 26.877187 
L 1104.779591 26.877187 
z
" style="fill: #ffffff"/>
   </g>
   <g id="PolyCollection_7">
    <defs>
     <path id="mbdfc505f58" d="M 1120.830482 -134.991729 
L 1120.830482 -125.422682 
L 1122.918827 -116.009733 
L 1125.072433 -103.765961 
L 1127.160778 -101.094953 
L 1129.314384 -96.635014 
L 1131.402729 -90.191641 
L 1133.491074 -88.706234 
L 1135.64468 -92.322501 
L 1137.733025 -90.040499 
L 1139.886631 -92.026411 
L 1139.886631 -101.88907 
L 1139.886631 -101.88907 
L 1137.733025 -99.262662 
L 1135.64468 -102.781058 
L 1133.491074 -98.618448 
L 1131.402729 -100.899212 
L 1129.314384 -106.547229 
L 1127.160778 -110.858503 
L 1125.072433 -113.981699 
L 1122.918827 -126.071851 
L 1120.830482 -134.991729 
z
" style="stroke: #000000; stroke-opacity: 0.2; stroke-width: 1.5"/>
    </defs>
    <g clip-path="url(#pd04365f561)">
     <use xlink:href="#mbdfc505f58" x="0" y="335.567344" style="fill-opacity: 0.2; stroke: #000000; stroke-opacity: 0.2; stroke-width: 1.5"/>
    </g>
   </g>
   <g id="PolyCollection_8">
    <defs>
     <path id="m1a58d5f51a" d="M 1120.830482 -178.945666 
L 1120.830482 -169.034691 
L 1122.918827 -153.275001 
L 1125.072433 -147.428764 
L 1127.160778 -144.405916 
L 1129.314384 -138.953641 
L 1131.402729 -134.046469 
L 1133.491074 -136.624562 
L 1135.64468 -133.45305 
L 1137.733025 -133.849489 
L 1139.886631 -133.104927 
L 1139.886631 -142.920509 
L 1139.886631 -142.920509 
L 1137.733025 -143.712148 
L 1135.64468 -143.563484 
L 1133.491074 -146.438905 
L 1131.402729 -143.910368 
L 1129.314384 -149.709527 
L 1127.160778 -154.367686 
L 1125.072433 -156.499784 
L 1122.918827 -163.980093 
L 1120.830482 -178.945666 
z
" style="stroke: #000000; stroke-opacity: 0.2; stroke-width: 1.5"/>
    </defs>
    <g clip-path="url(#pd04365f561)">
     <use xlink:href="#m1a58d5f51a" x="0" y="335.567344" style="fill-opacity: 0.2; stroke: #000000; stroke-opacity: 0.2; stroke-width: 1.5"/>
    </g>
   </g>
   <g id="matplotlib.axis_7">
    <g id="xtick_16">
     <g id="line2d_42">
      <g>
       <use xlink:href="#m44fde45e55" x="1118.742136" y="277.977187" style="stroke: #000000; stroke-width: 1.875"/>
      </g>
     </g>
     <g id="text_29">
      <!-- 0 -->
      <g transform="translate(1113.493074 303.014609) scale(0.165 -0.165)">
       <use xlink:href="#DejaVuSans-30"/>
      </g>
     </g>
    </g>
    <g id="xtick_17">
     <g id="line2d_43">
      <g>
       <use xlink:href="#m44fde45e55" x="1184.002922" y="277.977187" style="stroke: #000000; stroke-width: 1.875"/>
      </g>
     </g>
     <g id="text_30">
      <!-- 1000 -->
      <g transform="translate(1163.006672 303.014609) scale(0.165 -0.165)">
       <use xlink:href="#DejaVuSans-31"/>
       <use xlink:href="#DejaVuSans-30" x="63.623047"/>
       <use xlink:href="#DejaVuSans-30" x="127.246094"/>
       <use xlink:href="#DejaVuSans-30" x="190.869141"/>
      </g>
     </g>
    </g>
    <g id="xtick_18">
     <g id="line2d_44">
      <g>
       <use xlink:href="#m44fde45e55" x="1249.263707" y="277.977187" style="stroke: #000000; stroke-width: 1.875"/>
      </g>
     </g>
     <g id="text_31">
      <!-- 2000 -->
      <g transform="translate(1228.267457 303.014609) scale(0.165 -0.165)">
       <use xlink:href="#DejaVuSans-32"/>
       <use xlink:href="#DejaVuSans-30" x="63.623047"/>
       <use xlink:href="#DejaVuSans-30" x="127.246094"/>
       <use xlink:href="#DejaVuSans-30" x="190.869141"/>
      </g>
     </g>
    </g>
    <g id="xtick_19">
     <g id="line2d_45">
      <g>
       <use xlink:href="#m44fde45e55" x="1314.524492" y="277.977187" style="stroke: #000000; stroke-width: 1.875"/>
      </g>
     </g>
     <g id="text_32">
      <!-- 3000 -->
      <g transform="translate(1293.528242 303.014609) scale(0.165 -0.165)">
       <use xlink:href="#DejaVuSans-33"/>
       <use xlink:href="#DejaVuSans-30" x="63.623047"/>
       <use xlink:href="#DejaVuSans-30" x="127.246094"/>
       <use xlink:href="#DejaVuSans-30" x="190.869141"/>
      </g>
     </g>
    </g>
    <g id="xtick_20">
     <g id="line2d_46">
      <g>
       <use xlink:href="#m44fde45e55" x="1379.785277" y="277.977187" style="stroke: #000000; stroke-width: 1.875"/>
      </g>
     </g>
     <g id="text_33">
      <!-- 4000 -->
      <g transform="translate(1358.789027 303.014609) scale(0.165 -0.165)">
       <use xlink:href="#DejaVuSans-34"/>
       <use xlink:href="#DejaVuSans-30" x="63.623047"/>
       <use xlink:href="#DejaVuSans-30" x="127.246094"/>
       <use xlink:href="#DejaVuSans-30" x="190.869141"/>
      </g>
     </g>
    </g>
    <g id="text_34">
     <!-- n_samples -->
     <g transform="translate(1213.624842 324.123281) scale(0.18 -0.18)">
      <use xlink:href="#DejaVuSans-6e"/>
      <use xlink:href="#DejaVuSans-5f" x="63.378906"/>
      <use xlink:href="#DejaVuSans-73" x="113.378906"/>
      <use xlink:href="#DejaVuSans-61" x="165.478516"/>
      <use xlink:href="#DejaVuSans-6d" x="226.757812"/>
      <use xlink:href="#DejaVuSans-70" x="324.169922"/>
      <use xlink:href="#DejaVuSans-6c" x="387.646484"/>
      <use xlink:href="#DejaVuSans-65" x="415.429688"/>
      <use xlink:href="#DejaVuSans-73" x="476.953125"/>
     </g>
    </g>
   </g>
   <g id="matplotlib.axis_8">
    <g id="ytick_19">
     <g id="line2d_47">
      <g>
       <use xlink:href="#m6e340cee35" x="1104.779591" y="260.786031" style="stroke: #000000; stroke-width: 1.875"/>
      </g>
     </g>
    </g>
    <g id="ytick_20">
     <g id="line2d_48">
      <g>
       <use xlink:href="#m6e340cee35" x="1104.779591" y="214.402665" style="stroke: #000000; stroke-width: 1.875"/>
      </g>
     </g>
    </g>
    <g id="ytick_21">
     <g id="line2d_49">
      <g>
       <use xlink:href="#m6e340cee35" x="1104.779591" y="168.019299" style="stroke: #000000; stroke-width: 1.875"/>
      </g>
     </g>
    </g>
    <g id="ytick_22">
     <g id="line2d_50">
      <g>
       <use xlink:href="#m6e340cee35" x="1104.779591" y="121.635934" style="stroke: #000000; stroke-width: 1.875"/>
      </g>
     </g>
    </g>
    <g id="ytick_23">
     <g id="line2d_51">
      <g>
       <use xlink:href="#m6e340cee35" x="1104.779591" y="75.252568" style="stroke: #000000; stroke-width: 1.875"/>
      </g>
     </g>
    </g>
    <g id="ytick_24">
     <g id="line2d_52">
      <g>
       <use xlink:href="#m6e340cee35" x="1104.779591" y="28.869203" style="stroke: #000000; stroke-width: 1.875"/>
      </g>
     </g>
    </g>
   </g>
   <g id="line2d_53">
    <path d="M 1120.830482 205.383677 
L 1122.918827 214.35311 
L 1125.072433 226.54361 
L 1127.160778 229.814232 
L 1129.314384 233.927287 
L 1131.402729 239.873872 
L 1133.491074 241.905622 
L 1135.64468 237.990787 
L 1137.733025 240.716305 
L 1139.886631 238.436781 
" clip-path="url(#pd04365f561)" style="fill: none; stroke: #000000; stroke-width: 2.25; stroke-linecap: square"/>
   </g>
   <g id="line2d_54">
    <path d="M 1120.830482 161.329391 
L 1122.918827 177.038287 
L 1125.072433 183.529976 
L 1127.160778 186.255494 
L 1129.314384 191.012763 
L 1131.402729 196.612464 
L 1133.491074 193.837391 
L 1135.64468 197.256677 
L 1137.733025 197.008903 
L 1139.886631 197.653116 
" clip-path="url(#pd04365f561)" style="fill: none; stroke-dasharray: 9,3.375; stroke-dashoffset: 0; stroke: #000000; stroke-width: 2.25"/>
   </g>
   <g id="patch_12">
    <path d="M 1104.779591 277.977187 
L 1104.779591 26.877187 
" style="fill: none; stroke: #000000; stroke-width: 1.875; stroke-linejoin: miter; stroke-linecap: square"/>
   </g>
   <g id="patch_13">
    <path d="M 1104.779591 277.977187 
L 1417.69853 277.977187 
" style="fill: none; stroke: #000000; stroke-width: 1.875; stroke-linejoin: miter; stroke-linecap: square"/>
   </g>
   <g id="text_35">
    <!-- dataset = rsvp -->
    <g transform="translate(1194.520936 20.877187) scale(0.18 -0.18)">
     <defs>
      <path id="DejaVuSans-76" d="M 191 3500 
L 800 3500 
L 1894 563 
L 2988 3500 
L 3597 3500 
L 2284 0 
L 1503 0 
L 191 3500 
z
" transform="scale(0.015625)"/>
     </defs>
     <use xlink:href="#DejaVuSans-64"/>
     <use xlink:href="#DejaVuSans-61" x="63.476562"/>
     <use xlink:href="#DejaVuSans-74" x="124.755859"/>
     <use xlink:href="#DejaVuSans-61" x="163.964844"/>
     <use xlink:href="#DejaVuSans-73" x="225.244141"/>
     <use xlink:href="#DejaVuSans-65" x="277.34375"/>
     <use xlink:href="#DejaVuSans-74" x="338.867188"/>
     <use xlink:href="#DejaVuSans-20" x="378.076172"/>
     <use xlink:href="#DejaVuSans-3d" x="409.863281"/>
     <use xlink:href="#DejaVuSans-20" x="493.652344"/>
     <use xlink:href="#DejaVuSans-72" x="525.439453"/>
     <use xlink:href="#DejaVuSans-73" x="566.552734"/>
     <use xlink:href="#DejaVuSans-76" x="618.652344"/>
     <use xlink:href="#DejaVuSans-70" x="677.832031"/>
    </g>
   </g>
  </g>
  <g id="axes_5">
   <g id="patch_14">
    <path d="M 1445.977033 277.977187 
L 1758.895972 277.977187 
L 1758.895972 26.877187 
L 1445.977033 26.877187 
z
" style="fill: #ffffff"/>
   </g>
   <g id="PolyCollection_9">
    <defs>
     <path id="mad24e23c0c" d="M 1488.393281 -114.094657 
L 1488.393281 -110.47125 
L 1516.846983 -110.472152 
L 1545.300685 -109.670728 
L 1573.819648 -110.790923 
L 1602.273351 -112.103787 
L 1630.727053 -109.733108 
L 1659.246016 -105.606448 
L 1687.699719 -104.475425 
L 1716.153421 -101.85759 
L 1744.672384 -99.573141 
L 1744.672384 -105.6184 
L 1744.672384 -105.6184 
L 1716.153421 -107.71732 
L 1687.699719 -109.806695 
L 1659.246016 -110.33262 
L 1630.727053 -114.192957 
L 1602.273351 -116.842583 
L 1573.819648 -115.977438 
L 1545.300685 -114.104667 
L 1516.846983 -114.738758 
L 1488.393281 -114.094657 
z
" style="stroke: #000000; stroke-opacity: 0.2; stroke-width: 1.5"/>
    </defs>
    <g clip-path="url(#pcced69fe91)">
     <use xlink:href="#mad24e23c0c" x="0" y="335.567344" style="fill-opacity: 0.2; stroke: #000000; stroke-opacity: 0.2; stroke-width: 1.5"/>
    </g>
   </g>
   <g id="PolyCollection_10">
    <defs>
     <path id="m23635e076a" d="M 1488.393281 -115.324059 
L 1488.393281 -111.43022 
L 1516.846983 -108.240131 
L 1545.300685 -105.136307 
L 1573.819648 -105.420842 
L 1602.273351 -101.527459 
L 1630.727053 -102.115541 
L 1659.246016 -101.311857 
L 1687.699719 -102.837135 
L 1716.153421 -99.109069 
L 1744.672384 -100.473531 
L 1744.672384 -105.292468 
L 1744.672384 -105.292468 
L 1716.153421 -103.602191 
L 1687.699719 -107.298245 
L 1659.246016 -105.839924 
L 1630.727053 -106.595767 
L 1602.273351 -105.973729 
L 1573.819648 -109.476819 
L 1545.300685 -109.305524 
L 1516.846983 -112.456659 
L 1488.393281 -115.324059 
z
" style="stroke: #000000; stroke-opacity: 0.2; stroke-width: 1.5"/>
    </defs>
    <g clip-path="url(#pcced69fe91)">
     <use xlink:href="#m23635e076a" x="0" y="335.567344" style="fill-opacity: 0.2; stroke: #000000; stroke-opacity: 0.2; stroke-width: 1.5"/>
    </g>
   </g>
   <g id="matplotlib.axis_9">
    <g id="xtick_21">
     <g id="line2d_55">
      <g>
       <use xlink:href="#m44fde45e55" x="1459.939578" y="277.977187" style="stroke: #000000; stroke-width: 1.875"/>
      </g>
     </g>
     <g id="text_36">
      <!-- 0 -->
      <g transform="translate(1454.690516 303.014609) scale(0.165 -0.165)">
       <use xlink:href="#DejaVuSans-30"/>
      </g>
     </g>
    </g>
    <g id="xtick_22">
     <g id="line2d_56">
      <g>
       <use xlink:href="#m44fde45e55" x="1525.200364" y="277.977187" style="stroke: #000000; stroke-width: 1.875"/>
      </g>
     </g>
     <g id="text_37">
      <!-- 1000 -->
      <g transform="translate(1504.204114 303.014609) scale(0.165 -0.165)">
       <use xlink:href="#DejaVuSans-31"/>
       <use xlink:href="#DejaVuSans-30" x="63.623047"/>
       <use xlink:href="#DejaVuSans-30" x="127.246094"/>
       <use xlink:href="#DejaVuSans-30" x="190.869141"/>
      </g>
     </g>
    </g>
    <g id="xtick_23">
     <g id="line2d_57">
      <g>
       <use xlink:href="#m44fde45e55" x="1590.461149" y="277.977187" style="stroke: #000000; stroke-width: 1.875"/>
      </g>
     </g>
     <g id="text_38">
      <!-- 2000 -->
      <g transform="translate(1569.464899 303.014609) scale(0.165 -0.165)">
       <use xlink:href="#DejaVuSans-32"/>
       <use xlink:href="#DejaVuSans-30" x="63.623047"/>
       <use xlink:href="#DejaVuSans-30" x="127.246094"/>
       <use xlink:href="#DejaVuSans-30" x="190.869141"/>
      </g>
     </g>
    </g>
    <g id="xtick_24">
     <g id="line2d_58">
      <g>
       <use xlink:href="#m44fde45e55" x="1655.721934" y="277.977187" style="stroke: #000000; stroke-width: 1.875"/>
      </g>
     </g>
     <g id="text_39">
      <!-- 3000 -->
      <g transform="translate(1634.725684 303.014609) scale(0.165 -0.165)">
       <use xlink:href="#DejaVuSans-33"/>
       <use xlink:href="#DejaVuSans-30" x="63.623047"/>
       <use xlink:href="#DejaVuSans-30" x="127.246094"/>
       <use xlink:href="#DejaVuSans-30" x="190.869141"/>
      </g>
     </g>
    </g>
    <g id="xtick_25">
     <g id="line2d_59">
      <g>
       <use xlink:href="#m44fde45e55" x="1720.982719" y="277.977187" style="stroke: #000000; stroke-width: 1.875"/>
      </g>
     </g>
     <g id="text_40">
      <!-- 4000 -->
      <g transform="translate(1699.986469 303.014609) scale(0.165 -0.165)">
       <use xlink:href="#DejaVuSans-34"/>
       <use xlink:href="#DejaVuSans-30" x="63.623047"/>
       <use xlink:href="#DejaVuSans-30" x="127.246094"/>
       <use xlink:href="#DejaVuSans-30" x="190.869141"/>
      </g>
     </g>
    </g>
    <g id="text_41">
     <!-- n_samples -->
     <g transform="translate(1554.822284 324.123281) scale(0.18 -0.18)">
      <use xlink:href="#DejaVuSans-6e"/>
      <use xlink:href="#DejaVuSans-5f" x="63.378906"/>
      <use xlink:href="#DejaVuSans-73" x="113.378906"/>
      <use xlink:href="#DejaVuSans-61" x="165.478516"/>
      <use xlink:href="#DejaVuSans-6d" x="226.757812"/>
      <use xlink:href="#DejaVuSans-70" x="324.169922"/>
      <use xlink:href="#DejaVuSans-6c" x="387.646484"/>
      <use xlink:href="#DejaVuSans-65" x="415.429688"/>
      <use xlink:href="#DejaVuSans-73" x="476.953125"/>
     </g>
    </g>
   </g>
   <g id="matplotlib.axis_10">
    <g id="ytick_25">
     <g id="line2d_60">
      <g>
       <use xlink:href="#m6e340cee35" x="1445.977033" y="260.786031" style="stroke: #000000; stroke-width: 1.875"/>
      </g>
     </g>
    </g>
    <g id="ytick_26">
     <g id="line2d_61">
      <g>
       <use xlink:href="#m6e340cee35" x="1445.977033" y="214.402665" style="stroke: #000000; stroke-width: 1.875"/>
      </g>
     </g>
    </g>
    <g id="ytick_27">
     <g id="line2d_62">
      <g>
       <use xlink:href="#m6e340cee35" x="1445.977033" y="168.019299" style="stroke: #000000; stroke-width: 1.875"/>
      </g>
     </g>
    </g>
    <g id="ytick_28">
     <g id="line2d_63">
      <g>
       <use xlink:href="#m6e340cee35" x="1445.977033" y="121.635934" style="stroke: #000000; stroke-width: 1.875"/>
      </g>
     </g>
    </g>
    <g id="ytick_29">
     <g id="line2d_64">
      <g>
       <use xlink:href="#m6e340cee35" x="1445.977033" y="75.252568" style="stroke: #000000; stroke-width: 1.875"/>
      </g>
     </g>
    </g>
    <g id="ytick_30">
     <g id="line2d_65">
      <g>
       <use xlink:href="#m6e340cee35" x="1445.977033" y="28.869203" style="stroke: #000000; stroke-width: 1.875"/>
      </g>
     </g>
    </g>
   </g>
   <g id="line2d_66">
    <path d="M 1488.393281 223.307954 
L 1516.846983 222.912396 
L 1545.300685 223.759432 
L 1573.819648 222.329835 
L 1602.273351 220.959692 
L 1630.727053 223.548667 
L 1659.246016 227.600966 
L 1687.699719 228.442111 
L 1716.153421 230.641517 
L 1744.672384 232.889478 
" clip-path="url(#pcced69fe91)" style="fill: none; stroke: #000000; stroke-width: 2.25; stroke-linecap: square"/>
   </g>
   <g id="line2d_67">
    <path d="M 1488.393281 222.162667 
L 1516.846983 225.210041 
L 1545.300685 228.475152 
L 1573.819648 228.174592 
L 1602.273351 231.751211 
L 1630.727053 231.162562 
L 1659.246016 232.022117 
L 1687.699719 230.336784 
L 1716.153421 234.199283 
L 1744.672384 232.608262 
" clip-path="url(#pcced69fe91)" style="fill: none; stroke-dasharray: 9,3.375; stroke-dashoffset: 0; stroke: #000000; stroke-width: 2.25"/>
   </g>
   <g id="patch_15">
    <path d="M 1445.977033 277.977187 
L 1445.977033 26.877187 
" style="fill: none; stroke: #000000; stroke-width: 1.875; stroke-linejoin: miter; stroke-linecap: square"/>
   </g>
   <g id="patch_16">
    <path d="M 1445.977033 277.977187 
L 1758.895972 277.977187 
" style="fill: none; stroke: #000000; stroke-width: 1.875; stroke-linejoin: miter; stroke-linecap: square"/>
   </g>
   <g id="text_42">
    <!-- dataset = nsd -->
    <g transform="translate(1539.041346 20.877187) scale(0.18 -0.18)">
     <use xlink:href="#DejaVuSans-64"/>
     <use xlink:href="#DejaVuSans-61" x="63.476562"/>
     <use xlink:href="#DejaVuSans-74" x="124.755859"/>
     <use xlink:href="#DejaVuSans-61" x="163.964844"/>
     <use xlink:href="#DejaVuSans-73" x="225.244141"/>
     <use xlink:href="#DejaVuSans-65" x="277.34375"/>
     <use xlink:href="#DejaVuSans-74" x="338.867188"/>
     <use xlink:href="#DejaVuSans-20" x="378.076172"/>
     <use xlink:href="#DejaVuSans-3d" x="409.863281"/>
     <use xlink:href="#DejaVuSans-20" x="493.652344"/>
     <use xlink:href="#DejaVuSans-6e" x="525.439453"/>
     <use xlink:href="#DejaVuSans-73" x="588.818359"/>
     <use xlink:href="#DejaVuSans-64" x="640.917969"/>
    </g>
   </g>
  </g>
  <g id="legend_1">
   <g id="text_43">
    <!-- classifier -->
    <g transform="translate(1818.76063 148.531641) scale(0.18 -0.18)">
     <defs>
      <path id="DejaVuSans-63" d="M 3122 3366 
L 3122 2828 
Q 2878 2963 2633 3030 
Q 2388 3097 2138 3097 
Q 1578 3097 1268 2742 
Q 959 2388 959 1747 
Q 959 1106 1268 751 
Q 1578 397 2138 397 
Q 2388 397 2633 464 
Q 2878 531 3122 666 
L 3122 134 
Q 2881 22 2623 -34 
Q 2366 -91 2075 -91 
Q 1284 -91 818 406 
Q 353 903 353 1747 
Q 353 2603 823 3093 
Q 1294 3584 2113 3584 
Q 2378 3584 2631 3529 
Q 2884 3475 3122 3366 
z
" transform="scale(0.015625)"/>
     </defs>
     <use xlink:href="#DejaVuSans-63"/>
     <use xlink:href="#DejaVuSans-6c" x="54.980469"/>
     <use xlink:href="#DejaVuSans-61" x="82.763672"/>
     <use xlink:href="#DejaVuSans-73" x="144.042969"/>
     <use xlink:href="#DejaVuSans-73" x="196.142578"/>
     <use xlink:href="#DejaVuSans-69" x="248.242188"/>
     <use xlink:href="#DejaVuSans-66" x="276.025391"/>
     <use xlink:href="#DejaVuSans-69" x="311.230469"/>
     <use xlink:href="#DejaVuSans-65" x="339.013672"/>
     <use xlink:href="#DejaVuSans-72" x="400.537109"/>
    </g>
   </g>
   <g id="line2d_68">
    <path d="M 1775.9477 167.2875 
L 1792.4477 167.2875 
L 1808.9477 167.2875 
" style="fill: none; stroke: #000000; stroke-width: 2.25; stroke-linecap: square"/>
   </g>
   <g id="text_44">
    <!-- LinearSVC -->
    <g transform="translate(1822.1477 173.0625) scale(0.165 -0.165)">
     <defs>
      <path id="DejaVuSans-4c" d="M 628 4666 
L 1259 4666 
L 1259 531 
L 3531 531 
L 3531 0 
L 628 0 
L 628 4666 
z
" transform="scale(0.015625)"/>
      <path id="DejaVuSans-53" d="M 3425 4513 
L 3425 3897 
Q 3066 4069 2747 4153 
Q 2428 4238 2131 4238 
Q 1616 4238 1336 4038 
Q 1056 3838 1056 3469 
Q 1056 3159 1242 3001 
Q 1428 2844 1947 2747 
L 2328 2669 
Q 3034 2534 3370 2195 
Q 3706 1856 3706 1288 
Q 3706 609 3251 259 
Q 2797 -91 1919 -91 
Q 1588 -91 1214 -16 
Q 841 59 441 206 
L 441 856 
Q 825 641 1194 531 
Q 1563 422 1919 422 
Q 2459 422 2753 634 
Q 3047 847 3047 1241 
Q 3047 1584 2836 1778 
Q 2625 1972 2144 2069 
L 1759 2144 
Q 1053 2284 737 2584 
Q 422 2884 422 3419 
Q 422 4038 858 4394 
Q 1294 4750 2059 4750 
Q 2388 4750 2728 4690 
Q 3069 4631 3425 4513 
z
" transform="scale(0.015625)"/>
      <path id="DejaVuSans-56" d="M 1831 0 
L 50 4666 
L 709 4666 
L 2188 738 
L 3669 4666 
L 4325 4666 
L 2547 0 
L 1831 0 
z
" transform="scale(0.015625)"/>
      <path id="DejaVuSans-43" d="M 4122 4306 
L 4122 3641 
Q 3803 3938 3442 4084 
Q 3081 4231 2675 4231 
Q 1875 4231 1450 3742 
Q 1025 3253 1025 2328 
Q 1025 1406 1450 917 
Q 1875 428 2675 428 
Q 3081 428 3442 575 
Q 3803 722 4122 1019 
L 4122 359 
Q 3791 134 3420 21 
Q 3050 -91 2638 -91 
Q 1578 -91 968 557 
Q 359 1206 359 2328 
Q 359 3453 968 4101 
Q 1578 4750 2638 4750 
Q 3056 4750 3426 4639 
Q 3797 4528 4122 4306 
z
" transform="scale(0.015625)"/>
     </defs>
     <use xlink:href="#DejaVuSans-4c"/>
     <use xlink:href="#DejaVuSans-69" x="55.712891"/>
     <use xlink:href="#DejaVuSans-6e" x="83.496094"/>
     <use xlink:href="#DejaVuSans-65" x="146.875"/>
     <use xlink:href="#DejaVuSans-61" x="208.398438"/>
     <use xlink:href="#DejaVuSans-72" x="269.677734"/>
     <use xlink:href="#DejaVuSans-53" x="310.791016"/>
     <use xlink:href="#DejaVuSans-56" x="374.267578"/>
     <use xlink:href="#DejaVuSans-43" x="442.675781"/>
    </g>
   </g>
   <g id="line2d_69">
    <path d="M 1775.9477 191.506406 
L 1792.4477 191.506406 
L 1808.9477 191.506406 
" style="fill: none; stroke-dasharray: 9,3.375; stroke-dashoffset: 0; stroke: #000000; stroke-width: 2.25"/>
   </g>
   <g id="text_45">
    <!-- RandomForest -->
    <g transform="translate(1822.1477 197.281406) scale(0.165 -0.165)">
     <defs>
      <path id="DejaVuSans-52" d="M 2841 2188 
Q 3044 2119 3236 1894 
Q 3428 1669 3622 1275 
L 4263 0 
L 3584 0 
L 2988 1197 
Q 2756 1666 2539 1819 
Q 2322 1972 1947 1972 
L 1259 1972 
L 1259 0 
L 628 0 
L 628 4666 
L 2053 4666 
Q 2853 4666 3247 4331 
Q 3641 3997 3641 3322 
Q 3641 2881 3436 2590 
Q 3231 2300 2841 2188 
z
M 1259 4147 
L 1259 2491 
L 2053 2491 
Q 2509 2491 2742 2702 
Q 2975 2913 2975 3322 
Q 2975 3731 2742 3939 
Q 2509 4147 2053 4147 
L 1259 4147 
z
" transform="scale(0.015625)"/>
      <path id="DejaVuSans-46" d="M 628 4666 
L 3309 4666 
L 3309 4134 
L 1259 4134 
L 1259 2759 
L 3109 2759 
L 3109 2228 
L 1259 2228 
L 1259 0 
L 628 0 
L 628 4666 
z
" transform="scale(0.015625)"/>
     </defs>
     <use xlink:href="#DejaVuSans-52"/>
     <use xlink:href="#DejaVuSans-61" x="67.232422"/>
     <use xlink:href="#DejaVuSans-6e" x="128.511719"/>
     <use xlink:href="#DejaVuSans-64" x="191.890625"/>
     <use xlink:href="#DejaVuSans-6f" x="255.367188"/>
     <use xlink:href="#DejaVuSans-6d" x="316.548828"/>
     <use xlink:href="#DejaVuSans-46" x="413.960938"/>
     <use xlink:href="#DejaVuSans-6f" x="467.855469"/>
     <use xlink:href="#DejaVuSans-72" x="529.037109"/>
     <use xlink:href="#DejaVuSans-65" x="567.900391"/>
     <use xlink:href="#DejaVuSans-73" x="629.423828"/>
     <use xlink:href="#DejaVuSans-74" x="681.523438"/>
    </g>
   </g>
  </g>
 </g>
 <defs>
  <clipPath id="p686cc3e82f">
   <rect x="81.187266" y="26.877187" width="312.918939" height="251.1"/>
  </clipPath>
  <clipPath id="pe732d3c88e">
   <rect x="422.384708" y="26.877187" width="312.918939" height="251.1"/>
  </clipPath>
  <clipPath id="p9e69c65bc6">
   <rect x="763.582149" y="26.877187" width="312.918939" height="251.1"/>
  </clipPath>
  <clipPath id="pd04365f561">
   <rect x="1104.779591" y="26.877187" width="312.918939" height="251.1"/>
  </clipPath>
  <clipPath id="pcced69fe91">
   <rect x="1445.977033" y="26.877187" width="312.918939" height="251.1"/>
  </clipPath>
 </defs>
</svg>
